<?xml version="1.0" encoding="UTF-8" standalone="no"?>
<!DOCTYPE svg PUBLIC "-//W3C//DTD SVG 1.1//EN"
 "http://www.w3.org/Graphics/SVG/1.1/DTD/svg11.dtd">
<!-- Generated by graphviz version 2.38.0 (20140413.2041)
 -->
<!-- Title: bond.h Pages: 1 -->
<svg width="721pt" height="196pt"
 viewBox="0.00 0.00 720.50 196.00" xmlns="http://www.w3.org/2000/svg" xmlns:xlink="http://www.w3.org/1999/xlink">
<g id="graph0" class="graph" transform="scale(1 1) rotate(0) translate(4 192)">
<title>bond.h</title>
<polygon fill="white" stroke="none" points="-4,4 -4,-192 716.5,-192 716.5,4 -4,4"/>
<!-- Node0 -->
<g id="node1" class="node"><title>Node0</title>
<polygon fill="#bfbfbf" stroke="black" points="250,-168.5 250,-187.5 296,-187.5 296,-168.5 250,-168.5"/>
<text text-anchor="middle" x="273" y="-175.5" font-family="Helvetica,sans-Serif" font-size="10.00">bond.h</text>
</g>
<!-- Node1 -->
<g id="node2" class="node"><title>Node1</title>
<polygon fill="white" stroke="#bfbfbf" points="150,-0.5 150,-19.5 204,-19.5 204,-0.5 150,-0.5"/>
<text text-anchor="middle" x="177" y="-7.5" font-family="Helvetica,sans-Serif" font-size="10.00">iostream</text>
</g>
<!-- Node0&#45;&gt;Node1 -->
<g id="edge1" class="edge"><title>Node0&#45;&gt;Node1</title>
<path fill="none" stroke="midnightblue" d="M263.256,-168.349C245.631,-152.114 208.568,-115.171 190,-76 183.068,-61.3763 179.829,-43.205 178.318,-29.7963"/>
<polygon fill="midnightblue" stroke="midnightblue" points="181.803,-29.4772 177.411,-19.8356 174.832,-30.1117 181.803,-29.4772"/>
</g>
<!-- Node2 -->
<g id="node3" class="node"><title>Node2</title>
<polygon fill="white" stroke="#bfbfbf" points="0,-0.5 0,-19.5 42,-19.5 42,-0.5 0,-0.5"/>
<text text-anchor="middle" x="21" y="-7.5" font-family="Helvetica,sans-Serif" font-size="10.00">vector</text>
</g>
<!-- Node0&#45;&gt;Node2 -->
<g id="edge2" class="edge"><title>Node0&#45;&gt;Node2</title>
<path fill="none" stroke="midnightblue" d="M249.905,-177.079C208.066,-176.224 118.217,-169.728 55,-132 27.098,-115.348 19.115,-106.533 8,-76 2.40876,-60.6408 7.02324,-42.3166 12.24,-29.0451"/>
<polygon fill="midnightblue" stroke="midnightblue" points="15.5547,-30.2016 16.3695,-19.6382 9.14508,-27.3879 15.5547,-30.2016"/>
</g>
<!-- Node3 -->
<g id="node4" class="node"><title>Node3</title>
<polygon fill="white" stroke="#bfbfbf" points="415,-112.5 415,-131.5 465,-131.5 465,-112.5 415,-112.5"/>
<text text-anchor="middle" x="440" y="-119.5" font-family="Helvetica,sans-Serif" font-size="10.00">iomanip</text>
</g>
<!-- Node0&#45;&gt;Node3 -->
<g id="edge3" class="edge"><title>Node0&#45;&gt;Node3</title>
<path fill="none" stroke="midnightblue" d="M296.221,-169.492C324.486,-160.352 372.482,-144.832 405.178,-134.26"/>
<polygon fill="midnightblue" stroke="midnightblue" points="406.357,-137.557 414.795,-131.15 404.203,-130.897 406.357,-137.557"/>
</g>
<!-- Node4 -->
<g id="node5" class="node"><title>Node4</title>
<polygon fill="white" stroke="#bfbfbf" points="199,-56.5 199,-75.5 251,-75.5 251,-56.5 199,-56.5"/>
<text text-anchor="middle" x="225" y="-63.5" font-family="Helvetica,sans-Serif" font-size="10.00">sstream</text>
</g>
<!-- Node0&#45;&gt;Node4 -->
<g id="edge4" class="edge"><title>Node0&#45;&gt;Node4</title>
<path fill="none" stroke="midnightblue" d="M269.234,-168.368C261.417,-150.456 243.294,-108.923 232.832,-84.9482"/>
<polygon fill="midnightblue" stroke="midnightblue" points="235.956,-83.357 228.749,-75.5914 229.541,-86.1566 235.956,-83.357"/>
</g>
<!-- Node5 -->
<g id="node6" class="node"><title>Node5</title>
<polygon fill="white" stroke="#bfbfbf" points="483,-112.5 483,-131.5 525,-131.5 525,-112.5 483,-112.5"/>
<text text-anchor="middle" x="504" y="-119.5" font-family="Helvetica,sans-Serif" font-size="10.00">locale</text>
</g>
<!-- Node0&#45;&gt;Node5 -->
<g id="edge5" class="edge"><title>Node0&#45;&gt;Node5</title>
<path fill="none" stroke="midnightblue" d="M296.038,-172.399C331.846,-165.129 403.207,-150.167 472.925,-132.143"/>
<polygon fill="midnightblue" stroke="midnightblue" points="473.955,-135.491 482.748,-129.58 472.188,-128.718 473.955,-135.491"/>
</g>
<!-- Node6 -->
<g id="node7" class="node"><title>Node6</title>
<polygon fill="white" stroke="#bfbfbf" points="269,-56.5 269,-75.5 321,-75.5 321,-56.5 269,-56.5"/>
<text text-anchor="middle" x="295" y="-63.5" font-family="Helvetica,sans-Serif" font-size="10.00">assert.h</text>
</g>
<!-- Node0&#45;&gt;Node6 -->
<g id="edge6" class="edge"><title>Node0&#45;&gt;Node6</title>
<path fill="none" stroke="midnightblue" d="M274.726,-168.368C278.277,-150.617 286.467,-109.666 291.281,-85.5974"/>
<polygon fill="midnightblue" stroke="midnightblue" points="294.753,-86.0837 293.282,-75.5914 287.888,-84.7108 294.753,-86.0837"/>
</g>
<!-- Node7 -->
<g id="node8" class="node"><title>Node7</title>
<polygon fill="white" stroke="#bfbfbf" points="543,-112.5 543,-131.5 587,-131.5 587,-112.5 543,-112.5"/>
<text text-anchor="middle" x="565" y="-119.5" font-family="Helvetica,sans-Serif" font-size="10.00">date.h</text>
</g>
<!-- Node0&#45;&gt;Node7 -->
<g id="edge7" class="edge"><title>Node0&#45;&gt;Node7</title>
<path fill="none" stroke="midnightblue" d="M296.216,-173.887C340.445,-167.768 439.965,-153.094 532.889,-132.048"/>
<polygon fill="midnightblue" stroke="midnightblue" points="533.764,-135.438 542.727,-129.789 532.198,-128.615 533.764,-135.438"/>
</g>
<!-- Node8 -->
<g id="node9" class="node"><title>Node8</title>
<g id="a_node9"><a xlink:href="irr_8h.html" target="_top" xlink:title="Functions for the Internal Rate of Return. ">
<polygon fill="white" stroke="black" points="64.5,-112.5 64.5,-131.5 97.5,-131.5 97.5,-112.5 64.5,-112.5"/>
<text text-anchor="middle" x="81" y="-119.5" font-family="Helvetica,sans-Serif" font-size="10.00">irr.h</text>
</a>
</g>
</g>
<!-- Node0&#45;&gt;Node8 -->
<g id="edge8" class="edge"><title>Node0&#45;&gt;Node8</title>
<path fill="none" stroke="midnightblue" d="M249.84,-170.486C213.92,-160.384 144.995,-140.999 107.269,-130.388"/>
<polygon fill="midnightblue" stroke="midnightblue" points="108.083,-126.981 97.5087,-127.643 106.188,-133.72 108.083,-126.981"/>
</g>
<!-- Node12 -->
<g id="node13" class="node"><title>Node12</title>
<g id="a_node13"><a xlink:href="ealgorithm__base_8h.html" target="_top" xlink:title="Classes and functions for the base of the solvers. ">
<polygon fill="white" stroke="black" points="301,-112.5 301,-131.5 397,-131.5 397,-112.5 301,-112.5"/>
<text text-anchor="middle" x="349" y="-119.5" font-family="Helvetica,sans-Serif" font-size="10.00">ealgorithm_base.h</text>
</a>
</g>
</g>
<!-- Node0&#45;&gt;Node12 -->
<g id="edge15" class="edge"><title>Node0&#45;&gt;Node12</title>
<path fill="none" stroke="midnightblue" d="M285.211,-168.324C296.776,-160.107 314.375,-147.602 328.161,-137.807"/>
<polygon fill="midnightblue" stroke="midnightblue" points="330.443,-140.479 336.567,-131.834 326.388,-134.773 330.443,-140.479"/>
</g>
<!-- Node8&#45;&gt;Node2 -->
<g id="edge9" class="edge"><title>Node8&#45;&gt;Node2</title>
<path fill="none" stroke="midnightblue" d="M64.4381,-114.84C48.7495,-108.008 26.1282,-95.3304 16,-76 8.45651,-61.6027 10.9499,-42.9035 14.5932,-29.2595"/>
<polygon fill="midnightblue" stroke="midnightblue" points="17.9758,-30.1678 17.5917,-19.58 11.2893,-28.0964 17.9758,-30.1678"/>
</g>
<!-- Node9 -->
<g id="node10" class="node"><title>Node9</title>
<polygon fill="white" stroke="#bfbfbf" points="25,-56.5 25,-75.5 69,-75.5 69,-56.5 25,-56.5"/>
<text text-anchor="middle" x="47" y="-63.5" font-family="Helvetica,sans-Serif" font-size="10.00">cmath</text>
</g>
<!-- Node8&#45;&gt;Node9 -->
<g id="edge10" class="edge"><title>Node8&#45;&gt;Node9</title>
<path fill="none" stroke="midnightblue" d="M75.3856,-112.083C70.6326,-104.534 63.6819,-93.4948 57.8484,-84.2298"/>
<polygon fill="midnightblue" stroke="midnightblue" points="60.7999,-82.3486 52.5099,-75.7511 54.8763,-86.0783 60.7999,-82.3486"/>
</g>
<!-- Node10 -->
<g id="node11" class="node"><title>Node10</title>
<g id="a_node11"><a xlink:href="utilities_8h.html" target="_top" xlink:title="Enumerations and functions used from the rest of the project. ">
<polygon fill="white" stroke="black" points="87,-56.5 87,-75.5 143,-75.5 143,-56.5 87,-56.5"/>
<text text-anchor="middle" x="115" y="-63.5" font-family="Helvetica,sans-Serif" font-size="10.00">utilities.h</text>
</a>
</g>
</g>
<!-- Node8&#45;&gt;Node10 -->
<g id="edge11" class="edge"><title>Node8&#45;&gt;Node10</title>
<path fill="none" stroke="midnightblue" d="M86.6144,-112.083C91.3674,-104.534 98.3181,-93.4948 104.152,-84.2298"/>
<polygon fill="midnightblue" stroke="midnightblue" points="107.124,-86.0783 109.49,-75.7511 101.2,-82.3486 107.124,-86.0783"/>
</g>
<!-- Node10&#45;&gt;Node1 -->
<g id="edge12" class="edge"><title>Node10&#45;&gt;Node1</title>
<path fill="none" stroke="midnightblue" d="M124.961,-56.324C134.127,-48.3414 147.937,-36.3128 159.028,-26.6529"/>
<polygon fill="midnightblue" stroke="midnightblue" points="161.615,-29.041 166.857,-19.8339 157.018,-23.7624 161.615,-29.041"/>
</g>
<!-- Node10&#45;&gt;Node2 -->
<g id="edge13" class="edge"><title>Node10&#45;&gt;Node2</title>
<path fill="none" stroke="midnightblue" d="M99.8973,-56.324C85.0967,-47.8215 62.3058,-34.7288 45.0178,-24.7975"/>
<polygon fill="midnightblue" stroke="midnightblue" points="46.4798,-21.6009 36.0652,-19.6545 42.9929,-27.6707 46.4798,-21.6009"/>
</g>
<!-- Node11 -->
<g id="node12" class="node"><title>Node11</title>
<polygon fill="white" stroke="#bfbfbf" points="84.5,-0.5 84.5,-19.5 131.5,-19.5 131.5,-0.5 84.5,-0.5"/>
<text text-anchor="middle" x="108" y="-7.5" font-family="Helvetica,sans-Serif" font-size="10.00">iterator</text>
</g>
<!-- Node10&#45;&gt;Node11 -->
<g id="edge14" class="edge"><title>Node10&#45;&gt;Node11</title>
<path fill="none" stroke="midnightblue" d="M113.844,-56.083C112.916,-48.9272 111.582,-38.6353 110.423,-29.6911"/>
<polygon fill="midnightblue" stroke="midnightblue" points="113.891,-29.2181 109.134,-19.7511 106.949,-30.1181 113.891,-29.2181"/>
</g>
<!-- Node12&#45;&gt;Node1 -->
<g id="edge16" class="edge"><title>Node12&#45;&gt;Node1</title>
<path fill="none" stroke="midnightblue" d="M354.816,-112.428C363.156,-98.9682 376.135,-72.6917 363,-56 344.864,-32.953 263.282,-20.2922 214.388,-14.6533"/>
<polygon fill="midnightblue" stroke="midnightblue" points="214.516,-11.1461 204.191,-13.5241 213.745,-18.1036 214.516,-11.1461"/>
</g>
<!-- Node12&#45;&gt;Node2 -->
<g id="edge17" class="edge"><title>Node12&#45;&gt;Node2</title>
<path fill="none" stroke="midnightblue" d="M349.224,-112.288C349.073,-98.1385 346.536,-70.3094 330,-56 286.725,-18.5521 131.563,-28.7048 75,-20 67.5085,-18.8471 59.444,-17.5391 51.8906,-16.2845"/>
<polygon fill="midnightblue" stroke="midnightblue" points="52.4504,-12.8295 42.009,-14.6263 51.2919,-19.733 52.4504,-12.8295"/>
</g>
<!-- Node12&#45;&gt;Node4 -->
<g id="edge24" class="edge"><title>Node12&#45;&gt;Node4</title>
<path fill="none" stroke="midnightblue" d="M329.352,-112.444C309.035,-103.596 277.097,-89.6875 253.902,-79.5865"/>
<polygon fill="midnightblue" stroke="midnightblue" points="255.122,-76.3002 244.556,-75.5164 252.327,-82.7181 255.122,-76.3002"/>
</g>
<!-- Node12&#45;&gt;Node6 -->
<g id="edge18" class="edge"><title>Node12&#45;&gt;Node6</title>
<path fill="none" stroke="midnightblue" d="M340.083,-112.083C332.22,-104.22 320.569,-92.5688 311.081,-83.0813"/>
<polygon fill="midnightblue" stroke="midnightblue" points="313.297,-80.3473 303.751,-75.7511 308.347,-85.2971 313.297,-80.3473"/>
</g>
<!-- Node12&#45;&gt;Node10 -->
<g id="edge25" class="edge"><title>Node12&#45;&gt;Node10</title>
<path fill="none" stroke="midnightblue" d="M311.922,-112.444C268.495,-102.422 196.928,-85.9064 153.075,-75.7866"/>
<polygon fill="midnightblue" stroke="midnightblue" points="153.622,-72.3209 143.091,-73.4826 152.048,-79.1417 153.622,-72.3209"/>
</g>
<!-- Node13 -->
<g id="node14" class="node"><title>Node13</title>
<polygon fill="white" stroke="#bfbfbf" points="415,-56.5 415,-75.5 455,-75.5 455,-56.5 415,-56.5"/>
<text text-anchor="middle" x="435" y="-63.5" font-family="Helvetica,sans-Serif" font-size="10.00">utility</text>
</g>
<!-- Node12&#45;&gt;Node13 -->
<g id="edge19" class="edge"><title>Node12&#45;&gt;Node13</title>
<path fill="none" stroke="midnightblue" d="M362.817,-112.324C376.233,-103.9 396.824,-90.9709 412.586,-81.0741"/>
<polygon fill="midnightblue" stroke="midnightblue" points="414.609,-83.9364 421.217,-75.6545 410.887,-78.0081 414.609,-83.9364"/>
</g>
<!-- Node14 -->
<g id="node15" class="node"><title>Node14</title>
<polygon fill="white" stroke="#bfbfbf" points="473,-56.5 473,-75.5 519,-75.5 519,-56.5 473,-56.5"/>
<text text-anchor="middle" x="496" y="-63.5" font-family="Helvetica,sans-Serif" font-size="10.00">chrono</text>
</g>
<!-- Node12&#45;&gt;Node14 -->
<g id="edge20" class="edge"><title>Node12&#45;&gt;Node14</title>
<path fill="none" stroke="midnightblue" d="M372.293,-112.444C396.807,-103.438 435.596,-89.1891 463.2,-79.049"/>
<polygon fill="midnightblue" stroke="midnightblue" points="464.637,-82.25 472.816,-75.5164 462.223,-75.6793 464.637,-82.25"/>
</g>
<!-- Node15 -->
<g id="node16" class="node"><title>Node15</title>
<polygon fill="white" stroke="#bfbfbf" points="537.5,-56.5 537.5,-75.5 578.5,-75.5 578.5,-56.5 537.5,-56.5"/>
<text text-anchor="middle" x="558" y="-63.5" font-family="Helvetica,sans-Serif" font-size="10.00">ctime</text>
</g>
<!-- Node12&#45;&gt;Node15 -->
<g id="edge21" class="edge"><title>Node12&#45;&gt;Node15</title>
<path fill="none" stroke="midnightblue" d="M385.125,-112.426C419.315,-104.198 472.297,-91.16 527.428,-76.0612"/>
<polygon fill="midnightblue" stroke="midnightblue" points="528.667,-79.3503 537.379,-73.3199 526.808,-72.6018 528.667,-79.3503"/>
</g>
<!-- Node16 -->
<g id="node17" class="node"><title>Node16</title>
<polygon fill="white" stroke="#bfbfbf" points="596.5,-56.5 596.5,-75.5 645.5,-75.5 645.5,-56.5 596.5,-56.5"/>
<text text-anchor="middle" x="621" y="-63.5" font-family="Helvetica,sans-Serif" font-size="10.00">random</text>
</g>
<!-- Node12&#45;&gt;Node16 -->
<g id="edge22" class="edge"><title>Node12&#45;&gt;Node16</title>
<path fill="none" stroke="midnightblue" d="M397.302,-113.076C443.569,-105.224 515.543,-92.3267 586.225,-76.2808"/>
<polygon fill="midnightblue" stroke="midnightblue" points="587.223,-79.643 596.188,-73.996 585.658,-72.8201 587.223,-79.643"/>
</g>
<!-- Node17 -->
<g id="node18" class="node"><title>Node17</title>
<polygon fill="white" stroke="#bfbfbf" points="663.5,-56.5 663.5,-75.5 712.5,-75.5 712.5,-56.5 663.5,-56.5"/>
<text text-anchor="middle" x="688" y="-63.5" font-family="Helvetica,sans-Serif" font-size="10.00">fstream</text>
</g>
<!-- Node12&#45;&gt;Node17 -->
<g id="edge23" class="edge"><title>Node12&#45;&gt;Node17</title>
<path fill="none" stroke="midnightblue" d="M397.195,-113.345C400.174,-112.886 403.127,-112.434 406,-112 513.321,-95.7698 543.755,-98.5671 653.093,-76.2052"/>
<polygon fill="midnightblue" stroke="midnightblue" points="654.13,-79.5649 663.213,-74.1105 652.711,-72.7102 654.13,-79.5649"/>
</g>
</g>
</svg>
