<?xml version="1.0" encoding="UTF-8" standalone="no"?>
<!DOCTYPE svg PUBLIC "-//W3C//DTD SVG 1.1//EN"
 "http://www.w3.org/Graphics/SVG/1.1/DTD/svg11.dtd">
<!-- Generated by graphviz version 2.38.0 (20140413.2041)
 -->
<!-- Title: bondhelper.h Pages: 1 -->
<svg width="903pt" height="252pt"
 viewBox="0.00 0.00 902.70 252.00" xmlns="http://www.w3.org/2000/svg" xmlns:xlink="http://www.w3.org/1999/xlink">
<g id="graph0" class="graph" transform="scale(1 1) rotate(0) translate(4 248)">
<title>bondhelper.h</title>
<polygon fill="white" stroke="none" points="-4,4 -4,-248 898.702,-248 898.702,4 -4,4"/>
<!-- Node0 -->
<g id="node1" class="node"><title>Node0</title>
<polygon fill="#bfbfbf" stroke="black" points="288.757,-224.5 288.757,-243.5 360.757,-243.5 360.757,-224.5 288.757,-224.5"/>
<text text-anchor="middle" x="324.757" y="-231.5" font-family="Helvetica,sans-Serif" font-size="10.00">bondhelper.h</text>
</g>
<!-- Node1 -->
<g id="node2" class="node"><title>Node1</title>
<polygon fill="white" stroke="#bfbfbf" points="133.757,-0.5 133.757,-19.5 175.757,-19.5 175.757,-0.5 133.757,-0.5"/>
<text text-anchor="middle" x="154.757" y="-7.5" font-family="Helvetica,sans-Serif" font-size="10.00">vector</text>
</g>
<!-- Node0&#45;&gt;Node1 -->
<g id="edge1" class="edge"><title>Node0&#45;&gt;Node1</title>
<path fill="none" stroke="midnightblue" d="M288.511,-226.905C212.678,-213.338 41.5003,-178.166 7.75691,-132 -2.58419,-117.852 -3.98766,-78.6156 14.7569,-56 41.3234,-23.9471 90.8491,-14.4699 123.306,-11.813"/>
<polygon fill="midnightblue" stroke="midnightblue" points="123.846,-15.2856 133.601,-11.1507 123.397,-8.30004 123.846,-15.2856"/>
</g>
<!-- Node2 -->
<g id="node3" class="node"><title>Node2</title>
<polygon fill="white" stroke="#bfbfbf" points="218.757,-168.5 218.757,-187.5 256.757,-187.5 256.757,-168.5 218.757,-168.5"/>
<text text-anchor="middle" x="237.757" y="-175.5" font-family="Helvetica,sans-Serif" font-size="10.00">tuple</text>
</g>
<!-- Node0&#45;&gt;Node2 -->
<g id="edge2" class="edge"><title>Node0&#45;&gt;Node2</title>
<path fill="none" stroke="midnightblue" d="M310.779,-224.324C297.207,-215.9 276.377,-202.971 260.432,-193.074"/>
<polygon fill="midnightblue" stroke="midnightblue" points="262.042,-189.954 251.7,-187.655 258.351,-195.902 262.042,-189.954"/>
</g>
<!-- Node3 -->
<g id="node4" class="node"><title>Node3</title>
<polygon fill="white" stroke="#bfbfbf" points="274.757,-168.5 274.757,-187.5 314.757,-187.5 314.757,-168.5 274.757,-168.5"/>
<text text-anchor="middle" x="294.757" y="-175.5" font-family="Helvetica,sans-Serif" font-size="10.00">limits</text>
</g>
<!-- Node0&#45;&gt;Node3 -->
<g id="edge3" class="edge"><title>Node0&#45;&gt;Node3</title>
<path fill="none" stroke="midnightblue" d="M319.803,-224.083C315.653,-216.613 309.604,-205.724 304.49,-196.52"/>
<polygon fill="midnightblue" stroke="midnightblue" points="307.535,-194.793 299.619,-187.751 301.416,-198.192 307.535,-194.793"/>
</g>
<!-- Node4 -->
<g id="node5" class="node"><title>Node4</title>
<g id="a_node5"><a xlink:href="bond_8h.html" target="_top" xlink:title="Classes and functions for bonds and their internal rate of return. ">
<polygon fill="white" stroke="black" points="332.757,-168.5 332.757,-187.5 378.757,-187.5 378.757,-168.5 332.757,-168.5"/>
<text text-anchor="middle" x="355.757" y="-175.5" font-family="Helvetica,sans-Serif" font-size="10.00">bond.h</text>
</a>
</g>
</g>
<!-- Node0&#45;&gt;Node4 -->
<g id="edge4" class="edge"><title>Node0&#45;&gt;Node4</title>
<path fill="none" stroke="midnightblue" d="M329.876,-224.083C334.164,-216.613 340.415,-205.724 345.699,-196.52"/>
<polygon fill="midnightblue" stroke="midnightblue" points="348.79,-198.166 350.733,-187.751 342.719,-194.681 348.79,-198.166"/>
</g>
<!-- Node21 -->
<g id="node22" class="node"><title>Node21</title>
<g id="a_node22"><a xlink:href="svensson_8h.html" target="_top" xlink:title="Functions for the Nelson&#45;Siegel&#45;Svensson model. ">
<polygon fill="white" stroke="black" points="816.257,-56.5 816.257,-75.5 881.257,-75.5 881.257,-56.5 816.257,-56.5"/>
<text text-anchor="middle" x="848.757" y="-63.5" font-family="Helvetica,sans-Serif" font-size="10.00">svensson.h</text>
</a>
</g>
</g>
<!-- Node0&#45;&gt;Node21 -->
<g id="edge30" class="edge"><title>Node0&#45;&gt;Node21</title>
<path fill="none" stroke="midnightblue" d="M360.841,-231.936C441.624,-228.147 641.122,-210.861 783.757,-132 805.27,-120.106 824.426,-98.9932 836.274,-84.0613"/>
<polygon fill="midnightblue" stroke="midnightblue" points="839.372,-85.7715 842.662,-75.7004 833.809,-81.5217 839.372,-85.7715"/>
</g>
<!-- Node22 -->
<g id="node23" class="node"><title>Node22</title>
<g id="a_node23"><a xlink:href="yield__curve__fitting_8h.html" target="_top" xlink:title="Class and functions for the yield curve fitting problem. ">
<polygon fill="white" stroke="black" points="673.257,-112.5 673.257,-131.5 774.257,-131.5 774.257,-112.5 673.257,-112.5"/>
<text text-anchor="middle" x="723.757" y="-119.5" font-family="Helvetica,sans-Serif" font-size="10.00">yield_curve_fitting.h</text>
</a>
</g>
</g>
<!-- Node0&#45;&gt;Node22 -->
<g id="edge31" class="edge"><title>Node0&#45;&gt;Node22</title>
<path fill="none" stroke="midnightblue" d="M355.734,-224.46C427.111,-204.782 603.141,-156.252 683.085,-134.213"/>
<polygon fill="midnightblue" stroke="midnightblue" points="684.09,-137.566 692.8,-131.535 682.229,-130.818 684.09,-137.566"/>
</g>
<!-- Node4&#45;&gt;Node1 -->
<g id="edge6" class="edge"><title>Node4&#45;&gt;Node1</title>
<path fill="none" stroke="midnightblue" d="M332.658,-170.568C278.694,-155.01 147.14,-113.835 123.757,-76 113.959,-60.1469 126.082,-40.7177 137.919,-27.2518"/>
<polygon fill="midnightblue" stroke="midnightblue" points="140.716,-29.3891 145.054,-19.7232 135.635,-24.5738 140.716,-29.3891"/>
</g>
<!-- Node5 -->
<g id="node6" class="node"><title>Node5</title>
<polygon fill="white" stroke="#bfbfbf" points="653.757,-0.5 653.757,-19.5 707.757,-19.5 707.757,-0.5 653.757,-0.5"/>
<text text-anchor="middle" x="680.757" y="-7.5" font-family="Helvetica,sans-Serif" font-size="10.00">iostream</text>
</g>
<!-- Node4&#45;&gt;Node5 -->
<g id="edge5" class="edge"><title>Node4&#45;&gt;Node5</title>
<path fill="none" stroke="midnightblue" d="M379.009,-176.875C474.814,-175.772 836.487,-165.656 890.757,-76 895.36,-68.3957 896.345,-62.9126 890.757,-56 869.495,-29.6997 772.917,-18.0768 718.44,-13.5365"/>
<polygon fill="midnightblue" stroke="midnightblue" points="718.386,-10.0213 708.141,-12.7206 717.833,-16.9994 718.386,-10.0213"/>
</g>
<!-- Node6 -->
<g id="node7" class="node"><title>Node6</title>
<polygon fill="white" stroke="#bfbfbf" points="68.7569,-112.5 68.7569,-131.5 118.757,-131.5 118.757,-112.5 68.7569,-112.5"/>
<text text-anchor="middle" x="93.7569" y="-119.5" font-family="Helvetica,sans-Serif" font-size="10.00">iomanip</text>
</g>
<!-- Node4&#45;&gt;Node6 -->
<g id="edge7" class="edge"><title>Node4&#45;&gt;Node6</title>
<path fill="none" stroke="midnightblue" d="M332.748,-170.268C329.734,-169.463 326.679,-168.685 323.757,-168 239.653,-148.287 217.304,-149.716 132.757,-132 131.494,-131.735 130.21,-131.462 128.913,-131.182"/>
<polygon fill="midnightblue" stroke="midnightblue" points="129.42,-127.71 118.899,-128.96 127.903,-134.543 129.42,-127.71"/>
</g>
<!-- Node7 -->
<g id="node8" class="node"><title>Node7</title>
<polygon fill="white" stroke="#bfbfbf" points="601.757,-56.5 601.757,-75.5 653.757,-75.5 653.757,-56.5 601.757,-56.5"/>
<text text-anchor="middle" x="627.757" y="-63.5" font-family="Helvetica,sans-Serif" font-size="10.00">sstream</text>
</g>
<!-- Node4&#45;&gt;Node7 -->
<g id="edge8" class="edge"><title>Node4&#45;&gt;Node7</title>
<path fill="none" stroke="midnightblue" d="M376.057,-168.419C396.58,-159.635 429.125,-145.41 456.757,-132 473.927,-123.667 477.218,-119.526 494.757,-112 526.836,-98.2339 564.644,-85.7876 591.733,-77.4923"/>
<polygon fill="midnightblue" stroke="midnightblue" points="592.997,-80.7667 601.556,-74.5222 590.971,-74.0663 592.997,-80.7667"/>
</g>
<!-- Node8 -->
<g id="node9" class="node"><title>Node8</title>
<polygon fill="white" stroke="#bfbfbf" points="291.757,-112.5 291.757,-131.5 333.757,-131.5 333.757,-112.5 291.757,-112.5"/>
<text text-anchor="middle" x="312.757" y="-119.5" font-family="Helvetica,sans-Serif" font-size="10.00">locale</text>
</g>
<!-- Node4&#45;&gt;Node8 -->
<g id="edge9" class="edge"><title>Node4&#45;&gt;Node8</title>
<path fill="none" stroke="midnightblue" d="M348.656,-168.083C342.52,-160.377 333.487,-149.033 326.018,-139.653"/>
<polygon fill="midnightblue" stroke="midnightblue" points="328.693,-137.394 319.725,-131.751 323.217,-141.754 328.693,-137.394"/>
</g>
<!-- Node9 -->
<g id="node10" class="node"><title>Node9</title>
<polygon fill="white" stroke="#bfbfbf" points="132.757,-56.5 132.757,-75.5 184.757,-75.5 184.757,-56.5 132.757,-56.5"/>
<text text-anchor="middle" x="158.757" y="-63.5" font-family="Helvetica,sans-Serif" font-size="10.00">assert.h</text>
</g>
<!-- Node4&#45;&gt;Node9 -->
<g id="edge10" class="edge"><title>Node4&#45;&gt;Node9</title>
<path fill="none" stroke="midnightblue" d="M340.299,-168.368C306.134,-149.292 223.986,-103.422 182.944,-80.5054"/>
<polygon fill="midnightblue" stroke="midnightblue" points="184.581,-77.4108 174.143,-75.5914 181.168,-83.5226 184.581,-77.4108"/>
</g>
<!-- Node10 -->
<g id="node11" class="node"><title>Node10</title>
<polygon fill="white" stroke="#bfbfbf" points="503.757,-112.5 503.757,-131.5 547.757,-131.5 547.757,-112.5 503.757,-112.5"/>
<text text-anchor="middle" x="525.757" y="-119.5" font-family="Helvetica,sans-Serif" font-size="10.00">date.h</text>
</g>
<!-- Node4&#45;&gt;Node10 -->
<g id="edge11" class="edge"><title>Node4&#45;&gt;Node10</title>
<path fill="none" stroke="midnightblue" d="M379.038,-169.605C408.788,-160.155 460.423,-143.753 493.828,-133.142"/>
<polygon fill="midnightblue" stroke="midnightblue" points="495.095,-136.412 503.566,-130.049 492.975,-129.741 495.095,-136.412"/>
</g>
<!-- Node11 -->
<g id="node12" class="node"><title>Node11</title>
<g id="a_node12"><a xlink:href="irr_8h.html" target="_top" xlink:title="Functions for the Internal Rate of Return. ">
<polygon fill="white" stroke="black" points="17.2569,-112.5 17.2569,-131.5 50.2569,-131.5 50.2569,-112.5 17.2569,-112.5"/>
<text text-anchor="middle" x="33.7569" y="-119.5" font-family="Helvetica,sans-Serif" font-size="10.00">irr.h</text>
</a>
</g>
</g>
<!-- Node4&#45;&gt;Node11 -->
<g id="edge12" class="edge"><title>Node4&#45;&gt;Node11</title>
<path fill="none" stroke="midnightblue" d="M332.43,-170.036C329.524,-169.288 326.582,-168.587 323.757,-168 210.984,-144.57 176.798,-158.679 60.4105,-131.68"/>
<polygon fill="midnightblue" stroke="midnightblue" points="60.9342,-128.207 50.3962,-129.304 59.318,-135.018 60.9342,-128.207"/>
</g>
<!-- Node15 -->
<g id="node16" class="node"><title>Node15</title>
<g id="a_node16"><a xlink:href="ealgorithm__base_8h.html" target="_top" xlink:title="Classes and functions for the base of the solvers. ">
<polygon fill="white" stroke="black" points="351.757,-112.5 351.757,-131.5 447.757,-131.5 447.757,-112.5 351.757,-112.5"/>
<text text-anchor="middle" x="399.757" y="-119.5" font-family="Helvetica,sans-Serif" font-size="10.00">ealgorithm_base.h</text>
</a>
</g>
</g>
<!-- Node4&#45;&gt;Node15 -->
<g id="edge19" class="edge"><title>Node4&#45;&gt;Node15</title>
<path fill="none" stroke="midnightblue" d="M363.023,-168.083C369.302,-160.377 378.545,-149.033 386.188,-139.653"/>
<polygon fill="midnightblue" stroke="midnightblue" points="389.023,-141.714 392.626,-131.751 383.596,-137.293 389.023,-141.714"/>
</g>
<!-- Node11&#45;&gt;Node1 -->
<g id="edge13" class="edge"><title>Node11&#45;&gt;Node1</title>
<path fill="none" stroke="midnightblue" d="M28.7069,-112.086C21.8315,-98.6308 11.6838,-72.9128 23.7569,-56 46.2534,-24.4855 92.2743,-14.8122 123.328,-11.9724"/>
<polygon fill="midnightblue" stroke="midnightblue" points="123.903,-15.4401 133.625,-11.2283 123.398,-8.45827 123.903,-15.4401"/>
</g>
<!-- Node12 -->
<g id="node13" class="node"><title>Node12</title>
<polygon fill="white" stroke="#bfbfbf" points="32.7569,-56.5 32.7569,-75.5 76.7569,-75.5 76.7569,-56.5 32.7569,-56.5"/>
<text text-anchor="middle" x="54.7569" y="-63.5" font-family="Helvetica,sans-Serif" font-size="10.00">cmath</text>
</g>
<!-- Node11&#45;&gt;Node12 -->
<g id="edge14" class="edge"><title>Node11&#45;&gt;Node12</title>
<path fill="none" stroke="midnightblue" d="M37.2246,-112.083C40.0686,-104.77 44.1864,-94.1814 47.7167,-85.1034"/>
<polygon fill="midnightblue" stroke="midnightblue" points="50.9912,-86.3397 51.3537,-75.7511 44.4672,-83.8025 50.9912,-86.3397"/>
</g>
<!-- Node13 -->
<g id="node14" class="node"><title>Node13</title>
<g id="a_node14"><a xlink:href="utilities_8h.html" target="_top" xlink:title="Enumerations and functions used from the rest of the project. ">
<polygon fill="white" stroke="black" points="240.757,-56.5 240.757,-75.5 296.757,-75.5 296.757,-56.5 240.757,-56.5"/>
<text text-anchor="middle" x="268.757" y="-63.5" font-family="Helvetica,sans-Serif" font-size="10.00">utilities.h</text>
</a>
</g>
</g>
<!-- Node11&#45;&gt;Node13 -->
<g id="edge15" class="edge"><title>Node11&#45;&gt;Node13</title>
<path fill="none" stroke="midnightblue" d="M50.4462,-114.889C53.522,-113.858 56.7208,-112.849 59.7569,-112 118.702,-95.5177 188.429,-81.5976 230.589,-73.7779"/>
<polygon fill="midnightblue" stroke="midnightblue" points="231.23,-77.2187 240.434,-71.9701 229.966,-70.3338 231.23,-77.2187"/>
</g>
<!-- Node13&#45;&gt;Node1 -->
<g id="edge17" class="edge"><title>Node13&#45;&gt;Node1</title>
<path fill="none" stroke="midnightblue" d="M250.693,-56.4435C232.182,-47.6751 203.176,-33.9355 181.901,-23.8579"/>
<polygon fill="midnightblue" stroke="midnightblue" points="183.272,-20.6343 172.736,-19.5164 180.275,-26.9604 183.272,-20.6343"/>
</g>
<!-- Node13&#45;&gt;Node5 -->
<g id="edge16" class="edge"><title>Node13&#45;&gt;Node5</title>
<path fill="none" stroke="midnightblue" d="M296.965,-57.7718C299.923,-57.1237 302.895,-56.518 305.757,-56 428.25,-33.834 575.293,-19.7965 643.112,-14.0215"/>
<polygon fill="midnightblue" stroke="midnightblue" points="643.628,-17.4905 653.3,-13.1656 643.042,-10.5151 643.628,-17.4905"/>
</g>
<!-- Node14 -->
<g id="node15" class="node"><title>Node14</title>
<polygon fill="white" stroke="#bfbfbf" points="245.257,-0.5 245.257,-19.5 292.257,-19.5 292.257,-0.5 245.257,-0.5"/>
<text text-anchor="middle" x="268.757" y="-7.5" font-family="Helvetica,sans-Serif" font-size="10.00">iterator</text>
</g>
<!-- Node13&#45;&gt;Node14 -->
<g id="edge18" class="edge"><title>Node13&#45;&gt;Node14</title>
<path fill="none" stroke="midnightblue" d="M268.757,-56.083C268.757,-49.0059 268.757,-38.8611 268.757,-29.9865"/>
<polygon fill="midnightblue" stroke="midnightblue" points="272.257,-29.751 268.757,-19.7511 265.257,-29.7511 272.257,-29.751"/>
</g>
<!-- Node15&#45;&gt;Node1 -->
<g id="edge21" class="edge"><title>Node15&#45;&gt;Node1</title>
<path fill="none" stroke="midnightblue" d="M359.918,-112.442C317.629,-102.987 253.903,-87.5692 231.757,-76 207.422,-63.2877 183.986,-41.7337 169.492,-26.956"/>
<polygon fill="midnightblue" stroke="midnightblue" points="171.849,-24.3563 162.411,-19.5425 166.787,-29.1913 171.849,-24.3563"/>
</g>
<!-- Node15&#45;&gt;Node5 -->
<g id="edge20" class="edge"><title>Node15&#45;&gt;Node5</title>
<path fill="none" stroke="midnightblue" d="M436.79,-112.489C468.643,-104.644 515.519,-91.8323 554.757,-76 572.456,-68.8586 575.816,-64.7893 592.757,-56 613.576,-45.1985 637.251,-33.1027 654.797,-24.1741"/>
<polygon fill="midnightblue" stroke="midnightblue" points="656.529,-27.2199 663.856,-19.5679 653.356,-20.9801 656.529,-27.2199"/>
</g>
<!-- Node15&#45;&gt;Node7 -->
<g id="edge28" class="edge"><title>Node15&#45;&gt;Node7</title>
<path fill="none" stroke="midnightblue" d="M435.884,-112.444C478.573,-102.333 549.167,-85.6134 591.787,-75.5192"/>
<polygon fill="midnightblue" stroke="midnightblue" points="592.803,-78.8754 601.727,-73.1649 591.19,-72.0638 592.803,-78.8754"/>
</g>
<!-- Node15&#45;&gt;Node9 -->
<g id="edge22" class="edge"><title>Node15&#45;&gt;Node9</title>
<path fill="none" stroke="midnightblue" d="M361.595,-112.469C321.162,-103.427 255.456,-88.7255 198.757,-76 197.507,-75.7194 196.235,-75.4338 194.95,-75.1452"/>
<polygon fill="midnightblue" stroke="midnightblue" points="195.53,-71.6884 185.006,-72.9102 193.995,-78.518 195.53,-71.6884"/>
</g>
<!-- Node15&#45;&gt;Node13 -->
<g id="edge29" class="edge"><title>Node15&#45;&gt;Node13</title>
<path fill="none" stroke="midnightblue" d="M379,-112.444C357.44,-103.557 323.494,-89.5632 298.963,-79.4514"/>
<polygon fill="midnightblue" stroke="midnightblue" points="299.996,-76.0917 289.417,-75.5164 297.329,-82.5634 299.996,-76.0917"/>
</g>
<!-- Node16 -->
<g id="node17" class="node"><title>Node16</title>
<polygon fill="white" stroke="#bfbfbf" points="505.757,-56.5 505.757,-75.5 545.757,-75.5 545.757,-56.5 505.757,-56.5"/>
<text text-anchor="middle" x="525.757" y="-63.5" font-family="Helvetica,sans-Serif" font-size="10.00">utility</text>
</g>
<!-- Node15&#45;&gt;Node16 -->
<g id="edge23" class="edge"><title>Node15&#45;&gt;Node16</title>
<path fill="none" stroke="midnightblue" d="M419.722,-112.444C440.366,-103.596 472.819,-89.6875 496.388,-79.5865"/>
<polygon fill="midnightblue" stroke="midnightblue" points="498.073,-82.6727 505.885,-75.5164 495.315,-76.2387 498.073,-82.6727"/>
</g>
<!-- Node17 -->
<g id="node18" class="node"><title>Node17</title>
<polygon fill="white" stroke="#bfbfbf" points="314.757,-56.5 314.757,-75.5 360.757,-75.5 360.757,-56.5 314.757,-56.5"/>
<text text-anchor="middle" x="337.757" y="-63.5" font-family="Helvetica,sans-Serif" font-size="10.00">chrono</text>
</g>
<!-- Node15&#45;&gt;Node17 -->
<g id="edge24" class="edge"><title>Node15&#45;&gt;Node17</title>
<path fill="none" stroke="midnightblue" d="M389.796,-112.324C380.63,-104.341 366.82,-92.3128 355.729,-82.6529"/>
<polygon fill="midnightblue" stroke="midnightblue" points="357.739,-79.7624 347.9,-75.8339 353.142,-85.041 357.739,-79.7624"/>
</g>
<!-- Node18 -->
<g id="node19" class="node"><title>Node18</title>
<polygon fill="white" stroke="#bfbfbf" points="379.257,-56.5 379.257,-75.5 420.257,-75.5 420.257,-56.5 379.257,-56.5"/>
<text text-anchor="middle" x="399.757" y="-63.5" font-family="Helvetica,sans-Serif" font-size="10.00">ctime</text>
</g>
<!-- Node15&#45;&gt;Node18 -->
<g id="edge25" class="edge"><title>Node15&#45;&gt;Node18</title>
<path fill="none" stroke="midnightblue" d="M399.757,-112.083C399.757,-105.006 399.757,-94.8611 399.757,-85.9865"/>
<polygon fill="midnightblue" stroke="midnightblue" points="403.257,-85.751 399.757,-75.7511 396.257,-85.7511 403.257,-85.751"/>
</g>
<!-- Node19 -->
<g id="node20" class="node"><title>Node19</title>
<polygon fill="white" stroke="#bfbfbf" points="438.257,-56.5 438.257,-75.5 487.257,-75.5 487.257,-56.5 438.257,-56.5"/>
<text text-anchor="middle" x="462.757" y="-63.5" font-family="Helvetica,sans-Serif" font-size="10.00">random</text>
</g>
<!-- Node15&#45;&gt;Node19 -->
<g id="edge26" class="edge"><title>Node15&#45;&gt;Node19</title>
<path fill="none" stroke="midnightblue" d="M409.879,-112.324C419.283,-104.263 433.501,-92.0765 444.826,-82.3695"/>
<polygon fill="midnightblue" stroke="midnightblue" points="447.136,-84.9993 452.451,-75.8339 442.58,-79.6844 447.136,-84.9993"/>
</g>
<!-- Node20 -->
<g id="node21" class="node"><title>Node20</title>
<polygon fill="white" stroke="#bfbfbf" points="672.257,-56.5 672.257,-75.5 721.257,-75.5 721.257,-56.5 672.257,-56.5"/>
<text text-anchor="middle" x="696.757" y="-63.5" font-family="Helvetica,sans-Serif" font-size="10.00">fstream</text>
</g>
<!-- Node15&#45;&gt;Node20 -->
<g id="edge27" class="edge"><title>Node15&#45;&gt;Node20</title>
<path fill="none" stroke="midnightblue" d="M447.997,-114.069C498.866,-106.464 581.523,-93.2733 662.12,-75.9739"/>
<polygon fill="midnightblue" stroke="midnightblue" points="662.906,-79.3849 671.937,-73.844 661.422,-72.5441 662.906,-79.3849"/>
</g>
<!-- Node22&#45;&gt;Node1 -->
<g id="edge35" class="edge"><title>Node22&#45;&gt;Node1</title>
<path fill="none" stroke="midnightblue" d="M728.481,-112.097C735.14,-98.1816 744.978,-71.2934 730.757,-56 693.204,-15.617 290.671,-25.0458 235.757,-20 219.43,-18.4998 201.289,-16.5138 186.32,-14.7891"/>
<polygon fill="midnightblue" stroke="midnightblue" points="186.391,-11.2737 176.052,-13.5901 185.579,-18.2265 186.391,-11.2737"/>
</g>
<!-- Node22&#45;&gt;Node5 -->
<g id="edge32" class="edge"><title>Node22&#45;&gt;Node5</title>
<path fill="none" stroke="midnightblue" d="M735.729,-112.427C751.499,-100.039 775.89,-76.3797 763.757,-56 753.734,-39.1638 734.973,-28.239 717.821,-21.376"/>
<polygon fill="midnightblue" stroke="midnightblue" points="718.581,-17.9275 707.987,-17.7905 716.183,-24.5041 718.581,-17.9275"/>
</g>
<!-- Node22&#45;&gt;Node7 -->
<g id="edge34" class="edge"><title>Node22&#45;&gt;Node7</title>
<path fill="none" stroke="midnightblue" d="M708.333,-112.324C693.217,-103.822 669.942,-90.7288 652.286,-80.7975"/>
<polygon fill="midnightblue" stroke="midnightblue" points="653.574,-77.5066 643.143,-75.6545 650.143,-83.6077 653.574,-77.5066"/>
</g>
<!-- Node22&#45;&gt;Node20 -->
<g id="edge33" class="edge"><title>Node22&#45;&gt;Node20</title>
<path fill="none" stroke="midnightblue" d="M719.298,-112.083C715.603,-104.691 710.234,-93.9533 705.662,-84.8111"/>
<polygon fill="midnightblue" stroke="midnightblue" points="708.735,-83.1301 701.132,-75.7511 702.474,-86.2606 708.735,-83.1301"/>
</g>
<!-- Node22&#45;&gt;Node21 -->
<g id="edge36" class="edge"><title>Node22&#45;&gt;Node21</title>
<path fill="none" stroke="midnightblue" d="M743.564,-112.444C764.044,-103.596 796.24,-89.6875 819.622,-79.5865"/>
<polygon fill="midnightblue" stroke="midnightblue" points="821.251,-82.6953 829.043,-75.5164 818.475,-76.2692 821.251,-82.6953"/>
</g>
</g>
</svg>
