<?xml version="1.0" encoding="UTF-8" standalone="no"?>
<!DOCTYPE svg PUBLIC "-//W3C//DTD SVG 1.1//EN"
 "http://www.w3.org/Graphics/SVG/1.1/DTD/svg11.dtd">
<!-- Generated by graphviz version 2.38.0 (20140413.2041)
 -->
<!-- Title: yft::Interest_Rate_Helper::fitness_yield_curve_fitting Pages: 1 -->
<svg width="270pt" height="66pt"
 viewBox="0.00 0.00 270.00 66.00" xmlns="http://www.w3.org/2000/svg" xmlns:xlink="http://www.w3.org/1999/xlink">
<g id="graph0" class="graph" transform="scale(1 1) rotate(0) translate(4 62)">
<title>yft::Interest_Rate_Helper::fitness_yield_curve_fitting</title>
<polygon fill="white" stroke="none" points="-4,4 -4,-62 266,-62 266,4 -4,4"/>
<!-- Node2 -->
<g id="node1" class="node"><title>Node2</title>
<polygon fill="#bfbfbf" stroke="black" points="0,-8.5 0,-49.5 110,-49.5 110,-8.5 0,-8.5"/>
<text text-anchor="start" x="8" y="-37.5" font-family="Helvetica,sans-Serif" font-size="10.00">yft::Interest_Rate</text>
<text text-anchor="start" x="8" y="-26.5" font-family="Helvetica,sans-Serif" font-size="10.00">_Helper::fitness_yield</text>
<text text-anchor="middle" x="55" y="-15.5" font-family="Helvetica,sans-Serif" font-size="10.00">_curve_fitting</text>
</g>
<!-- Node3 -->
<g id="node2" class="node"><title>Node3</title>
<g id="a_node2"><a xlink:href="namespacenss.html#a009a0ebbca20f7969d0c2ed5a241aa82" target="_top" xlink:title="Penalty function for NSS. ">
<polygon fill="white" stroke="black" points="146,-38.5 146,-57.5 262,-57.5 262,-38.5 146,-38.5"/>
<text text-anchor="middle" x="204" y="-45.5" font-family="Helvetica,sans-Serif" font-size="10.00">nss::penalty_svensson</text>
</a>
</g>
</g>
<!-- Node2&#45;&gt;Node3 -->
<g id="edge1" class="edge"><title>Node2&#45;&gt;Node3</title>
<path fill="none" stroke="midnightblue" d="M110.32,-36.0209C118.667,-37.0998 127.369,-38.2246 135.953,-39.3341"/>
<polygon fill="midnightblue" stroke="midnightblue" points="135.581,-42.815 145.947,-40.6258 136.479,-35.8728 135.581,-42.815"/>
</g>
<!-- Node4 -->
<g id="node3" class="node"><title>Node4</title>
<g id="a_node3"><a xlink:href="namespacenss.html#a71aad246261afa16f8bb1a4057570d4b" target="_top" xlink:title="Spot interest rate at term m using the NSS model. ">
<polygon fill="white" stroke="black" points="164.5,-0.5 164.5,-19.5 243.5,-19.5 243.5,-0.5 164.5,-0.5"/>
<text text-anchor="middle" x="204" y="-7.5" font-family="Helvetica,sans-Serif" font-size="10.00">nss::svensson</text>
</a>
</g>
</g>
<!-- Node2&#45;&gt;Node4 -->
<g id="edge2" class="edge"><title>Node2&#45;&gt;Node4</title>
<path fill="none" stroke="midnightblue" d="M110.32,-21.9791C124.667,-20.1247 140.062,-18.1348 154.104,-16.3199"/>
<polygon fill="midnightblue" stroke="midnightblue" points="154.586,-19.7869 164.054,-15.0338 153.688,-12.8446 154.586,-19.7869"/>
</g>
</g>
</svg>
