<?xml version="1.0" encoding="UTF-8" standalone="no"?>
<!DOCTYPE svg PUBLIC "-//W3C//DTD SVG 1.1//EN"
 "http://www.w3.org/Graphics/SVG/1.1/DTD/svg11.dtd">
<!-- Generated by graphviz version 2.38.0 (20140413.2041)
 -->
<!-- Title: bond::BondHelper::bond_pricing Pages: 1 -->
<svg width="297pt" height="66pt"
 viewBox="0.00 0.00 297.00 66.00" xmlns="http://www.w3.org/2000/svg" xmlns:xlink="http://www.w3.org/1999/xlink">
<g id="graph0" class="graph" transform="scale(1 1) rotate(0) translate(4 62)">
<title>bond::BondHelper::bond_pricing</title>
<polygon fill="white" stroke="none" points="-4,4 -4,-62 293,-62 293,4 -4,4"/>
<!-- Node2 -->
<g id="node1" class="node"><title>Node2</title>
<polygon fill="#bfbfbf" stroke="black" points="0,-14 0,-44 121,-44 121,-14 0,-14"/>
<text text-anchor="start" x="8" y="-32" font-family="Helvetica,sans-Serif" font-size="10.00">bond::BondHelper::bond</text>
<text text-anchor="middle" x="60.5" y="-21" font-family="Helvetica,sans-Serif" font-size="10.00">_pricing</text>
</g>
<!-- Node3 -->
<g id="node2" class="node"><title>Node3</title>
<g id="a_node2"><a xlink:href="namespacenss.html#a39de3569a71e773f9da82c713eb7e6eb" target="_top" xlink:title="Constraints function for the NSS model. ">
<polygon fill="white" stroke="black" points="157,-38.5 157,-57.5 289,-57.5 289,-38.5 157,-38.5"/>
<text text-anchor="middle" x="223" y="-45.5" font-family="Helvetica,sans-Serif" font-size="10.00">nss::constraints_svensson</text>
</a>
</g>
</g>
<!-- Node2&#45;&gt;Node3 -->
<g id="edge1" class="edge"><title>Node2&#45;&gt;Node3</title>
<path fill="none" stroke="midnightblue" d="M121.264,-36.0749C129.592,-37.0607 138.235,-38.0839 146.801,-39.098"/>
<polygon fill="midnightblue" stroke="midnightblue" points="146.456,-42.5814 156.798,-40.2814 147.279,-35.63 146.456,-42.5814"/>
</g>
<!-- Node4 -->
<g id="node3" class="node"><title>Node4</title>
<g id="a_node3"><a xlink:href="namespaceea.html#a6450b5bf61e9fdca8b6c19267e14c560" target="_top" xlink:title="Solver wrapper function, interface to solvers : free function used for benchmarks. ">
<polygon fill="white" stroke="black" points="195.5,-0.5 195.5,-19.5 250.5,-19.5 250.5,-0.5 195.5,-0.5"/>
<text text-anchor="middle" x="223" y="-7.5" font-family="Helvetica,sans-Serif" font-size="10.00">ea::solve</text>
</a>
</g>
</g>
<!-- Node2&#45;&gt;Node4 -->
<g id="edge2" class="edge"><title>Node2&#45;&gt;Node4</title>
<path fill="none" stroke="midnightblue" d="M121.264,-21.9251C142.771,-19.3791 166.382,-16.584 185.337,-14.3402"/>
<polygon fill="midnightblue" stroke="midnightblue" points="185.826,-17.8069 195.345,-13.1555 185.003,-10.8554 185.826,-17.8069"/>
</g>
</g>
</svg>
