<?xml version="1.0" encoding="UTF-8" standalone="no"?>
<!DOCTYPE svg PUBLIC "-//W3C//DTD SVG 1.1//EN"
 "http://www.w3.org/Graphics/SVG/1.1/DTD/svg11.dtd">
<!-- Generated by graphviz version 2.38.0 (20140413.2041)
 -->
<!-- Title: bond::Bond::compute_yield Pages: 1 -->
<svg width="511pt" height="104pt"
 viewBox="0.00 0.00 511.00 104.00" xmlns="http://www.w3.org/2000/svg" xmlns:xlink="http://www.w3.org/1999/xlink">
<g id="graph0" class="graph" transform="scale(1 1) rotate(0) translate(4 100)">
<title>bond::Bond::compute_yield</title>
<polygon fill="white" stroke="none" points="-4,4 -4,-100 507,-100 507,4 -4,4"/>
<!-- Node15 -->
<g id="node1" class="node"><title>Node15</title>
<polygon fill="#bfbfbf" stroke="black" points="0,-33 0,-63 110,-63 110,-33 0,-33"/>
<text text-anchor="start" x="8" y="-51" font-family="Helvetica,sans-Serif" font-size="10.00">bond::Bond::compute</text>
<text text-anchor="middle" x="55" y="-40" font-family="Helvetica,sans-Serif" font-size="10.00">_yield</text>
</g>
<!-- Node16 -->
<g id="node2" class="node"><title>Node16</title>
<g id="a_node2"><a xlink:href="namespaceirr.html#a6801aa96a307b3f52817dd1a3bcd065e" target="_top" xlink:title="Constraints function for Internal Rate of Return. ">
<polygon fill="white" stroke="black" points="146,-76.5 146,-95.5 238,-95.5 238,-76.5 146,-76.5"/>
<text text-anchor="middle" x="192" y="-83.5" font-family="Helvetica,sans-Serif" font-size="10.00">irr::constraints_irr</text>
</a>
</g>
</g>
<!-- Node15&#45;&gt;Node16 -->
<g id="edge1" class="edge"><title>Node15&#45;&gt;Node16</title>
<path fill="none" stroke="midnightblue" d="M109.356,-63.0186C121.908,-66.5518 135.143,-70.2773 147.218,-73.6763"/>
<polygon fill="midnightblue" stroke="midnightblue" points="146.474,-77.1027 157.048,-76.4432 148.371,-70.3645 146.474,-77.1027"/>
</g>
<!-- Node17 -->
<g id="node3" class="node"><title>Node17</title>
<g id="a_node3"><a xlink:href="namespaceirr.html#aced01c5e5ef9e171a3b892275d442f8d" target="_top" xlink:title="This is the fitness function for finding the internal rate of return of a bond, in this case it is eq...">
<polygon fill="white" stroke="black" points="155.5,-38.5 155.5,-57.5 228.5,-57.5 228.5,-38.5 155.5,-38.5"/>
<text text-anchor="middle" x="192" y="-45.5" font-family="Helvetica,sans-Serif" font-size="10.00">irr::fitness_irr</text>
</a>
</g>
</g>
<!-- Node15&#45;&gt;Node17 -->
<g id="edge2" class="edge"><title>Node15&#45;&gt;Node17</title>
<path fill="none" stroke="midnightblue" d="M110.132,-48C121.814,-48 134.052,-48 145.371,-48"/>
<polygon fill="midnightblue" stroke="midnightblue" points="145.464,-51.5001 155.464,-48 145.464,-44.5001 145.464,-51.5001"/>
</g>
<!-- Node21 -->
<g id="node7" class="node"><title>Node21</title>
<g id="a_node7"><a xlink:href="namespaceea.html#a6450b5bf61e9fdca8b6c19267e14c560" target="_top" xlink:title="Solver wrapper function, interface to solvers : free function used for benchmarks. ">
<polygon fill="white" stroke="black" points="164.5,-0.5 164.5,-19.5 219.5,-19.5 219.5,-0.5 164.5,-0.5"/>
<text text-anchor="middle" x="192" y="-7.5" font-family="Helvetica,sans-Serif" font-size="10.00">ea::solve</text>
</a>
</g>
</g>
<!-- Node15&#45;&gt;Node21 -->
<g id="edge6" class="edge"><title>Node15&#45;&gt;Node21</title>
<path fill="none" stroke="midnightblue" d="M109.356,-32.9814C124.538,-28.7078 140.72,-24.1529 154.639,-20.2349"/>
<polygon fill="midnightblue" stroke="midnightblue" points="155.651,-23.5862 164.328,-17.5076 153.754,-16.8481 155.651,-23.5862"/>
</g>
<!-- Node18 -->
<g id="node4" class="node"><title>Node18</title>
<g id="a_node4"><a xlink:href="namespaceirr.html#ac3411cd2ad174f399c525d8d17dcdad0" target="_top" xlink:title="Returns the present value of an investment. ">
<polygon fill="white" stroke="black" points="274,-57.5 274,-76.5 357,-76.5 357,-57.5 274,-57.5"/>
<text text-anchor="middle" x="315.5" y="-64.5" font-family="Helvetica,sans-Serif" font-size="10.00">irr::compute_pv</text>
</a>
</g>
</g>
<!-- Node17&#45;&gt;Node18 -->
<g id="edge3" class="edge"><title>Node17&#45;&gt;Node18</title>
<path fill="none" stroke="midnightblue" d="M228.797,-53.5979C239.733,-55.3081 251.975,-57.2225 263.708,-59.0572"/>
<polygon fill="midnightblue" stroke="midnightblue" points="263.421,-62.5548 273.842,-60.6419 264.503,-55.6388 263.421,-62.5548"/>
</g>
<!-- Node20 -->
<g id="node6" class="node"><title>Node20</title>
<g id="a_node6"><a xlink:href="namespaceirr.html#abd1d21a84003df6b46dc32c3a30d2269" target="_top" xlink:title="Penalty function for IRR. ">
<polygon fill="white" stroke="black" points="277.5,-19.5 277.5,-38.5 353.5,-38.5 353.5,-19.5 277.5,-19.5"/>
<text text-anchor="middle" x="315.5" y="-26.5" font-family="Helvetica,sans-Serif" font-size="10.00">irr::penalty_irr</text>
</a>
</g>
</g>
<!-- Node17&#45;&gt;Node20 -->
<g id="edge5" class="edge"><title>Node17&#45;&gt;Node20</title>
<path fill="none" stroke="midnightblue" d="M228.797,-42.4021C240.838,-40.5192 254.462,-38.3887 267.246,-36.3896"/>
<polygon fill="midnightblue" stroke="midnightblue" points="267.933,-39.8247 277.272,-34.8217 266.851,-32.9088 267.933,-39.8247"/>
</g>
<!-- Node19 -->
<g id="node5" class="node"><title>Node19</title>
<g id="a_node5"><a xlink:href="namespaceirr.html#ae00c3409ca39fa2dc47ce61da4169a66" target="_top" xlink:title="Calculates discount factors. ">
<polygon fill="white" stroke="black" points="393,-52 393,-82 503,-82 503,-52 393,-52"/>
<text text-anchor="start" x="401" y="-70" font-family="Helvetica,sans-Serif" font-size="10.00">irr::compute_discount</text>
<text text-anchor="middle" x="448" y="-59" font-family="Helvetica,sans-Serif" font-size="10.00">_factor</text>
</a>
</g>
</g>
<!-- Node18&#45;&gt;Node19 -->
<g id="edge4" class="edge"><title>Node18&#45;&gt;Node19</title>
<path fill="none" stroke="midnightblue" d="M357.076,-67C365.142,-67 373.799,-67 382.44,-67"/>
<polygon fill="midnightblue" stroke="midnightblue" points="382.539,-70.5001 392.539,-67 382.539,-63.5001 382.539,-70.5001"/>
</g>
</g>
</svg>
