<?xml version="1.0" encoding="UTF-8" standalone="no"?>
<!DOCTYPE svg PUBLIC "-//W3C//DTD SVG 1.1//EN"
 "http://www.w3.org/Graphics/SVG/1.1/DTD/svg11.dtd">
<!-- Generated by graphviz version 2.38.0 (20140413.2041)
 -->
<!-- Title: yft::Interest_Rate_Helper::yieldcurve_fitting Pages: 1 -->
<svg width="274pt" height="104pt"
 viewBox="0.00 0.00 274.00 104.00" xmlns="http://www.w3.org/2000/svg" xmlns:xlink="http://www.w3.org/1999/xlink">
<g id="graph0" class="graph" transform="scale(1 1) rotate(0) translate(4 100)">
<title>yft::Interest_Rate_Helper::yieldcurve_fitting</title>
<polygon fill="white" stroke="none" points="-4,4 -4,-100 270,-100 270,4 -4,4"/>
<!-- Node6 -->
<g id="node1" class="node"><title>Node6</title>
<polygon fill="#bfbfbf" stroke="black" points="0,-27.5 0,-68.5 98,-68.5 98,-27.5 0,-27.5"/>
<text text-anchor="start" x="8" y="-56.5" font-family="Helvetica,sans-Serif" font-size="10.00">yft::Interest_Rate</text>
<text text-anchor="start" x="8" y="-45.5" font-family="Helvetica,sans-Serif" font-size="10.00">_Helper::yieldcurve</text>
<text text-anchor="middle" x="49" y="-34.5" font-family="Helvetica,sans-Serif" font-size="10.00">_fitting</text>
</g>
<!-- Node7 -->
<g id="node2" class="node"><title>Node7</title>
<g id="a_node2"><a xlink:href="namespacenss.html#a39de3569a71e773f9da82c713eb7e6eb" target="_top" xlink:title="Constraints function for the NSS model. ">
<polygon fill="white" stroke="black" points="134,-76.5 134,-95.5 266,-95.5 266,-76.5 134,-76.5"/>
<text text-anchor="middle" x="200" y="-83.5" font-family="Helvetica,sans-Serif" font-size="10.00">nss::constraints_svensson</text>
</a>
</g>
</g>
<!-- Node6&#45;&gt;Node7 -->
<g id="edge1" class="edge"><title>Node6&#45;&gt;Node7</title>
<path fill="none" stroke="midnightblue" d="M98.376,-60.3375C115.566,-64.7216 134.881,-69.6475 151.958,-74.0027"/>
<polygon fill="midnightblue" stroke="midnightblue" points="151.166,-77.4127 161.721,-76.4926 152.896,-70.6298 151.166,-77.4127"/>
</g>
<!-- Node8 -->
<g id="node3" class="node"><title>Node8</title>
<g id="a_node3"><a xlink:href="namespaceea.html#a6450b5bf61e9fdca8b6c19267e14c560" target="_top" xlink:title="Solver wrapper function, interface to solvers : free function used for benchmarks. ">
<polygon fill="white" stroke="black" points="172.5,-38.5 172.5,-57.5 227.5,-57.5 227.5,-38.5 172.5,-38.5"/>
<text text-anchor="middle" x="200" y="-45.5" font-family="Helvetica,sans-Serif" font-size="10.00">ea::solve</text>
</a>
</g>
</g>
<!-- Node6&#45;&gt;Node8 -->
<g id="edge2" class="edge"><title>Node6&#45;&gt;Node8</title>
<path fill="none" stroke="midnightblue" d="M98.376,-48C119.025,-48 142.739,-48 161.958,-48"/>
<polygon fill="midnightblue" stroke="midnightblue" points="162.125,-51.5001 172.125,-48 162.125,-44.5001 162.125,-51.5001"/>
</g>
<!-- Node9 -->
<g id="node4" class="node"><title>Node9</title>
<g id="a_node4"><a xlink:href="namespacenss.html#a71aad246261afa16f8bb1a4057570d4b" target="_top" xlink:title="Spot interest rate at term m using the NSS model. ">
<polygon fill="white" stroke="black" points="160.5,-0.5 160.5,-19.5 239.5,-19.5 239.5,-0.5 160.5,-0.5"/>
<text text-anchor="middle" x="200" y="-7.5" font-family="Helvetica,sans-Serif" font-size="10.00">nss::svensson</text>
</a>
</g>
</g>
<!-- Node6&#45;&gt;Node9 -->
<g id="edge3" class="edge"><title>Node6&#45;&gt;Node9</title>
<path fill="none" stroke="midnightblue" d="M98.376,-35.6625C115.566,-31.2784 134.881,-26.3525 151.958,-21.9973"/>
<polygon fill="midnightblue" stroke="midnightblue" points="152.896,-25.3702 161.721,-19.5074 151.166,-18.5873 152.896,-25.3702"/>
</g>
</g>
</svg>
