<?xml version="1.0" encoding="UTF-8" standalone="no"?>
<!DOCTYPE svg PUBLIC "-//W3C//DTD SVG 1.1//EN"
 "http://www.w3.org/Graphics/SVG/1.1/DTD/svg11.dtd">
<!-- Generated by graphviz version 2.38.0 (20140413.2041)
 -->
<!-- Title: bond::BondHelper::estimate_bond_pricing Pages: 1 -->
<svg width="291pt" height="78pt"
 viewBox="0.00 0.00 291.00 77.50" xmlns="http://www.w3.org/2000/svg" xmlns:xlink="http://www.w3.org/1999/xlink">
<g id="graph0" class="graph" transform="scale(1 1) rotate(0) translate(4 73.5)">
<title>bond::BondHelper::estimate_bond_pricing</title>
<polygon fill="white" stroke="none" points="-4,4 -4,-73.5 287,-73.5 287,4 -4,4"/>
<!-- Node6 -->
<g id="node1" class="node"><title>Node6</title>
<polygon fill="#bfbfbf" stroke="black" points="0,-17 0,-47 137,-47 137,-17 0,-17"/>
<text text-anchor="start" x="8" y="-35" font-family="Helvetica,sans-Serif" font-size="10.00">bond::BondHelper::estimate</text>
<text text-anchor="middle" x="68.5" y="-24" font-family="Helvetica,sans-Serif" font-size="10.00">_bond_pricing</text>
</g>
<!-- Node7 -->
<g id="node2" class="node"><title>Node7</title>
<g id="a_node2"><a xlink:href="namespaceirr.html#ae00c3409ca39fa2dc47ce61da4169a66" target="_top" xlink:title="Calculates discount factors. ">
<polygon fill="white" stroke="black" points="173,-39 173,-69 283,-69 283,-39 173,-39"/>
<text text-anchor="start" x="181" y="-57" font-family="Helvetica,sans-Serif" font-size="10.00">irr::compute_discount</text>
<text text-anchor="middle" x="228" y="-46" font-family="Helvetica,sans-Serif" font-size="10.00">_factor</text>
</a>
</g>
</g>
<!-- Node6&#45;&gt;Node7 -->
<g id="edge1" class="edge"><title>Node6&#45;&gt;Node7</title>
<path fill="none" stroke="midnightblue" d="M137.208,-41.4577C145.625,-42.6334 154.214,-43.833 162.579,-45.0015"/>
<polygon fill="midnightblue" stroke="midnightblue" points="162.258,-48.4905 172.646,-46.4077 163.226,-41.5578 162.258,-48.4905"/>
</g>
<!-- Node8 -->
<g id="node3" class="node"><title>Node8</title>
<g id="a_node3"><a xlink:href="namespacenss.html#a71aad246261afa16f8bb1a4057570d4b" target="_top" xlink:title="Spot interest rate at term m using the NSS model. ">
<polygon fill="white" stroke="black" points="188.5,-0.5 188.5,-19.5 267.5,-19.5 267.5,-0.5 188.5,-0.5"/>
<text text-anchor="middle" x="228" y="-7.5" font-family="Helvetica,sans-Serif" font-size="10.00">nss::svensson</text>
</a>
</g>
</g>
<!-- Node6&#45;&gt;Node8 -->
<g id="edge2" class="edge"><title>Node6&#45;&gt;Node8</title>
<path fill="none" stroke="midnightblue" d="M137.208,-22.5423C151.024,-20.6126 165.302,-18.6182 178.296,-16.8031"/>
<polygon fill="midnightblue" stroke="midnightblue" points="178.989,-20.2404 188.408,-15.3906 178.02,-13.3077 178.989,-20.2404"/>
</g>
</g>
</svg>
