<?xml version="1.0" encoding="UTF-8" standalone="no"?>
<!DOCTYPE svg PUBLIC "-//W3C//DTD SVG 1.1//EN"
 "http://www.w3.org/Graphics/SVG/1.1/DTD/svg11.dtd">
<!-- Generated by graphviz version 2.38.0 (20140413.2041)
 -->
<!-- Title: ealgorithm_base.h Pages: 1 -->
<svg width="388pt" height="196pt"
 viewBox="0.00 0.00 387.50 196.00" xmlns="http://www.w3.org/2000/svg" xmlns:xlink="http://www.w3.org/1999/xlink">
<g id="graph0" class="graph" transform="scale(1 1) rotate(0) translate(4 192)">
<title>ealgorithm_base.h</title>
<polygon fill="white" stroke="none" points="-4,4 -4,-192 383.5,-192 383.5,4 -4,4"/>
<!-- Node12 -->
<g id="node1" class="node"><title>Node12</title>
<polygon fill="#bfbfbf" stroke="black" points="128,-168.5 128,-187.5 224,-187.5 224,-168.5 128,-168.5"/>
<text text-anchor="middle" x="176" y="-175.5" font-family="Helvetica,sans-Serif" font-size="10.00">ealgorithm_base.h</text>
</g>
<!-- Node13 -->
<g id="node2" class="node"><title>Node13</title>
<g id="a_node2"><a xlink:href="bond_8h.html" target="_top" xlink:title="Classes and functions for bonds and their internal rate of return. ">
<polygon fill="white" stroke="black" points="35,-112.5 35,-131.5 81,-131.5 81,-112.5 35,-112.5"/>
<text text-anchor="middle" x="58" y="-119.5" font-family="Helvetica,sans-Serif" font-size="10.00">bond.h</text>
</a>
</g>
</g>
<!-- Node12&#45;&gt;Node13 -->
<g id="edge1" class="edge"><title>Node12&#45;&gt;Node13</title>
<path fill="none" stroke="midnightblue" d="M148.1,-164.232C126.027,-154.131 95.8237,-140.309 76.61,-131.516"/>
<polygon fill="midnightblue" stroke="midnightblue" points="146.753,-167.465 157.303,-168.444 149.666,-161.1 146.753,-167.465"/>
</g>
<!-- Node16 -->
<g id="node5" class="node"><title>Node16</title>
<g id="a_node5"><a xlink:href="differentialevo_8h.html" target="_top" xlink:title="Classes and functions for Differential Evolution. ">
<polygon fill="white" stroke="black" points="90.5,-56.5 90.5,-75.5 173.5,-75.5 173.5,-56.5 90.5,-56.5"/>
<text text-anchor="middle" x="132" y="-63.5" font-family="Helvetica,sans-Serif" font-size="10.00">differentialevo.h</text>
</a>
</g>
</g>
<!-- Node12&#45;&gt;Node16 -->
<g id="edge4" class="edge"><title>Node12&#45;&gt;Node16</title>
<path fill="none" stroke="midnightblue" d="M168.799,-158.998C159.199,-134.997 142.587,-93.4683 135.437,-75.5914"/>
<polygon fill="midnightblue" stroke="midnightblue" points="165.584,-160.384 172.547,-168.368 172.083,-157.784 165.584,-160.384"/>
</g>
<!-- Node17 -->
<g id="node6" class="node"><title>Node17</title>
<g id="a_node6"><a xlink:href="geneticalgo_8h.html" target="_top" xlink:title="Classes and functions for Genetic Algorithms. ">
<polygon fill="white" stroke="black" points="192,-56.5 192,-75.5 266,-75.5 266,-56.5 192,-56.5"/>
<text text-anchor="middle" x="229" y="-63.5" font-family="Helvetica,sans-Serif" font-size="10.00">geneticalgo.h</text>
</a>
</g>
</g>
<!-- Node12&#45;&gt;Node17 -->
<g id="edge6" class="edge"><title>Node12&#45;&gt;Node17</title>
<path fill="none" stroke="midnightblue" d="M179.575,-158.294C182.575,-144.929 187.576,-126.772 195,-112 201.947,-98.1767 213.27,-84.2751 220.921,-75.6575"/>
<polygon fill="midnightblue" stroke="midnightblue" points="176.121,-157.712 177.517,-168.215 182.975,-159.134 176.121,-157.712"/>
</g>
<!-- Node18 -->
<g id="node7" class="node"><title>Node18</title>
<g id="a_node7"><a xlink:href="lbestpso_8h.html" target="_top" xlink:title="Classes and functions for the lbest (Local Best) Particle Swarm Optimisation with a ring topology...">
<polygon fill="white" stroke="black" points="204,-112.5 204,-131.5 266,-131.5 266,-112.5 204,-112.5"/>
<text text-anchor="middle" x="235" y="-119.5" font-family="Helvetica,sans-Serif" font-size="10.00">lbestpso.h</text>
</a>
</g>
</g>
<!-- Node12&#45;&gt;Node18 -->
<g id="edge8" class="edge"><title>Node12&#45;&gt;Node18</title>
<path fill="none" stroke="midnightblue" d="M192.895,-161.537C203.415,-151.909 216.569,-139.869 225.348,-131.834"/>
<polygon fill="midnightblue" stroke="midnightblue" points="190.493,-158.99 185.479,-168.324 195.219,-164.154 190.493,-158.99"/>
</g>
<!-- Node19 -->
<g id="node8" class="node"><title>Node19</title>
<g id="a_node8"><a xlink:href="pso__sub__swarm_8h.html" target="_top" xlink:title="Classes and functions for the initial implementation of Sub&#45;Swarm Particle Swarm Optimisation. ">
<polygon fill="white" stroke="black" points="284.5,-112.5 284.5,-131.5 379.5,-131.5 379.5,-112.5 284.5,-112.5"/>
<text text-anchor="middle" x="332" y="-119.5" font-family="Helvetica,sans-Serif" font-size="10.00">pso_sub_swarm.h</text>
</a>
</g>
</g>
<!-- Node12&#45;&gt;Node19 -->
<g id="edge10" class="edge"><title>Node12&#45;&gt;Node19</title>
<path fill="none" stroke="midnightblue" d="M210.17,-165.172C239.544,-155.004 281.198,-140.585 307.397,-131.516"/>
<polygon fill="midnightblue" stroke="midnightblue" points="209.024,-161.865 200.719,-168.444 211.313,-168.48 209.024,-161.865"/>
</g>
<!-- Node14 -->
<g id="node3" class="node"><title>Node14</title>
<g id="a_node3"><a xlink:href="bondhelper_8h.html" target="_top" xlink:title="Classes and functions for the bond pricing problem. ">
<polygon fill="white" stroke="black" points="0,-56.5 0,-75.5 72,-75.5 72,-56.5 0,-56.5"/>
<text text-anchor="middle" x="36" y="-63.5" font-family="Helvetica,sans-Serif" font-size="10.00">bondhelper.h</text>
</a>
</g>
</g>
<!-- Node13&#45;&gt;Node14 -->
<g id="edge2" class="edge"><title>Node13&#45;&gt;Node14</title>
<path fill="none" stroke="midnightblue" d="M50.5402,-102.69C46.8326,-93.589 42.5243,-83.0141 39.5653,-75.7511"/>
<polygon fill="midnightblue" stroke="midnightblue" points="47.3528,-104.143 54.3671,-112.083 53.8354,-101.502 47.3528,-104.143"/>
</g>
<!-- Node15 -->
<g id="node4" class="node"><title>Node15</title>
<g id="a_node4"><a xlink:href="main_8cpp.html" target="_top" xlink:title="A showcase of the application of the solvers on the Yield Curve Fitting, Internal Rate of Return Esti...">
<polygon fill="white" stroke="black" points="201,-0.5 201,-19.5 257,-19.5 257,-0.5 201,-0.5"/>
<text text-anchor="middle" x="229" y="-7.5" font-family="Helvetica,sans-Serif" font-size="10.00">main.cpp</text>
</a>
</g>
</g>
<!-- Node14&#45;&gt;Node15 -->
<g id="edge3" class="edge"><title>Node14&#45;&gt;Node15</title>
<path fill="none" stroke="midnightblue" d="M76.6036,-53.6394C113.843,-43.22 168.033,-28.0581 200.759,-18.9015"/>
<polygon fill="midnightblue" stroke="midnightblue" points="75.2685,-50.3785 66.5814,-56.4435 77.1547,-57.1196 75.2685,-50.3785"/>
</g>
<!-- Node16&#45;&gt;Node15 -->
<g id="edge5" class="edge"><title>Node16&#45;&gt;Node15</title>
<path fill="none" stroke="midnightblue" d="M156.335,-51.4526C174.243,-41.4835 198.054,-28.2279 213.454,-19.6545"/>
<polygon fill="midnightblue" stroke="midnightblue" points="154.62,-48.4018 147.585,-56.324 158.025,-54.5179 154.62,-48.4018"/>
</g>
<!-- Node17&#45;&gt;Node15 -->
<g id="edge7" class="edge"><title>Node17&#45;&gt;Node15</title>
<path fill="none" stroke="midnightblue" d="M229,-45.8045C229,-36.9102 229,-26.7798 229,-19.7511"/>
<polygon fill="midnightblue" stroke="midnightblue" points="225.5,-46.083 229,-56.083 232.5,-46.083 225.5,-46.083"/>
</g>
<!-- Node18&#45;&gt;Node15 -->
<g id="edge9" class="edge"><title>Node18&#45;&gt;Node15</title>
<path fill="none" stroke="midnightblue" d="M254.653,-105.48C268.218,-92.7532 282.559,-73.9693 275,-56 268.502,-40.5531 253.826,-27.7585 242.787,-19.8113"/>
<polygon fill="midnightblue" stroke="midnightblue" points="252.16,-103.01 246.927,-112.222 256.763,-108.284 252.16,-103.01"/>
</g>
<!-- Node19&#45;&gt;Node15 -->
<g id="edge11" class="edge"><title>Node19&#45;&gt;Node15</title>
<path fill="none" stroke="midnightblue" d="M323.241,-103.312C315.852,-89.4766 304.36,-70.2591 291,-56 276.996,-41.0531 257.404,-27.8047 244.015,-19.6202"/>
<polygon fill="midnightblue" stroke="midnightblue" points="320.174,-105.001 327.865,-112.288 326.397,-101.796 320.174,-105.001"/>
</g>
</g>
</svg>
