<?xml version="1.0" encoding="UTF-8" standalone="no"?>
<!DOCTYPE svg PUBLIC "-//W3C//DTD SVG 1.1//EN"
 "http://www.w3.org/Graphics/SVG/1.1/DTD/svg11.dtd">
<!-- Generated by graphviz version 2.38.0 (20140413.2041)
 -->
<!-- Title: Graphical Class Hierarchy Pages: 1 -->
<svg width="223pt" height="142pt"
 viewBox="0.00 0.00 223.00 142.00" xmlns="http://www.w3.org/2000/svg" xmlns:xlink="http://www.w3.org/1999/xlink">
<g id="graph0" class="graph" transform="scale(1 1) rotate(0) translate(4 138)">
<title>Graphical Class Hierarchy</title>
<polygon fill="white" stroke="none" points="-4,4 -4,-138 219,-138 219,4 -4,4"/>
<!-- Node0 -->
<g id="node1" class="node"><title>Node0</title>
<g id="a_node1"><a xlink:href="structea_1_1_e_a__base.html" target="_top" xlink:title="Evolutionary algorithm stucture base. ">
<polygon fill="white" stroke="black" points="0,-57.5 0,-76.5 96,-76.5 96,-57.5 0,-57.5"/>
<text text-anchor="middle" x="48" y="-64.5" font-family="Helvetica,sans-Serif" font-size="10.00">ea::EA_base&lt; T &gt;</text>
</a>
</g>
</g>
<!-- Node1 -->
<g id="node2" class="node"><title>Node1</title>
<g id="a_node2"><a xlink:href="structea_1_1_d_e.html" target="_top" xlink:title="Differential Evolution Structure, used in the actual algorithm and for type deduction. ">
<polygon fill="white" stroke="black" points="138.5,-114.5 138.5,-133.5 208.5,-133.5 208.5,-114.5 138.5,-114.5"/>
<text text-anchor="middle" x="173.5" y="-121.5" font-family="Helvetica,sans-Serif" font-size="10.00">ea::DE&lt; T &gt;</text>
</a>
</g>
</g>
<!-- Node0&#45;&gt;Node1 -->
<g id="edge1" class="edge"><title>Node0&#45;&gt;Node1</title>
<path fill="none" stroke="midnightblue" d="M78.8076,-80.7574C101.372,-91.1719 131.79,-105.211 151.761,-114.428"/>
<polygon fill="midnightblue" stroke="midnightblue" points="80.2175,-77.5533 69.6711,-76.5405 77.284,-83.909 80.2175,-77.5533"/>
</g>
<!-- Node2 -->
<g id="node3" class="node"><title>Node2</title>
<g id="a_node3"><a xlink:href="structea_1_1_g_a.html" target="_top" xlink:title="Genetic Algorithms Structure, used in the actual algorithm and for type deduction. ">
<polygon fill="white" stroke="black" points="138,-76.5 138,-95.5 209,-95.5 209,-76.5 138,-76.5"/>
<text text-anchor="middle" x="173.5" y="-83.5" font-family="Helvetica,sans-Serif" font-size="10.00">ea::GA&lt; T &gt;</text>
</a>
</g>
</g>
<!-- Node0&#45;&gt;Node2 -->
<g id="edge2" class="edge"><title>Node0&#45;&gt;Node2</title>
<path fill="none" stroke="midnightblue" d="M105.955,-75.7623C116.852,-77.4388 127.95,-79.1462 137.88,-80.6739"/>
<polygon fill="midnightblue" stroke="midnightblue" points="106.458,-72.2986 96.0424,-74.2373 105.394,-79.2172 106.458,-72.2986"/>
</g>
<!-- Node3 -->
<g id="node4" class="node"><title>Node3</title>
<g id="a_node4"><a xlink:href="structea_1_1_p_s_ol.html" target="_top" xlink:title="Local Best Particle Swarm Optimisation Structure, used in the actual algorithm and for type deduction...">
<polygon fill="white" stroke="black" points="133.5,-38.5 133.5,-57.5 213.5,-57.5 213.5,-38.5 133.5,-38.5"/>
<text text-anchor="middle" x="173.5" y="-45.5" font-family="Helvetica,sans-Serif" font-size="10.00">ea::PSOl&lt; T &gt;</text>
</a>
</g>
</g>
<!-- Node0&#45;&gt;Node3 -->
<g id="edge3" class="edge"><title>Node0&#45;&gt;Node3</title>
<path fill="none" stroke="midnightblue" d="M105.955,-58.2377C115.178,-56.8188 124.544,-55.3778 133.225,-54.0423"/>
<polygon fill="midnightblue" stroke="midnightblue" points="105.394,-54.7828 96.0424,-59.7627 106.458,-61.7014 105.394,-54.7828"/>
</g>
<!-- Node4 -->
<g id="node5" class="node"><title>Node4</title>
<g id="a_node5"><a xlink:href="structea_1_1_p_s_os.html" target="_top" xlink:title="Particle Swarm Optimisation Structure, used in the actual algorithm and for type deduction. ">
<polygon fill="white" stroke="black" points="132,-0.5 132,-19.5 215,-19.5 215,-0.5 132,-0.5"/>
<text text-anchor="middle" x="173.5" y="-7.5" font-family="Helvetica,sans-Serif" font-size="10.00">ea::PSOs&lt; T &gt;</text>
</a>
</g>
</g>
<!-- Node0&#45;&gt;Node4 -->
<g id="edge4" class="edge"><title>Node0&#45;&gt;Node4</title>
<path fill="none" stroke="midnightblue" d="M78.8076,-53.2426C101.372,-42.8281 131.79,-28.7892 151.761,-19.5716"/>
<polygon fill="midnightblue" stroke="midnightblue" points="77.284,-50.091 69.6711,-57.4595 80.2175,-56.4467 77.284,-50.091"/>
</g>
</g>
</svg>
