<?xml version="1.0" encoding="UTF-8" standalone="no"?>
<!DOCTYPE svg PUBLIC "-//W3C//DTD SVG 1.1//EN"
 "http://www.w3.org/Graphics/SVG/1.1/DTD/svg11.dtd">
<!-- Generated by graphviz version 2.38.0 (20140413.2041)
 -->
<!-- Title: Graphical Class Hierarchy Pages: 1 -->
<svg width="262pt" height="50pt"
 viewBox="0.00 0.00 262.00 50.00" xmlns="http://www.w3.org/2000/svg" xmlns:xlink="http://www.w3.org/1999/xlink">
<g id="graph0" class="graph" transform="scale(1 1) rotate(0) translate(4 46)">
<title>Graphical Class Hierarchy</title>
<polygon fill="white" stroke="none" points="-4,4 -4,-46 258,-46 258,4 -4,4"/>
<!-- Node0 -->
<g id="node1" class="node"><title>Node0</title>
<g id="a_node1"><a xlink:href="classea_1_1_solver__base.html" target="_top" xlink:title="ea::Solver_base\&lt; Solver\l\&lt; GA, T, F, C \&gt;, GA, T,\l F, C \&gt;">
<polygon fill="white" stroke="black" points="0,-0.5 0,-41.5 121,-41.5 121,-0.5 0,-0.5"/>
<text text-anchor="start" x="8" y="-29.5" font-family="Helvetica,sans-Serif" font-size="10.00">ea::Solver_base&lt; Solver</text>
<text text-anchor="start" x="8" y="-18.5" font-family="Helvetica,sans-Serif" font-size="10.00">&lt; GA, T, F, C &gt;, GA, T,</text>
<text text-anchor="middle" x="60.5" y="-7.5" font-family="Helvetica,sans-Serif" font-size="10.00"> F, C &gt;</text>
</a>
</g>
</g>
<!-- Node1 -->
<g id="node2" class="node"><title>Node1</title>
<g id="a_node2"><a xlink:href="classea_1_1_solver_3_01_g_a_00_01_t_00_01_f_00_01_c_01_4.html" target="_top" xlink:title="Genetic Algorithms (GA) Class. ">
<polygon fill="white" stroke="black" points="157,-6 157,-36 254,-36 254,-6 157,-6"/>
<text text-anchor="start" x="165" y="-24" font-family="Helvetica,sans-Serif" font-size="10.00">ea::Solver&lt; GA, T,</text>
<text text-anchor="middle" x="205.5" y="-13" font-family="Helvetica,sans-Serif" font-size="10.00"> F, C &gt;</text>
</a>
</g>
</g>
<!-- Node0&#45;&gt;Node1 -->
<g id="edge1" class="edge"><title>Node0&#45;&gt;Node1</title>
<path fill="none" stroke="midnightblue" d="M131.335,-21C139.907,-21 148.511,-21 156.653,-21"/>
<polygon fill="midnightblue" stroke="midnightblue" points="131.316,-17.5001 121.316,-21 131.316,-24.5001 131.316,-17.5001"/>
</g>
</g>
</svg>
