<?xml version="1.0" encoding="UTF-8" standalone="no"?>
<!DOCTYPE svg PUBLIC "-//W3C//DTD SVG 1.1//EN"
 "http://www.w3.org/Graphics/SVG/1.1/DTD/svg11.dtd">
<!-- Generated by graphviz version 2.38.0 (20140413.2041)
 -->
<!-- Title: irr.h Pages: 1 -->
<svg width="80pt" height="196pt"
 viewBox="0.00 0.00 80.00 196.00" xmlns="http://www.w3.org/2000/svg" xmlns:xlink="http://www.w3.org/1999/xlink">
<g id="graph0" class="graph" transform="scale(1 1) rotate(0) translate(4 192)">
<title>irr.h</title>
<polygon fill="white" stroke="none" points="-4,4 -4,-192 76,-192 76,4 -4,4"/>
<!-- Node6 -->
<g id="node1" class="node"><title>Node6</title>
<polygon fill="#bfbfbf" stroke="black" points="19.5,-168.5 19.5,-187.5 52.5,-187.5 52.5,-168.5 19.5,-168.5"/>
<text text-anchor="middle" x="36" y="-175.5" font-family="Helvetica,sans-Serif" font-size="10.00">irr.h</text>
</g>
<!-- Node7 -->
<g id="node2" class="node"><title>Node7</title>
<g id="a_node2"><a xlink:href="bond_8h.html" target="_top" xlink:title="Classes and functions for bonds and their internal rate of return. ">
<polygon fill="white" stroke="black" points="13,-112.5 13,-131.5 59,-131.5 59,-112.5 13,-112.5"/>
<text text-anchor="middle" x="36" y="-119.5" font-family="Helvetica,sans-Serif" font-size="10.00">bond.h</text>
</a>
</g>
</g>
<!-- Node6&#45;&gt;Node7 -->
<g id="edge1" class="edge"><title>Node6&#45;&gt;Node7</title>
<path fill="none" stroke="midnightblue" d="M36,-157.805C36,-148.91 36,-138.78 36,-131.751"/>
<polygon fill="midnightblue" stroke="midnightblue" points="32.5001,-158.083 36,-168.083 39.5001,-158.083 32.5001,-158.083"/>
</g>
<!-- Node8 -->
<g id="node3" class="node"><title>Node8</title>
<g id="a_node3"><a xlink:href="bondhelper_8h.html" target="_top" xlink:title="Classes and functions for the bond pricing problem. ">
<polygon fill="white" stroke="black" points="0,-56.5 0,-75.5 72,-75.5 72,-56.5 0,-56.5"/>
<text text-anchor="middle" x="36" y="-63.5" font-family="Helvetica,sans-Serif" font-size="10.00">bondhelper.h</text>
</a>
</g>
</g>
<!-- Node7&#45;&gt;Node8 -->
<g id="edge2" class="edge"><title>Node7&#45;&gt;Node8</title>
<path fill="none" stroke="midnightblue" d="M36,-101.805C36,-92.9102 36,-82.7798 36,-75.7511"/>
<polygon fill="midnightblue" stroke="midnightblue" points="32.5001,-102.083 36,-112.083 39.5001,-102.083 32.5001,-102.083"/>
</g>
<!-- Node9 -->
<g id="node4" class="node"><title>Node9</title>
<g id="a_node4"><a xlink:href="main_8cpp.html" target="_top" xlink:title="A showcase of the application of the solvers on the Yield Curve Fitting, Internal Rate of Return Esti...">
<polygon fill="white" stroke="black" points="8,-0.5 8,-19.5 64,-19.5 64,-0.5 8,-0.5"/>
<text text-anchor="middle" x="36" y="-7.5" font-family="Helvetica,sans-Serif" font-size="10.00">main.cpp</text>
</a>
</g>
</g>
<!-- Node8&#45;&gt;Node9 -->
<g id="edge3" class="edge"><title>Node8&#45;&gt;Node9</title>
<path fill="none" stroke="midnightblue" d="M36,-45.8045C36,-36.9102 36,-26.7798 36,-19.7511"/>
<polygon fill="midnightblue" stroke="midnightblue" points="32.5001,-46.083 36,-56.083 39.5001,-46.083 32.5001,-46.083"/>
</g>
</g>
</svg>
