<?xml version="1.0" encoding="UTF-8" standalone="no"?>
<!DOCTYPE svg PUBLIC "-//W3C//DTD SVG 1.1//EN"
 "http://www.w3.org/Graphics/SVG/1.1/DTD/svg11.dtd">
<!-- Generated by graphviz version 2.38.0 (20140413.2041)
 -->
<!-- Title: irr.h Pages: 1 -->
<svg width="201pt" height="140pt"
 viewBox="0.00 0.00 200.50 140.00" xmlns="http://www.w3.org/2000/svg" xmlns:xlink="http://www.w3.org/1999/xlink">
<g id="graph0" class="graph" transform="scale(1 1) rotate(0) translate(4 136)">
<title>irr.h</title>
<polygon fill="white" stroke="none" points="-4,4 -4,-136 196.5,-136 196.5,4 -4,4"/>
<!-- Node0 -->
<g id="node1" class="node"><title>Node0</title>
<polygon fill="#bfbfbf" stroke="black" points="28.5,-112.5 28.5,-131.5 61.5,-131.5 61.5,-112.5 28.5,-112.5"/>
<text text-anchor="middle" x="45" y="-119.5" font-family="Helvetica,sans-Serif" font-size="10.00">irr.h</text>
</g>
<!-- Node1 -->
<g id="node2" class="node"><title>Node1</title>
<polygon fill="white" stroke="#bfbfbf" points="0,-0.5 0,-19.5 42,-19.5 42,-0.5 0,-0.5"/>
<text text-anchor="middle" x="21" y="-7.5" font-family="Helvetica,sans-Serif" font-size="10.00">vector</text>
</g>
<!-- Node0&#45;&gt;Node1 -->
<g id="edge1" class="edge"><title>Node0&#45;&gt;Node1</title>
<path fill="none" stroke="midnightblue" d="M36.5173,-112.234C28.9461,-103.75 18.3964,-90.1314 14,-76 9.25861,-60.7596 11.8385,-42.6492 15.127,-29.4206"/>
<polygon fill="midnightblue" stroke="midnightblue" points="18.5432,-30.2029 17.9108,-19.6269 11.8099,-28.2889 18.5432,-30.2029"/>
</g>
<!-- Node2 -->
<g id="node3" class="node"><title>Node2</title>
<polygon fill="white" stroke="#bfbfbf" points="23,-56.5 23,-75.5 67,-75.5 67,-56.5 23,-56.5"/>
<text text-anchor="middle" x="45" y="-63.5" font-family="Helvetica,sans-Serif" font-size="10.00">cmath</text>
</g>
<!-- Node0&#45;&gt;Node2 -->
<g id="edge2" class="edge"><title>Node0&#45;&gt;Node2</title>
<path fill="none" stroke="midnightblue" d="M45,-112.083C45,-105.006 45,-94.8611 45,-85.9865"/>
<polygon fill="midnightblue" stroke="midnightblue" points="48.5001,-85.751 45,-75.7511 41.5001,-85.7511 48.5001,-85.751"/>
</g>
<!-- Node3 -->
<g id="node4" class="node"><title>Node3</title>
<g id="a_node4"><a xlink:href="utilities_8h.html" target="_top" xlink:title="Enumerations and functions used from the rest of the project. ">
<polygon fill="white" stroke="black" points="85,-56.5 85,-75.5 141,-75.5 141,-56.5 85,-56.5"/>
<text text-anchor="middle" x="113" y="-63.5" font-family="Helvetica,sans-Serif" font-size="10.00">utilities.h</text>
</a>
</g>
</g>
<!-- Node0&#45;&gt;Node3 -->
<g id="edge3" class="edge"><title>Node0&#45;&gt;Node3</title>
<path fill="none" stroke="midnightblue" d="M55.9254,-112.324C66.1746,-104.185 81.7206,-91.8395 94.001,-82.0874"/>
<polygon fill="midnightblue" stroke="midnightblue" points="96.2213,-84.7937 101.876,-75.8339 91.8681,-79.3119 96.2213,-84.7937"/>
</g>
<!-- Node3&#45;&gt;Node1 -->
<g id="edge5" class="edge"><title>Node3&#45;&gt;Node1</title>
<path fill="none" stroke="midnightblue" d="M98.2186,-56.324C83.7329,-47.8215 61.4269,-34.7288 44.5068,-24.7975"/>
<polygon fill="midnightblue" stroke="midnightblue" points="46.1406,-21.6981 35.7447,-19.6545 42.5972,-27.735 46.1406,-21.6981"/>
</g>
<!-- Node4 -->
<g id="node5" class="node"><title>Node4</title>
<polygon fill="white" stroke="#bfbfbf" points="73,-0.5 73,-19.5 127,-19.5 127,-0.5 73,-0.5"/>
<text text-anchor="middle" x="100" y="-7.5" font-family="Helvetica,sans-Serif" font-size="10.00">iostream</text>
</g>
<!-- Node3&#45;&gt;Node4 -->
<g id="edge4" class="edge"><title>Node3&#45;&gt;Node4</title>
<path fill="none" stroke="midnightblue" d="M110.853,-56.083C109.131,-48.9272 106.653,-38.6353 104.5,-29.6911"/>
<polygon fill="midnightblue" stroke="midnightblue" points="107.85,-28.6541 102.107,-19.7511 101.045,-30.2925 107.85,-28.6541"/>
</g>
<!-- Node5 -->
<g id="node6" class="node"><title>Node5</title>
<polygon fill="white" stroke="#bfbfbf" points="145.5,-0.5 145.5,-19.5 192.5,-19.5 192.5,-0.5 145.5,-0.5"/>
<text text-anchor="middle" x="169" y="-7.5" font-family="Helvetica,sans-Serif" font-size="10.00">iterator</text>
</g>
<!-- Node3&#45;&gt;Node5 -->
<g id="edge6" class="edge"><title>Node3&#45;&gt;Node5</title>
<path fill="none" stroke="midnightblue" d="M121.997,-56.324C130.194,-48.4196 142.506,-36.5482 152.472,-26.9377"/>
<polygon fill="midnightblue" stroke="midnightblue" points="155.07,-29.2947 159.839,-19.8339 150.211,-24.2558 155.07,-29.2947"/>
</g>
</g>
</svg>
