<?xml version="1.0" encoding="UTF-8" standalone="no"?>
<!DOCTYPE svg PUBLIC "-//W3C//DTD SVG 1.1//EN"
 "http://www.w3.org/Graphics/SVG/1.1/DTD/svg11.dtd">
<!-- Generated by graphviz version 2.38.0 (20140413.2041)
 -->
<!-- Title: lbestpso.h Pages: 1 -->
<svg width="626pt" height="207pt"
 viewBox="0.00 0.00 626.00 207.00" xmlns="http://www.w3.org/2000/svg" xmlns:xlink="http://www.w3.org/1999/xlink">
<g id="graph0" class="graph" transform="scale(1 1) rotate(0) translate(4 203)">
<title>lbestpso.h</title>
<polygon fill="white" stroke="none" points="-4,4 -4,-203 622,-203 622,4 -4,4"/>
<!-- Node0 -->
<g id="node1" class="node"><title>Node0</title>
<polygon fill="#bfbfbf" stroke="black" points="209,-179.5 209,-198.5 271,-198.5 271,-179.5 209,-179.5"/>
<text text-anchor="middle" x="240" y="-186.5" font-family="Helvetica,sans-Serif" font-size="10.00">lbestpso.h</text>
</g>
<!-- Node1 -->
<g id="node2" class="node"><title>Node1</title>
<polygon fill="white" stroke="#bfbfbf" points="22.5,-118 22.5,-137 105.5,-137 105.5,-118 22.5,-118"/>
<text text-anchor="middle" x="64" y="-125" font-family="Helvetica,sans-Serif" font-size="10.00">unordered_map</text>
</g>
<!-- Node0&#45;&gt;Node1 -->
<g id="edge1" class="edge"><title>Node0&#45;&gt;Node1</title>
<path fill="none" stroke="midnightblue" d="M214.783,-179.475C184.332,-169.18 132.951,-151.81 98.757,-140.25"/>
<polygon fill="midnightblue" stroke="midnightblue" points="99.764,-136.896 89.1697,-137.009 97.5221,-143.527 99.764,-136.896"/>
</g>
<!-- Node2 -->
<g id="node3" class="node"><title>Node2</title>
<polygon fill="white" stroke="#bfbfbf" points="123.5,-112.5 123.5,-142.5 234.5,-142.5 234.5,-112.5 123.5,-112.5"/>
<text text-anchor="start" x="131.5" y="-130.5" font-family="Helvetica,sans-Serif" font-size="10.00">boost/math/constants</text>
<text text-anchor="middle" x="179" y="-119.5" font-family="Helvetica,sans-Serif" font-size="10.00">/constants.hpp</text>
</g>
<!-- Node0&#45;&gt;Node2 -->
<g id="edge2" class="edge"><title>Node0&#45;&gt;Node2</title>
<path fill="none" stroke="midnightblue" d="M231.26,-179.475C223.307,-171.718 211.236,-159.943 200.698,-149.665"/>
<polygon fill="midnightblue" stroke="midnightblue" points="202.979,-147 193.376,-142.523 198.091,-152.011 202.979,-147"/>
</g>
<!-- Node3 -->
<g id="node4" class="node"><title>Node3</title>
<g id="a_node4"><a xlink:href="ealgorithm__base_8h.html" target="_top" xlink:title="Classes and functions for the base of the solvers. ">
<polygon fill="white" stroke="black" points="253,-118 253,-137 349,-137 349,-118 253,-118"/>
<text text-anchor="middle" x="301" y="-125" font-family="Helvetica,sans-Serif" font-size="10.00">ealgorithm_base.h</text>
</a>
</g>
</g>
<!-- Node0&#45;&gt;Node3 -->
<g id="edge3" class="edge"><title>Node0&#45;&gt;Node3</title>
<path fill="none" stroke="midnightblue" d="M248.74,-179.475C258.162,-170.285 273.364,-155.456 284.949,-144.156"/>
<polygon fill="midnightblue" stroke="midnightblue" points="287.562,-146.497 292.276,-137.009 282.674,-141.486 287.562,-146.497"/>
</g>
<!-- Node15 -->
<g id="node16" class="node"><title>Node15</title>
<polygon fill="white" stroke="#bfbfbf" points="367,-118 367,-137 405,-137 405,-118 367,-118"/>
<text text-anchor="middle" x="386" y="-125" font-family="Helvetica,sans-Serif" font-size="10.00">array</text>
</g>
<!-- Node0&#45;&gt;Node15 -->
<g id="edge17" class="edge"><title>Node0&#45;&gt;Node15</title>
<path fill="none" stroke="midnightblue" d="M264.738,-179.49C288.846,-170.982 326.384,-157.16 358,-143 358.999,-142.552 360.013,-142.086 361.034,-141.607"/>
<polygon fill="midnightblue" stroke="midnightblue" points="362.746,-144.665 370.162,-137.099 359.646,-138.389 362.746,-144.665"/>
</g>
<!-- Node4 -->
<g id="node5" class="node"><title>Node4</title>
<polygon fill="white" stroke="#bfbfbf" points="0,-0.5 0,-19.5 54,-19.5 54,-0.5 0,-0.5"/>
<text text-anchor="middle" x="27" y="-7.5" font-family="Helvetica,sans-Serif" font-size="10.00">iostream</text>
</g>
<!-- Node3&#45;&gt;Node4 -->
<g id="edge4" class="edge"><title>Node3&#45;&gt;Node4</title>
<path fill="none" stroke="midnightblue" d="M268.25,-117.998C260.026,-115.95 251.206,-113.827 243,-112 161.664,-93.8889 125.171,-126.646 59,-76 44.1954,-64.669 35.807,-44.6697 31.3678,-29.838"/>
<polygon fill="midnightblue" stroke="midnightblue" points="34.6371,-28.5091 28.7021,-19.7326 27.8686,-30.2946 34.6371,-28.5091"/>
</g>
<!-- Node5 -->
<g id="node6" class="node"><title>Node5</title>
<polygon fill="white" stroke="#bfbfbf" points="138,-0.5 138,-19.5 180,-19.5 180,-0.5 138,-0.5"/>
<text text-anchor="middle" x="159" y="-7.5" font-family="Helvetica,sans-Serif" font-size="10.00">vector</text>
</g>
<!-- Node3&#45;&gt;Node5 -->
<g id="edge5" class="edge"><title>Node3&#45;&gt;Node5</title>
<path fill="none" stroke="midnightblue" d="M269.155,-117.992C234.978,-108.219 183.853,-91.5277 171,-76 160.377,-63.1654 157.943,-43.9818 157.827,-29.7789"/>
<polygon fill="midnightblue" stroke="midnightblue" points="161.329,-29.7696 158.119,-19.6727 154.332,-29.5676 161.329,-29.7696"/>
</g>
<!-- Node6 -->
<g id="node7" class="node"><title>Node6</title>
<polygon fill="white" stroke="#bfbfbf" points="180,-56.5 180,-75.5 232,-75.5 232,-56.5 180,-56.5"/>
<text text-anchor="middle" x="206" y="-63.5" font-family="Helvetica,sans-Serif" font-size="10.00">assert.h</text>
</g>
<!-- Node3&#45;&gt;Node6 -->
<g id="edge6" class="edge"><title>Node3&#45;&gt;Node6</title>
<path fill="none" stroke="midnightblue" d="M287.389,-117.975C271.939,-108.299 246.51,-92.3721 228.184,-80.8941"/>
<polygon fill="midnightblue" stroke="midnightblue" points="229.919,-77.8509 219.586,-75.5091 226.203,-83.7834 229.919,-77.8509"/>
</g>
<!-- Node7 -->
<g id="node8" class="node"><title>Node7</title>
<polygon fill="white" stroke="#bfbfbf" points="250,-56.5 250,-75.5 290,-75.5 290,-56.5 250,-56.5"/>
<text text-anchor="middle" x="270" y="-63.5" font-family="Helvetica,sans-Serif" font-size="10.00">utility</text>
</g>
<!-- Node3&#45;&gt;Node7 -->
<g id="edge7" class="edge"><title>Node3&#45;&gt;Node7</title>
<path fill="none" stroke="midnightblue" d="M296.558,-117.975C292.047,-109.315 284.926,-95.6486 279.193,-84.6453"/>
<polygon fill="midnightblue" stroke="midnightblue" points="282.158,-82.7604 274.433,-75.5091 275.95,-85.9948 282.158,-82.7604"/>
</g>
<!-- Node8 -->
<g id="node9" class="node"><title>Node8</title>
<polygon fill="white" stroke="#bfbfbf" points="308,-56.5 308,-75.5 354,-75.5 354,-56.5 308,-56.5"/>
<text text-anchor="middle" x="331" y="-63.5" font-family="Helvetica,sans-Serif" font-size="10.00">chrono</text>
</g>
<!-- Node3&#45;&gt;Node8 -->
<g id="edge8" class="edge"><title>Node3&#45;&gt;Node8</title>
<path fill="none" stroke="midnightblue" d="M305.298,-117.975C309.665,-109.315 316.555,-95.6486 322.103,-84.6453"/>
<polygon fill="midnightblue" stroke="midnightblue" points="325.333,-86.0141 326.71,-75.5091 319.082,-82.8625 325.333,-86.0141"/>
</g>
<!-- Node9 -->
<g id="node10" class="node"><title>Node9</title>
<polygon fill="white" stroke="#bfbfbf" points="372.5,-56.5 372.5,-75.5 413.5,-75.5 413.5,-56.5 372.5,-56.5"/>
<text text-anchor="middle" x="393" y="-63.5" font-family="Helvetica,sans-Serif" font-size="10.00">ctime</text>
</g>
<!-- Node3&#45;&gt;Node9 -->
<g id="edge9" class="edge"><title>Node3&#45;&gt;Node9</title>
<path fill="none" stroke="midnightblue" d="M314.181,-117.975C329.074,-108.343 353.544,-92.5175 371.273,-81.0517"/>
<polygon fill="midnightblue" stroke="midnightblue" points="373.347,-83.8787 379.843,-75.5091 369.545,-78.0008 373.347,-83.8787"/>
</g>
<!-- Node10 -->
<g id="node11" class="node"><title>Node10</title>
<polygon fill="white" stroke="#bfbfbf" points="431.5,-56.5 431.5,-75.5 480.5,-75.5 480.5,-56.5 431.5,-56.5"/>
<text text-anchor="middle" x="456" y="-63.5" font-family="Helvetica,sans-Serif" font-size="10.00">random</text>
</g>
<!-- Node3&#45;&gt;Node10 -->
<g id="edge10" class="edge"><title>Node3&#45;&gt;Node10</title>
<path fill="none" stroke="midnightblue" d="M323.208,-117.975C349.681,-107.813 394.114,-90.7564 424.22,-79.1996"/>
<polygon fill="midnightblue" stroke="midnightblue" points="425.752,-82.3604 433.833,-75.5091 423.243,-75.8254 425.752,-82.3604"/>
</g>
<!-- Node11 -->
<g id="node12" class="node"><title>Node11</title>
<polygon fill="white" stroke="#bfbfbf" points="498.5,-56.5 498.5,-75.5 547.5,-75.5 547.5,-56.5 498.5,-56.5"/>
<text text-anchor="middle" x="523" y="-63.5" font-family="Helvetica,sans-Serif" font-size="10.00">fstream</text>
</g>
<!-- Node3&#45;&gt;Node11 -->
<g id="edge11" class="edge"><title>Node3&#45;&gt;Node11</title>
<path fill="none" stroke="midnightblue" d="M333.117,-117.972C368.822,-108.48 428.463,-92.5898 488.808,-76.3129"/>
<polygon fill="midnightblue" stroke="midnightblue" points="489.753,-79.6831 498.496,-73.6981 487.929,-72.925 489.753,-79.6831"/>
</g>
<!-- Node12 -->
<g id="node13" class="node"><title>Node12</title>
<polygon fill="white" stroke="#bfbfbf" points="566,-56.5 566,-75.5 618,-75.5 618,-56.5 566,-56.5"/>
<text text-anchor="middle" x="592" y="-63.5" font-family="Helvetica,sans-Serif" font-size="10.00">sstream</text>
</g>
<!-- Node3&#45;&gt;Node12 -->
<g id="edge12" class="edge"><title>Node3&#45;&gt;Node12</title>
<path fill="none" stroke="midnightblue" d="M332.862,-117.975C341.029,-115.905 349.818,-113.778 358,-112 442.741,-93.5802 467.473,-95.0696 555.765,-76.1403"/>
<polygon fill="midnightblue" stroke="midnightblue" points="556.646,-79.5306 565.676,-73.9878 555.161,-72.69 556.646,-79.5306"/>
</g>
<!-- Node13 -->
<g id="node14" class="node"><title>Node13</title>
<g id="a_node14"><a xlink:href="utilities_8h.html" target="_top" xlink:title="Enumerations and functions used from the rest of the project. ">
<polygon fill="white" stroke="black" points="68,-56.5 68,-75.5 124,-75.5 124,-56.5 68,-56.5"/>
<text text-anchor="middle" x="96" y="-63.5" font-family="Helvetica,sans-Serif" font-size="10.00">utilities.h</text>
</a>
</g>
</g>
<!-- Node3&#45;&gt;Node13 -->
<g id="edge13" class="edge"><title>Node3&#45;&gt;Node13</title>
<path fill="none" stroke="midnightblue" d="M271.628,-117.975C235.294,-107.429 173.38,-89.4589 133.607,-77.9151"/>
<polygon fill="midnightblue" stroke="midnightblue" points="134.58,-74.5533 124.001,-75.1271 132.629,-81.2759 134.58,-74.5533"/>
</g>
<!-- Node13&#45;&gt;Node4 -->
<g id="edge14" class="edge"><title>Node13&#45;&gt;Node4</title>
<path fill="none" stroke="midnightblue" d="M84.914,-56.324C74.514,-48.1849 58.7394,-35.8395 46.2784,-26.0874"/>
<polygon fill="midnightblue" stroke="midnightblue" points="48.3199,-23.2407 38.2878,-19.8339 44.0057,-28.7533 48.3199,-23.2407"/>
</g>
<!-- Node13&#45;&gt;Node5 -->
<g id="edge15" class="edge"><title>Node13&#45;&gt;Node5</title>
<path fill="none" stroke="midnightblue" d="M106.122,-56.324C115.526,-48.2631 129.744,-36.0765 141.069,-26.3695"/>
<polygon fill="midnightblue" stroke="midnightblue" points="143.379,-28.9993 148.694,-19.8339 138.823,-23.6844 143.379,-28.9993"/>
</g>
<!-- Node14 -->
<g id="node15" class="node"><title>Node14</title>
<polygon fill="white" stroke="#bfbfbf" points="72.5,-0.5 72.5,-19.5 119.5,-19.5 119.5,-0.5 72.5,-0.5"/>
<text text-anchor="middle" x="96" y="-7.5" font-family="Helvetica,sans-Serif" font-size="10.00">iterator</text>
</g>
<!-- Node13&#45;&gt;Node14 -->
<g id="edge16" class="edge"><title>Node13&#45;&gt;Node14</title>
<path fill="none" stroke="midnightblue" d="M96,-56.083C96,-49.0059 96,-38.8611 96,-29.9865"/>
<polygon fill="midnightblue" stroke="midnightblue" points="99.5001,-29.751 96,-19.7511 92.5001,-29.7511 99.5001,-29.751"/>
</g>
</g>
</svg>
