<?xml version="1.0" encoding="UTF-8" standalone="no"?>
<!DOCTYPE svg PUBLIC "-//W3C//DTD SVG 1.1//EN"
 "http://www.w3.org/Graphics/SVG/1.1/DTD/svg11.dtd">
<!-- Generated by graphviz version 2.38.0 (20140413.2041)
 -->
<!-- Title: main.cpp Pages: 1 -->
<svg width="991pt" height="319pt"
 viewBox="0.00 0.00 990.66 319.00" xmlns="http://www.w3.org/2000/svg" xmlns:xlink="http://www.w3.org/1999/xlink">
<g id="graph0" class="graph" transform="scale(1 1) rotate(0) translate(4 315)">
<title>main.cpp</title>
<polygon fill="white" stroke="none" points="-4,4 -4,-315 986.657,-315 986.657,4 -4,4"/>
<!-- Node0 -->
<g id="node1" class="node"><title>Node0</title>
<polygon fill="#bfbfbf" stroke="black" points="507.157,-291.5 507.157,-310.5 563.157,-310.5 563.157,-291.5 507.157,-291.5"/>
<text text-anchor="middle" x="535.157" y="-298.5" font-family="Helvetica,sans-Serif" font-size="10.00">main.cpp</text>
</g>
<!-- Node1 -->
<g id="node2" class="node"><title>Node1</title>
<g id="a_node2"><a xlink:href="bondhelper_8h.html" target="_top" xlink:title="Classes and functions for the bond pricing problem. ">
<polygon fill="white" stroke="black" points="149.157,-235.5 149.157,-254.5 247.157,-254.5 247.157,-235.5 149.157,-235.5"/>
<text text-anchor="middle" x="198.157" y="-242.5" font-family="Helvetica,sans-Serif" font-size="10.00">../src/bondhelper.h</text>
</a>
</g>
</g>
<!-- Node0&#45;&gt;Node1 -->
<g id="edge1" class="edge"><title>Node0&#45;&gt;Node1</title>
<path fill="none" stroke="midnightblue" d="M507.004,-295.489C452.311,-286.725 330.652,-267.231 257.407,-255.494"/>
<polygon fill="midnightblue" stroke="midnightblue" points="257.833,-252.018 247.405,-253.891 256.725,-258.93 257.833,-252.018"/>
</g>
<!-- Node24 -->
<g id="node25" class="node"><title>Node24</title>
<g id="a_node25"><a xlink:href="geneticalgo_8h.html" target="_top" xlink:title="Classes and functions for Genetic Algorithms. ">
<polygon fill="white" stroke="black" points="485.157,-235.5 485.157,-254.5 585.157,-254.5 585.157,-235.5 485.157,-235.5"/>
<text text-anchor="middle" x="535.157" y="-242.5" font-family="Helvetica,sans-Serif" font-size="10.00">../src/geneticalgo.h</text>
</a>
</g>
</g>
<!-- Node0&#45;&gt;Node24 -->
<g id="edge38" class="edge"><title>Node0&#45;&gt;Node24</title>
<path fill="none" stroke="midnightblue" d="M535.157,-291.083C535.157,-284.006 535.157,-273.861 535.157,-264.986"/>
<polygon fill="midnightblue" stroke="midnightblue" points="538.657,-264.751 535.157,-254.751 531.657,-264.751 538.657,-264.751"/>
</g>
<!-- Node26 -->
<g id="node27" class="node"><title>Node26</title>
<g id="a_node27"><a xlink:href="pso__sub__swarm_8h.html" target="_top" xlink:title="Classes and functions for the initial implementation of Sub&#45;Swarm Particle Swarm Optimisation. ">
<polygon fill="white" stroke="black" points="603.657,-235.5 603.657,-254.5 724.657,-254.5 724.657,-235.5 603.657,-235.5"/>
<text text-anchor="middle" x="664.157" y="-242.5" font-family="Helvetica,sans-Serif" font-size="10.00">../src/pso_sub_swarm.h</text>
</a>
</g>
</g>
<!-- Node0&#45;&gt;Node26 -->
<g id="edge41" class="edge"><title>Node0&#45;&gt;Node26</title>
<path fill="none" stroke="midnightblue" d="M555.597,-291.444C576.827,-282.557 610.256,-268.563 634.412,-258.451"/>
<polygon fill="midnightblue" stroke="midnightblue" points="635.939,-261.606 643.812,-254.516 633.236,-255.149 635.939,-261.606"/>
</g>
<!-- Node28 -->
<g id="node29" class="node"><title>Node28</title>
<g id="a_node29"><a xlink:href="differentialevo_8h.html" target="_top" xlink:title="Classes and functions for Differential Evolution. ">
<polygon fill="white" stroke="black" points="359.157,-235.5 359.157,-254.5 467.157,-254.5 467.157,-235.5 359.157,-235.5"/>
<text text-anchor="middle" x="413.157" y="-242.5" font-family="Helvetica,sans-Serif" font-size="10.00">../src/differentialevo.h</text>
</a>
</g>
</g>
<!-- Node0&#45;&gt;Node28 -->
<g id="edge44" class="edge"><title>Node0&#45;&gt;Node28</title>
<path fill="none" stroke="midnightblue" d="M515.826,-291.444C495.837,-282.596 464.414,-268.687 441.593,-258.586"/>
<polygon fill="midnightblue" stroke="midnightblue" points="442.959,-255.363 432.398,-254.516 440.125,-261.764 442.959,-255.363"/>
</g>
<!-- Node29 -->
<g id="node30" class="node"><title>Node29</title>
<g id="a_node30"><a xlink:href="lbestpso_8h.html" target="_top" xlink:title="Classes and functions for the lbest (Local Best) Particle Swarm Optimisation with a ring topology...">
<polygon fill="white" stroke="black" points="743.657,-235.5 743.657,-254.5 830.657,-254.5 830.657,-235.5 743.657,-235.5"/>
<text text-anchor="middle" x="787.157" y="-242.5" font-family="Helvetica,sans-Serif" font-size="10.00">../src/lbestpso.h</text>
</a>
</g>
</g>
<!-- Node0&#45;&gt;Node29 -->
<g id="edge46" class="edge"><title>Node0&#45;&gt;Node29</title>
<path fill="none" stroke="midnightblue" d="M563.575,-293.91C605.69,-284.886 685.283,-267.83 737.256,-256.693"/>
<polygon fill="midnightblue" stroke="midnightblue" points="738.218,-260.066 747.263,-254.549 736.751,-253.222 738.218,-260.066"/>
</g>
<!-- Node2 -->
<g id="node3" class="node"><title>Node2</title>
<polygon fill="white" stroke="#bfbfbf" points="130.157,-0.5 130.157,-19.5 172.157,-19.5 172.157,-0.5 130.157,-0.5"/>
<text text-anchor="middle" x="151.157" y="-7.5" font-family="Helvetica,sans-Serif" font-size="10.00">vector</text>
</g>
<!-- Node1&#45;&gt;Node2 -->
<g id="edge2" class="edge"><title>Node1&#45;&gt;Node2</title>
<path fill="none" stroke="midnightblue" d="M176.148,-235.446C129.552,-215.787 23.5362,-162.328 3.15696,-76 1.11471,-67.3489 -2.13583,-63.1413 3.15696,-56 29.967,-19.8264 85.1386,-11.7329 120.024,-10.4547"/>
<polygon fill="midnightblue" stroke="midnightblue" points="120.218,-13.9516 130.146,-10.2533 120.078,-6.95301 120.218,-13.9516"/>
</g>
<!-- Node3 -->
<g id="node4" class="node"><title>Node3</title>
<polygon fill="white" stroke="#bfbfbf" points="179.157,-174 179.157,-193 217.157,-193 217.157,-174 179.157,-174"/>
<text text-anchor="middle" x="198.157" y="-181" font-family="Helvetica,sans-Serif" font-size="10.00">tuple</text>
</g>
<!-- Node1&#45;&gt;Node3 -->
<g id="edge3" class="edge"><title>Node1&#45;&gt;Node3</title>
<path fill="none" stroke="midnightblue" d="M198.157,-235.475C198.157,-227.08 198.157,-213.981 198.157,-203.163"/>
<polygon fill="midnightblue" stroke="midnightblue" points="201.657,-203.009 198.157,-193.009 194.657,-203.009 201.657,-203.009"/>
</g>
<!-- Node4 -->
<g id="node5" class="node"><title>Node4</title>
<polygon fill="white" stroke="#bfbfbf" points="235.157,-174 235.157,-193 275.157,-193 275.157,-174 235.157,-174"/>
<text text-anchor="middle" x="255.157" y="-181" font-family="Helvetica,sans-Serif" font-size="10.00">limits</text>
</g>
<!-- Node1&#45;&gt;Node4 -->
<g id="edge4" class="edge"><title>Node1&#45;&gt;Node4</title>
<path fill="none" stroke="midnightblue" d="M206.324,-235.475C215.043,-226.373 229.061,-211.741 239.846,-200.483"/>
<polygon fill="midnightblue" stroke="midnightblue" points="242.615,-202.651 247.005,-193.009 237.56,-197.809 242.615,-202.651"/>
</g>
<!-- Node5 -->
<g id="node6" class="node"><title>Node5</title>
<g id="a_node6"><a xlink:href="bond_8h.html" target="_top" xlink:title="Classes and functions for bonds and their internal rate of return. ">
<polygon fill="white" stroke="black" points="336.157,-174 336.157,-193 382.157,-193 382.157,-174 336.157,-174"/>
<text text-anchor="middle" x="359.157" y="-181" font-family="Helvetica,sans-Serif" font-size="10.00">bond.h</text>
</a>
</g>
</g>
<!-- Node1&#45;&gt;Node5 -->
<g id="edge5" class="edge"><title>Node1&#45;&gt;Node5</title>
<path fill="none" stroke="midnightblue" d="M221.224,-235.475C248.842,-225.269 295.277,-208.108 326.553,-196.549"/>
<polygon fill="midnightblue" stroke="midnightblue" points="327.966,-199.759 336.132,-193.009 325.539,-193.193 327.966,-199.759"/>
</g>
<!-- Node22 -->
<g id="node23" class="node"><title>Node22</title>
<g id="a_node23"><a xlink:href="svensson_8h.html" target="_top" xlink:title="Functions for the Nelson&#45;Siegel&#45;Svensson model. ">
<polygon fill="white" stroke="black" points="19.657,-56.5 19.657,-75.5 84.657,-75.5 84.657,-56.5 19.657,-56.5"/>
<text text-anchor="middle" x="52.157" y="-63.5" font-family="Helvetica,sans-Serif" font-size="10.00">svensson.h</text>
</a>
</g>
</g>
<!-- Node1&#45;&gt;Node22 -->
<g id="edge31" class="edge"><title>Node1&#45;&gt;Node22</title>
<path fill="none" stroke="midnightblue" d="M188.546,-235.334C168.86,-217.299 123.118,-173.912 91.157,-132 79.7107,-116.99 68.8475,-98.394 61.5075,-84.943"/>
<polygon fill="midnightblue" stroke="midnightblue" points="64.4263,-82.9785 56.63,-75.8044 58.2509,-86.2745 64.4263,-82.9785"/>
</g>
<!-- Node23 -->
<g id="node24" class="node"><title>Node23</title>
<g id="a_node24"><a xlink:href="yield__curve__fitting_8h.html" target="_top" xlink:title="Class and functions for the yield curve fitting problem. ">
<polygon fill="white" stroke="black" points="100.657,-112.5 100.657,-131.5 201.657,-131.5 201.657,-112.5 100.657,-112.5"/>
<text text-anchor="middle" x="151.157" y="-119.5" font-family="Helvetica,sans-Serif" font-size="10.00">yield_curve_fitting.h</text>
</a>
</g>
</g>
<!-- Node1&#45;&gt;Node23 -->
<g id="edge32" class="edge"><title>Node1&#45;&gt;Node23</title>
<path fill="none" stroke="midnightblue" d="M191.721,-235.48C185.402,-226.745 175.901,-212.556 170.157,-199 162.215,-180.257 157.065,-157.452 154.157,-141.741"/>
<polygon fill="midnightblue" stroke="midnightblue" points="157.577,-140.975 152.428,-131.715 150.679,-142.164 157.577,-140.975"/>
</g>
<!-- Node5&#45;&gt;Node2 -->
<g id="edge7" class="edge"><title>Node5&#45;&gt;Node2</title>
<path fill="none" stroke="midnightblue" d="M335.854,-177.954C321.052,-175.076 301.486,-171.291 284.157,-168 157.954,-144.03 69.8122,-189.767 10.157,-76 -13.1087,-31.6306 71.7313,-17.4255 119.966,-12.9723"/>
<polygon fill="midnightblue" stroke="midnightblue" points="120.26,-16.4599 129.935,-12.1414 119.679,-9.48413 120.26,-16.4599"/>
</g>
<!-- Node6 -->
<g id="node7" class="node"><title>Node6</title>
<polygon fill="white" stroke="#bfbfbf" points="512.157,-0.5 512.157,-19.5 566.157,-19.5 566.157,-0.5 512.157,-0.5"/>
<text text-anchor="middle" x="539.157" y="-7.5" font-family="Helvetica,sans-Serif" font-size="10.00">iostream</text>
</g>
<!-- Node5&#45;&gt;Node6 -->
<g id="edge6" class="edge"><title>Node5&#45;&gt;Node6</title>
<path fill="none" stroke="midnightblue" d="M382.368,-176.028C416.112,-166.248 476.511,-147.229 493.157,-132 522.767,-104.91 533.451,-56.7372 537.205,-30.0757"/>
<polygon fill="midnightblue" stroke="midnightblue" points="540.722,-30.14 538.455,-19.7907 533.774,-29.2953 540.722,-30.14"/>
</g>
<!-- Node7 -->
<g id="node8" class="node"><title>Node7</title>
<polygon fill="white" stroke="#bfbfbf" points="434.157,-112.5 434.157,-131.5 484.157,-131.5 484.157,-112.5 434.157,-112.5"/>
<text text-anchor="middle" x="459.157" y="-119.5" font-family="Helvetica,sans-Serif" font-size="10.00">iomanip</text>
</g>
<!-- Node5&#45;&gt;Node7 -->
<g id="edge8" class="edge"><title>Node5&#45;&gt;Node7</title>
<path fill="none" stroke="midnightblue" d="M373.485,-173.975C389.821,-164.255 416.759,-148.227 436.069,-136.737"/>
<polygon fill="midnightblue" stroke="midnightblue" points="438.052,-139.63 444.856,-131.509 434.472,-133.615 438.052,-139.63"/>
</g>
<!-- Node8 -->
<g id="node9" class="node"><title>Node8</title>
<polygon fill="white" stroke="#bfbfbf" points="347.157,-56.5 347.157,-75.5 399.157,-75.5 399.157,-56.5 347.157,-56.5"/>
<text text-anchor="middle" x="373.157" y="-63.5" font-family="Helvetica,sans-Serif" font-size="10.00">sstream</text>
</g>
<!-- Node5&#45;&gt;Node8 -->
<g id="edge9" class="edge"><title>Node5&#45;&gt;Node8</title>
<path fill="none" stroke="midnightblue" d="M365.811,-173.788C372.706,-164.165 383.04,-147.917 387.157,-132 391.217,-116.303 386.608,-98.2648 381.62,-85.1789"/>
<polygon fill="midnightblue" stroke="midnightblue" points="384.811,-83.7371 377.697,-75.8854 378.362,-86.4594 384.811,-83.7371"/>
</g>
<!-- Node9 -->
<g id="node10" class="node"><title>Node9</title>
<polygon fill="white" stroke="#bfbfbf" points="274.157,-112.5 274.157,-131.5 316.157,-131.5 316.157,-112.5 274.157,-112.5"/>
<text text-anchor="middle" x="295.157" y="-119.5" font-family="Helvetica,sans-Serif" font-size="10.00">locale</text>
</g>
<!-- Node5&#45;&gt;Node9 -->
<g id="edge10" class="edge"><title>Node5&#45;&gt;Node9</title>
<path fill="none" stroke="midnightblue" d="M349.987,-173.975C340.007,-164.697 323.845,-149.671 311.647,-138.331"/>
<polygon fill="midnightblue" stroke="midnightblue" points="314.017,-135.755 304.31,-131.509 309.25,-140.881 314.017,-135.755"/>
</g>
<!-- Node10 -->
<g id="node11" class="node"><title>Node10</title>
<polygon fill="white" stroke="#bfbfbf" points="567.157,-56.5 567.157,-75.5 619.157,-75.5 619.157,-56.5 567.157,-56.5"/>
<text text-anchor="middle" x="593.157" y="-63.5" font-family="Helvetica,sans-Serif" font-size="10.00">assert.h</text>
</g>
<!-- Node5&#45;&gt;Node10 -->
<g id="edge11" class="edge"><title>Node5&#45;&gt;Node10</title>
<path fill="none" stroke="midnightblue" d="M381.438,-173.936C387.171,-171.867 393.358,-169.751 399.157,-168 463.964,-148.436 491.162,-170.043 547.157,-132 564.438,-120.259 577.347,-99.7282 585.023,-84.877"/>
<polygon fill="midnightblue" stroke="midnightblue" points="588.269,-86.2049 589.491,-75.6807 581.973,-83.146 588.269,-86.2049"/>
</g>
<!-- Node11 -->
<g id="node12" class="node"><title>Node11</title>
<polygon fill="white" stroke="#bfbfbf" points="334.157,-112.5 334.157,-131.5 378.157,-131.5 378.157,-112.5 334.157,-112.5"/>
<text text-anchor="middle" x="356.157" y="-119.5" font-family="Helvetica,sans-Serif" font-size="10.00">date.h</text>
</g>
<!-- Node5&#45;&gt;Node11 -->
<g id="edge12" class="edge"><title>Node5&#45;&gt;Node11</title>
<path fill="none" stroke="midnightblue" d="M358.727,-173.975C358.304,-165.58 357.643,-152.481 357.098,-141.663"/>
<polygon fill="midnightblue" stroke="midnightblue" points="360.585,-141.32 356.586,-131.509 353.594,-141.673 360.585,-141.32"/>
</g>
<!-- Node12 -->
<g id="node13" class="node"><title>Node12</title>
<g id="a_node13"><a xlink:href="irr_8h.html" target="_top" xlink:title="Functions for the Internal Rate of Return. ">
<polygon fill="white" stroke="black" points="222.657,-112.5 222.657,-131.5 255.657,-131.5 255.657,-112.5 222.657,-112.5"/>
<text text-anchor="middle" x="239.157" y="-119.5" font-family="Helvetica,sans-Serif" font-size="10.00">irr.h</text>
</a>
</g>
</g>
<!-- Node5&#45;&gt;Node12 -->
<g id="edge13" class="edge"><title>Node5&#45;&gt;Node12</title>
<path fill="none" stroke="midnightblue" d="M341.964,-173.975C321.8,-163.977 288.179,-147.307 264.901,-135.765"/>
<polygon fill="midnightblue" stroke="midnightblue" points="266.445,-132.624 255.931,-131.317 263.336,-138.895 266.445,-132.624"/>
</g>
<!-- Node16 -->
<g id="node17" class="node"><title>Node16</title>
<g id="a_node17"><a xlink:href="ealgorithm__base_8h.html" target="_top" xlink:title="Classes and functions for the base of the solvers. ">
<polygon fill="white" stroke="black" points="599.157,-112.5 599.157,-131.5 695.157,-131.5 695.157,-112.5 599.157,-112.5"/>
<text text-anchor="middle" x="647.157" y="-119.5" font-family="Helvetica,sans-Serif" font-size="10.00">ealgorithm_base.h</text>
</a>
</g>
</g>
<!-- Node5&#45;&gt;Node16 -->
<g id="edge20" class="edge"><title>Node5&#45;&gt;Node16</title>
<path fill="none" stroke="midnightblue" d="M380.534,-174C386.497,-171.835 393.024,-169.655 399.157,-168 434.073,-158.576 527.296,-142.56 588.971,-132.395"/>
<polygon fill="midnightblue" stroke="midnightblue" points="589.662,-135.828 598.962,-130.754 588.527,-128.921 589.662,-135.828"/>
</g>
<!-- Node12&#45;&gt;Node2 -->
<g id="edge14" class="edge"><title>Node12&#45;&gt;Node2</title>
<path fill="none" stroke="midnightblue" d="M232.252,-112.368C217.665,-94.135 183.498,-51.4257 164.497,-27.6752"/>
<polygon fill="midnightblue" stroke="midnightblue" points="167.01,-25.2137 158.03,-19.5914 161.544,-29.5866 167.01,-25.2137"/>
</g>
<!-- Node13 -->
<g id="node14" class="node"><title>Node13</title>
<polygon fill="white" stroke="#bfbfbf" points="217.157,-56.5 217.157,-75.5 261.157,-75.5 261.157,-56.5 217.157,-56.5"/>
<text text-anchor="middle" x="239.157" y="-63.5" font-family="Helvetica,sans-Serif" font-size="10.00">cmath</text>
</g>
<!-- Node12&#45;&gt;Node13 -->
<g id="edge15" class="edge"><title>Node12&#45;&gt;Node13</title>
<path fill="none" stroke="midnightblue" d="M239.157,-112.083C239.157,-105.006 239.157,-94.8611 239.157,-85.9865"/>
<polygon fill="midnightblue" stroke="midnightblue" points="242.657,-85.751 239.157,-75.7511 235.657,-85.7511 242.657,-85.751"/>
</g>
<!-- Node14 -->
<g id="node15" class="node"><title>Node14</title>
<g id="a_node15"><a xlink:href="utilities_8h.html" target="_top" xlink:title="Enumerations and functions used from the rest of the project. ">
<polygon fill="white" stroke="black" points="455.157,-56.5 455.157,-75.5 511.157,-75.5 511.157,-56.5 455.157,-56.5"/>
<text text-anchor="middle" x="483.157" y="-63.5" font-family="Helvetica,sans-Serif" font-size="10.00">utilities.h</text>
</a>
</g>
</g>
<!-- Node12&#45;&gt;Node14 -->
<g id="edge16" class="edge"><title>Node12&#45;&gt;Node14</title>
<path fill="none" stroke="midnightblue" d="M255.84,-114.868C258.917,-113.839 262.117,-112.836 265.157,-112 327.422,-94.8746 401.286,-80.9327 445.076,-73.3151"/>
<polygon fill="midnightblue" stroke="midnightblue" points="445.745,-76.7515 455.007,-71.6066 444.558,-69.8529 445.745,-76.7515"/>
</g>
<!-- Node14&#45;&gt;Node2 -->
<g id="edge18" class="edge"><title>Node14&#45;&gt;Node2</title>
<path fill="none" stroke="midnightblue" d="M454.734,-58.6796C450.202,-57.7379 445.557,-56.8121 441.157,-56 347.409,-38.6966 235.78,-22.6478 182.49,-15.2632"/>
<polygon fill="midnightblue" stroke="midnightblue" points="182.716,-11.7613 172.331,-13.8628 181.76,-18.6957 182.716,-11.7613"/>
</g>
<!-- Node14&#45;&gt;Node6 -->
<g id="edge17" class="edge"><title>Node14&#45;&gt;Node6</title>
<path fill="none" stroke="midnightblue" d="M492.154,-56.324C500.351,-48.4196 512.663,-36.5482 522.629,-26.9377"/>
<polygon fill="midnightblue" stroke="midnightblue" points="525.227,-29.2947 529.996,-19.8339 520.368,-24.2558 525.227,-29.2947"/>
</g>
<!-- Node15 -->
<g id="node16" class="node"><title>Node15</title>
<polygon fill="white" stroke="#bfbfbf" points="446.657,-0.5 446.657,-19.5 493.657,-19.5 493.657,-0.5 446.657,-0.5"/>
<text text-anchor="middle" x="470.157" y="-7.5" font-family="Helvetica,sans-Serif" font-size="10.00">iterator</text>
</g>
<!-- Node14&#45;&gt;Node15 -->
<g id="edge19" class="edge"><title>Node14&#45;&gt;Node15</title>
<path fill="none" stroke="midnightblue" d="M481.01,-56.083C479.288,-48.9272 476.81,-38.6353 474.657,-29.6911"/>
<polygon fill="midnightblue" stroke="midnightblue" points="478.007,-28.6541 472.264,-19.7511 471.202,-30.2925 478.007,-28.6541"/>
</g>
<!-- Node16&#45;&gt;Node2 -->
<g id="edge22" class="edge"><title>Node16&#45;&gt;Node2</title>
<path fill="none" stroke="midnightblue" d="M599.03,-113.904C557.661,-106.943 496.836,-94.6353 446.157,-76 428.244,-69.4134 426.219,-62.1647 408.157,-56 329.479,-29.1466 231.52,-17.6678 182.365,-13.3208"/>
<polygon fill="midnightblue" stroke="midnightblue" points="182.619,-9.82992 172.36,-12.4759 182.03,-16.8051 182.619,-9.82992"/>
</g>
<!-- Node16&#45;&gt;Node6 -->
<g id="edge21" class="edge"><title>Node16&#45;&gt;Node6</title>
<path fill="none" stroke="midnightblue" d="M646.775,-112.415C645.751,-98.9366 641.986,-72.6356 628.157,-56 614.709,-39.8228 593.979,-28.8649 575.908,-21.816"/>
<polygon fill="midnightblue" stroke="midnightblue" points="576.799,-18.4161 566.205,-18.2937 574.41,-24.996 576.799,-18.4161"/>
</g>
<!-- Node16&#45;&gt;Node8 -->
<g id="edge29" class="edge"><title>Node16&#45;&gt;Node8</title>
<path fill="none" stroke="midnightblue" d="M600.454,-112.464C553.16,-103.716 477.953,-89.5165 413.157,-76 411.903,-75.7384 410.627,-75.469 409.339,-75.1944"/>
<polygon fill="midnightblue" stroke="midnightblue" points="409.897,-71.7339 399.381,-73.0239 408.407,-78.5733 409.897,-71.7339"/>
</g>
<!-- Node16&#45;&gt;Node10 -->
<g id="edge23" class="edge"><title>Node16&#45;&gt;Node10</title>
<path fill="none" stroke="midnightblue" d="M638.24,-112.083C630.376,-104.22 618.726,-92.5688 609.238,-83.0813"/>
<polygon fill="midnightblue" stroke="midnightblue" points="611.454,-80.3473 601.908,-75.7511 606.504,-85.2971 611.454,-80.3473"/>
</g>
<!-- Node16&#45;&gt;Node14 -->
<g id="edge30" class="edge"><title>Node16&#45;&gt;Node14</title>
<path fill="none" stroke="midnightblue" d="M621.171,-112.444C593.461,-103.32 549.405,-88.8133 518.541,-78.6509"/>
<polygon fill="midnightblue" stroke="midnightblue" points="519.615,-75.3196 509.022,-75.5164 517.425,-81.9684 519.615,-75.3196"/>
</g>
<!-- Node17 -->
<g id="node18" class="node"><title>Node17</title>
<polygon fill="white" stroke="#bfbfbf" points="675.157,-56.5 675.157,-75.5 715.157,-75.5 715.157,-56.5 675.157,-56.5"/>
<text text-anchor="middle" x="695.157" y="-63.5" font-family="Helvetica,sans-Serif" font-size="10.00">utility</text>
</g>
<!-- Node16&#45;&gt;Node17 -->
<g id="edge24" class="edge"><title>Node16&#45;&gt;Node17</title>
<path fill="none" stroke="midnightblue" d="M655.083,-112.083C662.003,-104.298 672.222,-92.8015 680.609,-83.3665"/>
<polygon fill="midnightblue" stroke="midnightblue" points="683.35,-85.5505 687.378,-75.7511 678.119,-80.8999 683.35,-85.5505"/>
</g>
<!-- Node18 -->
<g id="node19" class="node"><title>Node18</title>
<polygon fill="white" stroke="#bfbfbf" points="733.157,-56.5 733.157,-75.5 779.157,-75.5 779.157,-56.5 733.157,-56.5"/>
<text text-anchor="middle" x="756.157" y="-63.5" font-family="Helvetica,sans-Serif" font-size="10.00">chrono</text>
</g>
<!-- Node16&#45;&gt;Node18 -->
<g id="edge25" class="edge"><title>Node16&#45;&gt;Node18</title>
<path fill="none" stroke="midnightblue" d="M664.67,-112.324C682.229,-103.625 709.488,-90.1202 729.688,-80.113"/>
<polygon fill="midnightblue" stroke="midnightblue" points="731.281,-83.23 738.688,-75.6545 728.173,-76.9575 731.281,-83.23"/>
</g>
<!-- Node19 -->
<g id="node20" class="node"><title>Node19</title>
<polygon fill="white" stroke="#bfbfbf" points="797.657,-56.5 797.657,-75.5 838.657,-75.5 838.657,-56.5 797.657,-56.5"/>
<text text-anchor="middle" x="818.157" y="-63.5" font-family="Helvetica,sans-Serif" font-size="10.00">ctime</text>
</g>
<!-- Node16&#45;&gt;Node19 -->
<g id="edge26" class="edge"><title>Node16&#45;&gt;Node19</title>
<path fill="none" stroke="midnightblue" d="M674.252,-112.444C705.184,-102.676 755.652,-86.7385 787.861,-76.5673"/>
<polygon fill="midnightblue" stroke="midnightblue" points="789.147,-79.8316 797.629,-73.4826 787.039,-73.1565 789.147,-79.8316"/>
</g>
<!-- Node20 -->
<g id="node21" class="node"><title>Node20</title>
<polygon fill="white" stroke="#bfbfbf" points="856.657,-56.5 856.657,-75.5 905.657,-75.5 905.657,-56.5 856.657,-56.5"/>
<text text-anchor="middle" x="881.157" y="-63.5" font-family="Helvetica,sans-Serif" font-size="10.00">random</text>
</g>
<!-- Node16&#45;&gt;Node20 -->
<g id="edge27" class="edge"><title>Node16&#45;&gt;Node20</title>
<path fill="none" stroke="midnightblue" d="M687.104,-112.473C725.494,-104.176 785.377,-90.9657 846.487,-76.0946"/>
<polygon fill="midnightblue" stroke="midnightblue" points="847.42,-79.4697 856.302,-73.6941 845.757,-72.6701 847.42,-79.4697"/>
</g>
<!-- Node21 -->
<g id="node22" class="node"><title>Node21</title>
<polygon fill="white" stroke="#bfbfbf" points="279.657,-56.5 279.657,-75.5 328.657,-75.5 328.657,-56.5 279.657,-56.5"/>
<text text-anchor="middle" x="304.157" y="-63.5" font-family="Helvetica,sans-Serif" font-size="10.00">fstream</text>
</g>
<!-- Node16&#45;&gt;Node21 -->
<g id="edge28" class="edge"><title>Node16&#45;&gt;Node21</title>
<path fill="none" stroke="midnightblue" d="M598.956,-115.709C539.937,-108.848 436.781,-95.6225 339.014,-75.9642"/>
<polygon fill="midnightblue" stroke="midnightblue" points="339.46,-72.4832 328.962,-73.9161 338.062,-79.3422 339.46,-72.4832"/>
</g>
<!-- Node23&#45;&gt;Node2 -->
<g id="edge36" class="edge"><title>Node23&#45;&gt;Node2</title>
<path fill="none" stroke="midnightblue" d="M147.557,-112.222C144.101,-103.285 139.124,-88.9424 137.157,-76 134.745,-60.1295 139.085,-42.3209 143.553,-29.3629"/>
<polygon fill="midnightblue" stroke="midnightblue" points="146.918,-30.3594 147.19,-19.768 140.372,-27.8778 146.918,-30.3594"/>
</g>
<!-- Node23&#45;&gt;Node6 -->
<g id="edge33" class="edge"><title>Node23&#45;&gt;Node6</title>
<path fill="none" stroke="midnightblue" d="M155.805,-112.47C164.164,-98.0616 183.212,-69.189 208.157,-56 321.693,4.02903 370.257,-41.2643 501.726,-19.7837"/>
<polygon fill="midnightblue" stroke="midnightblue" points="502.5,-23.2018 511.754,-18.0429 501.303,-16.3049 502.5,-23.2018"/>
</g>
<!-- Node23&#45;&gt;Node8 -->
<g id="edge35" class="edge"><title>Node23&#45;&gt;Node8</title>
<path fill="none" stroke="midnightblue" d="M186.834,-112.454C222.316,-103.935 278.566,-90.3799 337.034,-76.0154"/>
<polygon fill="midnightblue" stroke="midnightblue" points="337.942,-79.3966 346.817,-73.6096 336.27,-72.5991 337.942,-79.3966"/>
</g>
<!-- Node23&#45;&gt;Node21 -->
<g id="edge34" class="edge"><title>Node23&#45;&gt;Node21</title>
<path fill="none" stroke="midnightblue" d="M175.4,-112.444C201.028,-103.399 241.642,-89.064 270.395,-78.9158"/>
<polygon fill="midnightblue" stroke="midnightblue" points="271.762,-82.1452 280.027,-75.5164 269.432,-75.5442 271.762,-82.1452"/>
</g>
<!-- Node23&#45;&gt;Node22 -->
<g id="edge37" class="edge"><title>Node23&#45;&gt;Node22</title>
<path fill="none" stroke="midnightblue" d="M135.251,-112.324C119.519,-103.743 95.2146,-90.486 76.9481,-80.5224"/>
<polygon fill="midnightblue" stroke="midnightblue" points="78.4785,-77.3704 68.0235,-75.6545 75.1265,-83.5157 78.4785,-77.3704"/>
</g>
<!-- Node24&#45;&gt;Node16 -->
<g id="edge39" class="edge"><title>Node24&#45;&gt;Node16</title>
<path fill="none" stroke="midnightblue" d="M547.235,-235.452C558.878,-226.915 576.667,-213.072 590.157,-199 608.094,-180.289 625.489,-155.909 636.248,-139.873"/>
<polygon fill="midnightblue" stroke="midnightblue" points="639.186,-141.775 641.77,-131.5 633.343,-137.921 639.186,-141.775"/>
</g>
<!-- Node25 -->
<g id="node26" class="node"><title>Node25</title>
<polygon fill="white" stroke="#bfbfbf" points="441.157,-174 441.157,-193 581.157,-193 581.157,-174 441.157,-174"/>
<text text-anchor="middle" x="511.157" y="-181" font-family="Helvetica,sans-Serif" font-size="10.00">boost/math/distributions.hpp</text>
</g>
<!-- Node24&#45;&gt;Node25 -->
<g id="edge40" class="edge"><title>Node24&#45;&gt;Node25</title>
<path fill="none" stroke="midnightblue" d="M531.718,-235.475C528.261,-226.904 522.825,-213.427 518.411,-202.483"/>
<polygon fill="midnightblue" stroke="midnightblue" points="521.576,-200.974 514.589,-193.009 515.084,-203.592 521.576,-200.974"/>
</g>
<!-- Node26&#45;&gt;Node16 -->
<g id="edge42" class="edge"><title>Node26&#45;&gt;Node16</title>
<path fill="none" stroke="midnightblue" d="M662.934,-235.298C660.19,-215.763 653.488,-168.065 649.763,-141.547"/>
<polygon fill="midnightblue" stroke="midnightblue" points="653.226,-141.039 648.368,-131.623 646.294,-142.013 653.226,-141.039"/>
</g>
<!-- Node27 -->
<g id="node28" class="node"><title>Node27</title>
<polygon fill="white" stroke="#bfbfbf" points="675.657,-174 675.657,-193 758.657,-193 758.657,-174 675.657,-174"/>
<text text-anchor="middle" x="717.157" y="-181" font-family="Helvetica,sans-Serif" font-size="10.00">unordered_map</text>
</g>
<!-- Node26&#45;&gt;Node27 -->
<g id="edge43" class="edge"><title>Node26&#45;&gt;Node27</title>
<path fill="none" stroke="midnightblue" d="M671.751,-235.475C679.858,-226.373 692.892,-211.741 702.92,-200.483"/>
<polygon fill="midnightblue" stroke="midnightblue" points="705.539,-202.804 709.577,-193.009 700.312,-198.148 705.539,-202.804"/>
</g>
<!-- Node28&#45;&gt;Node16 -->
<g id="edge45" class="edge"><title>Node28&#45;&gt;Node16</title>
<path fill="none" stroke="midnightblue" d="M412.589,-235.273C412.074,-219.452 413.437,-186.01 432.157,-168 443.474,-157.112 529.241,-141.605 588.964,-131.931"/>
<polygon fill="midnightblue" stroke="midnightblue" points="589.729,-135.353 599.048,-130.312 588.62,-128.441 589.729,-135.353"/>
</g>
<!-- Node29&#45;&gt;Node16 -->
<g id="edge49" class="edge"><title>Node29&#45;&gt;Node16</title>
<path fill="none" stroke="midnightblue" d="M787.319,-235.286C787.134,-219.783 784.534,-187.236 767.157,-168 751.046,-150.166 727.167,-139.37 704.944,-132.848"/>
<polygon fill="midnightblue" stroke="midnightblue" points="705.783,-129.45 695.217,-130.225 703.96,-136.208 705.783,-129.45"/>
</g>
<!-- Node29&#45;&gt;Node27 -->
<g id="edge47" class="edge"><title>Node29&#45;&gt;Node27</title>
<path fill="none" stroke="midnightblue" d="M777.128,-235.475C766.108,-226.108 748.197,-210.884 734.813,-199.508"/>
<polygon fill="midnightblue" stroke="midnightblue" points="737.054,-196.819 727.168,-193.009 732.52,-202.152 737.054,-196.819"/>
</g>
<!-- Node30 -->
<g id="node31" class="node"><title>Node30</title>
<polygon fill="white" stroke="#bfbfbf" points="871.657,-168.5 871.657,-198.5 982.657,-198.5 982.657,-168.5 871.657,-168.5"/>
<text text-anchor="start" x="879.657" y="-186.5" font-family="Helvetica,sans-Serif" font-size="10.00">boost/math/constants</text>
<text text-anchor="middle" x="927.157" y="-175.5" font-family="Helvetica,sans-Serif" font-size="10.00">/constants.hpp</text>
</g>
<!-- Node29&#45;&gt;Node30 -->
<g id="edge48" class="edge"><title>Node29&#45;&gt;Node30</title>
<path fill="none" stroke="midnightblue" d="M807.216,-235.475C827.328,-226.927 858.919,-213.501 884.631,-202.573"/>
<polygon fill="midnightblue" stroke="midnightblue" points="886.327,-205.656 894.162,-198.523 883.589,-199.213 886.327,-205.656"/>
</g>
<!-- Node31 -->
<g id="node32" class="node"><title>Node31</title>
<polygon fill="white" stroke="#bfbfbf" points="815.157,-174 815.157,-193 853.157,-193 853.157,-174 815.157,-174"/>
<text text-anchor="middle" x="834.157" y="-181" font-family="Helvetica,sans-Serif" font-size="10.00">array</text>
</g>
<!-- Node29&#45;&gt;Node31 -->
<g id="edge50" class="edge"><title>Node29&#45;&gt;Node31</title>
<path fill="none" stroke="midnightblue" d="M793.891,-235.475C800.941,-226.55 812.192,-212.307 821.011,-201.143"/>
<polygon fill="midnightblue" stroke="midnightblue" points="823.983,-203.026 827.435,-193.009 818.49,-198.687 823.983,-203.026"/>
</g>
</g>
</svg>
