<?xml version="1.0" encoding="UTF-8" standalone="no"?>
<!DOCTYPE svg PUBLIC "-//W3C//DTD SVG 1.1//EN"
 "http://www.w3.org/Graphics/SVG/1.1/DTD/svg11.dtd">
<!-- Generated by graphviz version 2.38.0 (20140413.2041)
 -->
<!-- Title: irr::fitness_irr Pages: 1 -->
<svg width="346pt" height="72pt"
 viewBox="0.00 0.00 346.00 71.50" xmlns="http://www.w3.org/2000/svg" xmlns:xlink="http://www.w3.org/1999/xlink">
<g id="graph0" class="graph" transform="scale(1 1) rotate(0) translate(4 67.5)">
<title>irr::fitness_irr</title>
<polygon fill="white" stroke="none" points="-4,4 -4,-67.5 342,-67.5 342,4 -4,4"/>
<!-- Node15 -->
<g id="node1" class="node"><title>Node15</title>
<polygon fill="#bfbfbf" stroke="black" points="0,-19.5 0,-38.5 73,-38.5 73,-19.5 0,-19.5"/>
<text text-anchor="middle" x="36.5" y="-26.5" font-family="Helvetica,sans-Serif" font-size="10.00">irr::fitness_irr</text>
</g>
<!-- Node16 -->
<g id="node2" class="node"><title>Node16</title>
<g id="a_node2"><a xlink:href="namespaceirr.html#ac3411cd2ad174f399c525d8d17dcdad0" target="_top" xlink:title="Returns the present value of an investment. ">
<polygon fill="white" stroke="black" points="109,-38.5 109,-57.5 192,-57.5 192,-38.5 109,-38.5"/>
<text text-anchor="middle" x="150.5" y="-45.5" font-family="Helvetica,sans-Serif" font-size="10.00">irr::compute_pv</text>
</a>
</g>
</g>
<!-- Node15&#45;&gt;Node16 -->
<g id="edge1" class="edge"><title>Node15&#45;&gt;Node16</title>
<path fill="none" stroke="midnightblue" d="M73.2454,-35.064C81.3438,-36.4378 90.0953,-37.9224 98.6828,-39.3792"/>
<polygon fill="midnightblue" stroke="midnightblue" points="98.195,-42.8464 108.64,-41.0683 99.3659,-35.945 98.195,-42.8464"/>
</g>
<!-- Node18 -->
<g id="node4" class="node"><title>Node18</title>
<g id="a_node4"><a xlink:href="namespaceirr.html#abd1d21a84003df6b46dc32c3a30d2269" target="_top" xlink:title="Penalty function for IRR. ">
<polygon fill="white" stroke="black" points="112.5,-0.5 112.5,-19.5 188.5,-19.5 188.5,-0.5 112.5,-0.5"/>
<text text-anchor="middle" x="150.5" y="-7.5" font-family="Helvetica,sans-Serif" font-size="10.00">irr::penalty_irr</text>
</a>
</g>
</g>
<!-- Node15&#45;&gt;Node18 -->
<g id="edge3" class="edge"><title>Node15&#45;&gt;Node18</title>
<path fill="none" stroke="midnightblue" d="M73.2454,-22.936C82.4631,-21.3723 92.527,-19.6651 102.232,-18.0187"/>
<polygon fill="midnightblue" stroke="midnightblue" points="102.892,-21.4568 112.165,-16.3335 101.721,-14.5554 102.892,-21.4568"/>
</g>
<!-- Node17 -->
<g id="node3" class="node"><title>Node17</title>
<g id="a_node3"><a xlink:href="namespaceirr.html#ae00c3409ca39fa2dc47ce61da4169a66" target="_top" xlink:title="Calculates discount factors. ">
<polygon fill="white" stroke="black" points="228,-33 228,-63 338,-63 338,-33 228,-33"/>
<text text-anchor="start" x="236" y="-51" font-family="Helvetica,sans-Serif" font-size="10.00">irr::compute_discount</text>
<text text-anchor="middle" x="283" y="-40" font-family="Helvetica,sans-Serif" font-size="10.00">_factor</text>
</a>
</g>
</g>
<!-- Node16&#45;&gt;Node17 -->
<g id="edge2" class="edge"><title>Node16&#45;&gt;Node17</title>
<path fill="none" stroke="midnightblue" d="M192.076,-48C200.142,-48 208.799,-48 217.44,-48"/>
<polygon fill="midnightblue" stroke="midnightblue" points="217.539,-51.5001 227.539,-48 217.539,-44.5001 217.539,-51.5001"/>
</g>
</g>
</svg>
