<?xml version="1.0" encoding="UTF-8" standalone="no"?>
<!DOCTYPE svg PUBLIC "-//W3C//DTD SVG 1.1//EN"
 "http://www.w3.org/Graphics/SVG/1.1/DTD/svg11.dtd">
<!-- Generated by graphviz version 2.38.0 (20140413.2041)
 -->
<!-- Title: nss::svensson Pages: 1 -->
<svg width="260pt" height="160pt"
 viewBox="0.00 0.00 260.00 159.50" xmlns="http://www.w3.org/2000/svg" xmlns:xlink="http://www.w3.org/1999/xlink">
<g id="graph0" class="graph" transform="scale(1 1) rotate(0) translate(4 155.5)">
<title>nss::svensson</title>
<polygon fill="white" stroke="none" points="-4,4 -4,-155.5 256,-155.5 256,4 -4,4"/>
<!-- Node10 -->
<g id="node1" class="node"><title>Node10</title>
<polygon fill="#bfbfbf" stroke="black" points="0,-71.5 0,-90.5 79,-90.5 79,-71.5 0,-71.5"/>
<text text-anchor="middle" x="39.5" y="-78.5" font-family="Helvetica,sans-Serif" font-size="10.00">nss::svensson</text>
</g>
<!-- Node11 -->
<g id="node2" class="node"><title>Node11</title>
<g id="a_node2"><a xlink:href="classbond_1_1_bond_helper.html#a1288528021e7c60e3a1435d39ad8611d" target="_top" xlink:title="Returns the bond prices using the estimated spot interest rates computed with svensson. ">
<polygon fill="white" stroke="black" points="115,-121 115,-151 252,-151 252,-121 115,-121"/>
<text text-anchor="start" x="123" y="-139" font-family="Helvetica,sans-Serif" font-size="10.00">bond::BondHelper::estimate</text>
<text text-anchor="middle" x="183.5" y="-128" font-family="Helvetica,sans-Serif" font-size="10.00">_bond_pricing</text>
</a>
</g>
</g>
<!-- Node10&#45;&gt;Node11 -->
<g id="edge1" class="edge"><title>Node10&#45;&gt;Node11</title>
<path fill="none" stroke="midnightblue" d="M73.3591,-94.4632C86.3034,-99.7062 101.319,-105.713 115,-111 123.509,-114.288 132.654,-117.734 141.381,-120.98"/>
<polygon fill="midnightblue" stroke="midnightblue" points="74.5027,-91.15 63.9207,-90.6275 71.8672,-97.635 74.5027,-91.15"/>
</g>
<!-- Node12 -->
<g id="node3" class="node"><title>Node12</title>
<g id="a_node3"><a xlink:href="classyft_1_1_interest___rate___helper.html#ab8f50bcc6788356b008716a44dc134b8" target="_top" xlink:title="This is the fitness function for yield&#45;curve fitting using Interest Rates. ">
<polygon fill="white" stroke="black" points="128.5,-60.5 128.5,-101.5 238.5,-101.5 238.5,-60.5 128.5,-60.5"/>
<text text-anchor="start" x="136.5" y="-89.5" font-family="Helvetica,sans-Serif" font-size="10.00">yft::Interest_Rate</text>
<text text-anchor="start" x="136.5" y="-78.5" font-family="Helvetica,sans-Serif" font-size="10.00">_Helper::fitness_yield</text>
<text text-anchor="middle" x="183.5" y="-67.5" font-family="Helvetica,sans-Serif" font-size="10.00">_curve_fitting</text>
</a>
</g>
</g>
<!-- Node10&#45;&gt;Node12 -->
<g id="edge2" class="edge"><title>Node10&#45;&gt;Node12</title>
<path fill="none" stroke="midnightblue" d="M89.533,-81C102.042,-81 115.559,-81 128.309,-81"/>
<polygon fill="midnightblue" stroke="midnightblue" points="89.3022,-77.5001 79.3021,-81 89.3021,-84.5001 89.3022,-77.5001"/>
</g>
<!-- Node13 -->
<g id="node4" class="node"><title>Node13</title>
<g id="a_node4"><a xlink:href="classyft_1_1_interest___rate___helper.html#a2bf0217c985329f0f32c9df92b29456c" target="_top" xlink:title="Yield Curve Fitting using interest rates and recorded periods. ">
<polygon fill="white" stroke="black" points="134.5,-0.5 134.5,-41.5 232.5,-41.5 232.5,-0.5 134.5,-0.5"/>
<text text-anchor="start" x="142.5" y="-29.5" font-family="Helvetica,sans-Serif" font-size="10.00">yft::Interest_Rate</text>
<text text-anchor="start" x="142.5" y="-18.5" font-family="Helvetica,sans-Serif" font-size="10.00">_Helper::yieldcurve</text>
<text text-anchor="middle" x="183.5" y="-7.5" font-family="Helvetica,sans-Serif" font-size="10.00">_fitting</text>
</a>
</g>
</g>
<!-- Node10&#45;&gt;Node13 -->
<g id="edge3" class="edge"><title>Node10&#45;&gt;Node13</title>
<path fill="none" stroke="midnightblue" d="M72.2991,-67.5638C90.5328,-59.8594 113.791,-50.0321 134.236,-41.3931"/>
<polygon fill="midnightblue" stroke="midnightblue" points="70.8495,-64.3766 63.0003,-71.4928 73.5741,-70.8246 70.8495,-64.3766"/>
</g>
</g>
</svg>
