<?xml version="1.0" encoding="UTF-8" standalone="no"?>
<!DOCTYPE svg PUBLIC "-//W3C//DTD SVG 1.1//EN"
 "http://www.w3.org/Graphics/SVG/1.1/DTD/svg11.dtd">
<!-- Generated by graphviz version 2.38.0 (20140413.2041)
 -->
<!-- Title: nss::penalty_svensson Pages: 1 -->
<svg width="288pt" height="149pt"
 viewBox="0.00 0.00 288.00 148.50" xmlns="http://www.w3.org/2000/svg" xmlns:xlink="http://www.w3.org/1999/xlink">
<g id="graph0" class="graph" transform="scale(1 1) rotate(0) translate(4 144.5)">
<title>nss::penalty_svensson</title>
<polygon fill="white" stroke="none" points="-4,4 -4,-144.5 284,-144.5 284,4 -4,4"/>
<!-- Node5 -->
<g id="node1" class="node"><title>Node5</title>
<polygon fill="#bfbfbf" stroke="black" points="0,-66.5 0,-85.5 116,-85.5 116,-66.5 0,-66.5"/>
<text text-anchor="middle" x="58" y="-73.5" font-family="Helvetica,sans-Serif" font-size="10.00">nss::penalty_svensson</text>
</g>
<!-- Node6 -->
<g id="node2" class="node"><title>Node6</title>
<g id="a_node2"><a xlink:href="classbond_1_1_bond_helper.html#a507eddab3d55ad3e640dfa930dcf43d0" target="_top" xlink:title="This is the fitness function for bond pricing using the bonds&#39; prices. ">
<polygon fill="white" stroke="black" points="152,-110 152,-140 280,-140 280,-110 152,-110"/>
<text text-anchor="start" x="160" y="-128" font-family="Helvetica,sans-Serif" font-size="10.00">bond::BondHelper::fitness</text>
<text text-anchor="middle" x="216" y="-117" font-family="Helvetica,sans-Serif" font-size="10.00">_bond_pricing_prices</text>
</a>
</g>
</g>
<!-- Node5&#45;&gt;Node6 -->
<g id="edge1" class="edge"><title>Node5&#45;&gt;Node6</title>
<path fill="none" stroke="midnightblue" d="M99.2141,-88.6313C119.95,-95.1446 145.384,-103.133 167.127,-109.963"/>
<polygon fill="midnightblue" stroke="midnightblue" points="100.038,-85.2216 89.4487,-85.564 97.9403,-91.8999 100.038,-85.2216"/>
</g>
<!-- Node7 -->
<g id="node3" class="node"><title>Node7</title>
<g id="a_node3"><a xlink:href="classbond_1_1_bond_helper.html#aa1a47c41374aee7914e9c0ac374b39e4" target="_top" xlink:title="This is the fitness function for bond pricing using the bonds&#39; yields&#45;to&#45;maturity. ">
<polygon fill="white" stroke="black" points="152,-61 152,-91 280,-91 280,-61 152,-61"/>
<text text-anchor="start" x="160" y="-79" font-family="Helvetica,sans-Serif" font-size="10.00">bond::BondHelper::fitness</text>
<text text-anchor="middle" x="216" y="-68" font-family="Helvetica,sans-Serif" font-size="10.00">_bond_pricing_yields</text>
</a>
</g>
</g>
<!-- Node5&#45;&gt;Node7 -->
<g id="edge2" class="edge"><title>Node5&#45;&gt;Node7</title>
<path fill="none" stroke="midnightblue" d="M126.37,-76C134.796,-76 143.391,-76 151.751,-76"/>
<polygon fill="midnightblue" stroke="midnightblue" points="126.203,-72.5001 116.203,-76 126.203,-79.5001 126.203,-72.5001"/>
</g>
<!-- Node8 -->
<g id="node4" class="node"><title>Node8</title>
<g id="a_node4"><a xlink:href="classyft_1_1_interest___rate___helper.html#ab8f50bcc6788356b008716a44dc134b8" target="_top" xlink:title="This is the fitness function for yield&#45;curve fitting using Interest Rates. ">
<polygon fill="white" stroke="black" points="161,-0.5 161,-41.5 271,-41.5 271,-0.5 161,-0.5"/>
<text text-anchor="start" x="169" y="-29.5" font-family="Helvetica,sans-Serif" font-size="10.00">yft::Interest_Rate</text>
<text text-anchor="start" x="169" y="-18.5" font-family="Helvetica,sans-Serif" font-size="10.00">_Helper::fitness_yield</text>
<text text-anchor="middle" x="216" y="-7.5" font-family="Helvetica,sans-Serif" font-size="10.00">_curve_fitting</text>
</a>
</g>
</g>
<!-- Node5&#45;&gt;Node8 -->
<g id="edge3" class="edge"><title>Node5&#45;&gt;Node8</title>
<path fill="none" stroke="midnightblue" d="M95.8185,-63.0191C115.164,-56.1986 139.248,-47.7075 160.692,-40.1471"/>
<polygon fill="midnightblue" stroke="midnightblue" points="94.4404,-59.7938 86.1731,-66.4197 96.7679,-66.3955 94.4404,-59.7938"/>
</g>
</g>
</svg>
