<?xml version="1.0" encoding="UTF-8" standalone="no"?>
<!DOCTYPE svg PUBLIC "-//W3C//DTD SVG 1.1//EN"
 "http://www.w3.org/Graphics/SVG/1.1/DTD/svg11.dtd">
<!-- Generated by graphviz version 2.38.0 (20140413.2041)
 -->
<!-- Title: irr::compute_pv Pages: 1 -->
<svg width="346pt" height="39pt"
 viewBox="0.00 0.00 346.00 39.00" xmlns="http://www.w3.org/2000/svg" xmlns:xlink="http://www.w3.org/1999/xlink">
<g id="graph0" class="graph" transform="scale(1 1) rotate(0) translate(4 35)">
<title>irr::compute_pv</title>
<polygon fill="white" stroke="none" points="-4,4 -4,-35 342,-35 342,4 -4,4"/>
<!-- Node9 -->
<g id="node1" class="node"><title>Node9</title>
<polygon fill="#bfbfbf" stroke="black" points="0,-6 0,-25 83,-25 83,-6 0,-6"/>
<text text-anchor="middle" x="41.5" y="-13" font-family="Helvetica,sans-Serif" font-size="10.00">irr::compute_pv</text>
</g>
<!-- Node10 -->
<g id="node2" class="node"><title>Node10</title>
<g id="a_node2"><a xlink:href="namespaceirr.html#aced01c5e5ef9e171a3b892275d442f8d" target="_top" xlink:title="This is the fitness function for finding the internal rate of return of a bond, in this case it is eq...">
<polygon fill="white" stroke="black" points="119,-6 119,-25 192,-25 192,-6 119,-6"/>
<text text-anchor="middle" x="155.5" y="-13" font-family="Helvetica,sans-Serif" font-size="10.00">irr::fitness_irr</text>
</a>
</g>
</g>
<!-- Node9&#45;&gt;Node10 -->
<g id="edge1" class="edge"><title>Node9&#45;&gt;Node10</title>
<path fill="none" stroke="midnightblue" d="M93.5244,-15.5C102.053,-15.5 110.738,-15.5 118.777,-15.5"/>
<polygon fill="midnightblue" stroke="midnightblue" points="93.2514,-12.0001 83.2514,-15.5 93.2514,-19.0001 93.2514,-12.0001"/>
</g>
<!-- Node11 -->
<g id="node3" class="node"><title>Node11</title>
<g id="a_node3"><a xlink:href="classbond_1_1_bond.html#ab8a8cfc409d2842e8d9053e53d50468f" target="_top" xlink:title="Calculates the yield&#45;to&#45;maturity using the supplied solver. ">
<polygon fill="white" stroke="black" points="228,-0.5 228,-30.5 338,-30.5 338,-0.5 228,-0.5"/>
<text text-anchor="start" x="236" y="-18.5" font-family="Helvetica,sans-Serif" font-size="10.00">bond::Bond::compute</text>
<text text-anchor="middle" x="283" y="-7.5" font-family="Helvetica,sans-Serif" font-size="10.00">_yield</text>
</a>
</g>
</g>
<!-- Node10&#45;&gt;Node11 -->
<g id="edge2" class="edge"><title>Node10&#45;&gt;Node11</title>
<path fill="none" stroke="midnightblue" d="M202.393,-15.5C210.716,-15.5 219.467,-15.5 227.997,-15.5"/>
<polygon fill="midnightblue" stroke="midnightblue" points="202.128,-12.0001 192.128,-15.5 202.128,-19.0001 202.128,-12.0001"/>
</g>
</g>
</svg>
