<?xml version="1.0" encoding="UTF-8" standalone="no"?>
<!DOCTYPE svg PUBLIC "-//W3C//DTD SVG 1.1//EN"
 "http://www.w3.org/Graphics/SVG/1.1/DTD/svg11.dtd">
<!-- Generated by graphviz version 2.38.0 (20140413.2041)
 -->
<!-- Title: nss::constraints_svensson Pages: 1 -->
<svg width="297pt" height="100pt"
 viewBox="0.00 0.00 297.00 99.50" xmlns="http://www.w3.org/2000/svg" xmlns:xlink="http://www.w3.org/1999/xlink">
<g id="graph0" class="graph" transform="scale(1 1) rotate(0) translate(4 95.5)">
<title>nss::constraints_svensson</title>
<polygon fill="white" stroke="none" points="-4,4 -4,-95.5 293,-95.5 293,4 -4,4"/>
<!-- Node1 -->
<g id="node1" class="node"><title>Node1</title>
<polygon fill="#bfbfbf" stroke="black" points="0,-38.5 0,-57.5 132,-57.5 132,-38.5 0,-38.5"/>
<text text-anchor="middle" x="66" y="-45.5" font-family="Helvetica,sans-Serif" font-size="10.00">nss::constraints_svensson</text>
</g>
<!-- Node2 -->
<g id="node2" class="node"><title>Node2</title>
<g id="a_node2"><a xlink:href="classbond_1_1_bond_helper.html#a160a6bba890e45968d11d887ff34e294" target="_top" xlink:title="This methods solves the bond pricing problem using prices or yields and the supplied solver...">
<polygon fill="white" stroke="black" points="168,-61 168,-91 289,-91 289,-61 168,-61"/>
<text text-anchor="start" x="176" y="-79" font-family="Helvetica,sans-Serif" font-size="10.00">bond::BondHelper::bond</text>
<text text-anchor="middle" x="228.5" y="-68" font-family="Helvetica,sans-Serif" font-size="10.00">_pricing</text>
</a>
</g>
</g>
<!-- Node1&#45;&gt;Node2 -->
<g id="edge1" class="edge"><title>Node1&#45;&gt;Node2</title>
<path fill="none" stroke="midnightblue" d="M131.661,-59.2804C143.579,-61.3596 155.975,-63.522 167.74,-65.5746"/>
<polygon fill="midnightblue" stroke="midnightblue" points="132.239,-55.8284 121.786,-57.5577 131.036,-62.7243 132.239,-55.8284"/>
</g>
<!-- Node3 -->
<g id="node3" class="node"><title>Node3</title>
<g id="a_node3"><a xlink:href="classyft_1_1_interest___rate___helper.html#a2bf0217c985329f0f32c9df92b29456c" target="_top" xlink:title="Yield Curve Fitting using interest rates and recorded periods. ">
<polygon fill="white" stroke="black" points="179.5,-0.5 179.5,-41.5 277.5,-41.5 277.5,-0.5 179.5,-0.5"/>
<text text-anchor="start" x="187.5" y="-29.5" font-family="Helvetica,sans-Serif" font-size="10.00">yft::Interest_Rate</text>
<text text-anchor="start" x="187.5" y="-18.5" font-family="Helvetica,sans-Serif" font-size="10.00">_Helper::yieldcurve</text>
<text text-anchor="middle" x="228.5" y="-7.5" font-family="Helvetica,sans-Serif" font-size="10.00">_fitting</text>
</a>
</g>
</g>
<!-- Node1&#45;&gt;Node3 -->
<g id="edge2" class="edge"><title>Node1&#45;&gt;Node3</title>
<path fill="none" stroke="midnightblue" d="M133.563,-36.8026C148.932,-34.217 164.993,-31.5152 179.397,-29.092"/>
<polygon fill="midnightblue" stroke="midnightblue" points="132.867,-33.3703 123.586,-38.4808 134.028,-40.2733 132.867,-33.3703"/>
</g>
</g>
</svg>
