<?xml version="1.0" encoding="UTF-8" standalone="no"?>
<!DOCTYPE svg PUBLIC "-//W3C//DTD SVG 1.1//EN"
 "http://www.w3.org/Graphics/SVG/1.1/DTD/svg11.dtd">
<!-- Generated by graphviz version 2.38.0 (20140413.2041)
 -->
<!-- Title: ea::solve Pages: 1 -->
<svg width="220pt" height="149pt"
 viewBox="0.00 0.00 220.00 148.50" xmlns="http://www.w3.org/2000/svg" xmlns:xlink="http://www.w3.org/1999/xlink">
<g id="graph0" class="graph" transform="scale(1 1) rotate(0) translate(4 144.5)">
<title>ea::solve</title>
<polygon fill="white" stroke="none" points="-4,4 -4,-144.5 216,-144.5 216,4 -4,4"/>
<!-- Node12 -->
<g id="node1" class="node"><title>Node12</title>
<polygon fill="#bfbfbf" stroke="black" points="0,-66.5 0,-85.5 55,-85.5 55,-66.5 0,-66.5"/>
<text text-anchor="middle" x="27.5" y="-73.5" font-family="Helvetica,sans-Serif" font-size="10.00">ea::solve</text>
</g>
<!-- Node13 -->
<g id="node2" class="node"><title>Node13</title>
<g id="a_node2"><a xlink:href="classbond_1_1_bond_helper.html#a160a6bba890e45968d11d887ff34e294" target="_top" xlink:title="This methods solves the bond pricing problem using prices or yields and the supplied solver...">
<polygon fill="white" stroke="black" points="91,-110 91,-140 212,-140 212,-110 91,-110"/>
<text text-anchor="start" x="99" y="-128" font-family="Helvetica,sans-Serif" font-size="10.00">bond::BondHelper::bond</text>
<text text-anchor="middle" x="151.5" y="-117" font-family="Helvetica,sans-Serif" font-size="10.00">_pricing</text>
</a>
</g>
</g>
<!-- Node12&#45;&gt;Node13 -->
<g id="edge1" class="edge"><title>Node12&#45;&gt;Node13</title>
<path fill="none" stroke="midnightblue" d="M61.6931,-89.3317C77.5001,-95.6804 96.4765,-103.302 112.822,-109.867"/>
<polygon fill="midnightblue" stroke="midnightblue" points="62.8964,-86.0433 52.3124,-85.564 60.2875,-92.5389 62.8964,-86.0433"/>
</g>
<!-- Node14 -->
<g id="node3" class="node"><title>Node14</title>
<g id="a_node3"><a xlink:href="classbond_1_1_bond.html#ab8a8cfc409d2842e8d9053e53d50468f" target="_top" xlink:title="Calculates the yield&#45;to&#45;maturity using the supplied solver. ">
<polygon fill="white" stroke="black" points="96.5,-61 96.5,-91 206.5,-91 206.5,-61 96.5,-61"/>
<text text-anchor="start" x="104.5" y="-79" font-family="Helvetica,sans-Serif" font-size="10.00">bond::Bond::compute</text>
<text text-anchor="middle" x="151.5" y="-68" font-family="Helvetica,sans-Serif" font-size="10.00">_yield</text>
</a>
</g>
</g>
<!-- Node12&#45;&gt;Node14 -->
<g id="edge2" class="edge"><title>Node12&#45;&gt;Node14</title>
<path fill="none" stroke="midnightblue" d="M65.3875,-76C75.1151,-76 85.8178,-76 96.2536,-76"/>
<polygon fill="midnightblue" stroke="midnightblue" points="65.2735,-72.5001 55.2734,-76 65.2734,-79.5001 65.2735,-72.5001"/>
</g>
<!-- Node15 -->
<g id="node4" class="node"><title>Node15</title>
<g id="a_node4"><a xlink:href="classyft_1_1_interest___rate___helper.html#a2bf0217c985329f0f32c9df92b29456c" target="_top" xlink:title="Yield Curve Fitting using interest rates and recorded periods. ">
<polygon fill="white" stroke="black" points="102.5,-0.5 102.5,-41.5 200.5,-41.5 200.5,-0.5 102.5,-0.5"/>
<text text-anchor="start" x="110.5" y="-29.5" font-family="Helvetica,sans-Serif" font-size="10.00">yft::Interest_Rate</text>
<text text-anchor="start" x="110.5" y="-18.5" font-family="Helvetica,sans-Serif" font-size="10.00">_Helper::yieldcurve</text>
<text text-anchor="middle" x="151.5" y="-7.5" font-family="Helvetica,sans-Serif" font-size="10.00">_fitting</text>
</a>
</g>
</g>
<!-- Node12&#45;&gt;Node15 -->
<g id="edge3" class="edge"><title>Node12&#45;&gt;Node15</title>
<path fill="none" stroke="midnightblue" d="M58.8787,-62.3047C72.8028,-56.0274 89.6009,-48.4545 104.99,-41.5166"/>
<polygon fill="midnightblue" stroke="midnightblue" points="57.4287,-59.1191 49.7508,-66.4197 60.3057,-65.5006 57.4287,-59.1191"/>
</g>
</g>
</svg>
