<?xml version="1.0" encoding="UTF-8" standalone="no"?>
<!DOCTYPE svg PUBLIC "-//W3C//DTD SVG 1.1//EN"
 "http://www.w3.org/Graphics/SVG/1.1/DTD/svg11.dtd">
<!-- Generated by graphviz version 2.38.0 (20140413.2041)
 -->
<!-- Title: irr::compute_discount_factor Pages: 1 -->
<svg width="546pt" height="127pt"
 viewBox="0.00 0.00 546.00 127.00" xmlns="http://www.w3.org/2000/svg" xmlns:xlink="http://www.w3.org/1999/xlink">
<g id="graph0" class="graph" transform="scale(1 1) rotate(0) translate(4 123)">
<title>irr::compute_discount_factor</title>
<polygon fill="white" stroke="none" points="-4,4 -4,-123 542,-123 542,4 -4,4"/>
<!-- Node1 -->
<g id="node1" class="node"><title>Node1</title>
<polygon fill="#bfbfbf" stroke="black" points="0,-44.5 0,-74.5 110,-74.5 110,-44.5 0,-44.5"/>
<text text-anchor="start" x="8" y="-62.5" font-family="Helvetica,sans-Serif" font-size="10.00">irr::compute_discount</text>
<text text-anchor="middle" x="55" y="-51.5" font-family="Helvetica,sans-Serif" font-size="10.00">_factor</text>
</g>
<!-- Node2 -->
<g id="node2" class="node"><title>Node2</title>
<g id="a_node2"><a xlink:href="classbond_1_1_bond.html#a57f98f3e281876089945e08457ce6bc6" target="_top" xlink:title="Calculates the Macaulay duration of the bond. ">
<polygon fill="white" stroke="black" points="159.5,-88.5 159.5,-118.5 269.5,-118.5 269.5,-88.5 159.5,-88.5"/>
<text text-anchor="start" x="167.5" y="-106.5" font-family="Helvetica,sans-Serif" font-size="10.00">bond::Bond::compute</text>
<text text-anchor="middle" x="214.5" y="-95.5" font-family="Helvetica,sans-Serif" font-size="10.00">_macaulay_duration</text>
</a>
</g>
</g>
<!-- Node1&#45;&gt;Node2 -->
<g id="edge1" class="edge"><title>Node1&#45;&gt;Node2</title>
<path fill="none" stroke="midnightblue" d="M119.758,-77.3118C133.014,-81.015 146.858,-84.8827 159.713,-88.4738"/>
<polygon fill="midnightblue" stroke="midnightblue" points="120.335,-73.839 109.762,-74.5192 118.452,-80.5809 120.335,-73.839"/>
</g>
<!-- Node3 -->
<g id="node3" class="node"><title>Node3</title>
<g id="a_node3"><a xlink:href="namespaceirr.html#ac3411cd2ad174f399c525d8d17dcdad0" target="_top" xlink:title="Returns the present value of an investment. ">
<polygon fill="white" stroke="black" points="173,-50 173,-69 256,-69 256,-50 173,-50"/>
<text text-anchor="middle" x="214.5" y="-57" font-family="Helvetica,sans-Serif" font-size="10.00">irr::compute_pv</text>
</a>
</g>
</g>
<!-- Node1&#45;&gt;Node3 -->
<g id="edge2" class="edge"><title>Node1&#45;&gt;Node3</title>
<path fill="none" stroke="midnightblue" d="M120.446,-59.5C138.086,-59.5 156.717,-59.5 172.636,-59.5"/>
<polygon fill="midnightblue" stroke="midnightblue" points="120.203,-56.0001 110.203,-59.5 120.203,-63.0001 120.203,-56.0001"/>
</g>
<!-- Node6 -->
<g id="node6" class="node"><title>Node6</title>
<g id="a_node6"><a xlink:href="classbond_1_1_bond_helper.html#a1288528021e7c60e3a1435d39ad8611d" target="_top" xlink:title="Returns the bond prices using the estimated spot interest rates computed with svensson. ">
<polygon fill="white" stroke="black" points="146,-0.5 146,-30.5 283,-30.5 283,-0.5 146,-0.5"/>
<text text-anchor="start" x="154" y="-18.5" font-family="Helvetica,sans-Serif" font-size="10.00">bond::BondHelper::estimate</text>
<text text-anchor="middle" x="214.5" y="-7.5" font-family="Helvetica,sans-Serif" font-size="10.00">_bond_pricing</text>
</a>
</g>
</g>
<!-- Node1&#45;&gt;Node6 -->
<g id="edge5" class="edge"><title>Node1&#45;&gt;Node6</title>
<path fill="none" stroke="midnightblue" d="M119.758,-41.6882C133.014,-37.985 146.858,-34.1173 159.713,-30.5262"/>
<polygon fill="midnightblue" stroke="midnightblue" points="118.452,-38.4191 109.762,-44.4808 120.335,-45.161 118.452,-38.4191"/>
</g>
<!-- Node4 -->
<g id="node4" class="node"><title>Node4</title>
<g id="a_node4"><a xlink:href="namespaceirr.html#aced01c5e5ef9e171a3b892275d442f8d" target="_top" xlink:title="This is the fitness function for finding the internal rate of return of a bond, in this case it is eq...">
<polygon fill="white" stroke="black" points="319,-50 319,-69 392,-69 392,-50 319,-50"/>
<text text-anchor="middle" x="355.5" y="-57" font-family="Helvetica,sans-Serif" font-size="10.00">irr::fitness_irr</text>
</a>
</g>
</g>
<!-- Node3&#45;&gt;Node4 -->
<g id="edge3" class="edge"><title>Node3&#45;&gt;Node4</title>
<path fill="none" stroke="midnightblue" d="M266.132,-59.5C283.609,-59.5 302.809,-59.5 318.834,-59.5"/>
<polygon fill="midnightblue" stroke="midnightblue" points="266.078,-56.0001 256.078,-59.5 266.078,-63.0001 266.078,-56.0001"/>
</g>
<!-- Node5 -->
<g id="node5" class="node"><title>Node5</title>
<g id="a_node5"><a xlink:href="classbond_1_1_bond.html#ab8a8cfc409d2842e8d9053e53d50468f" target="_top" xlink:title="Calculates the yield&#45;to&#45;maturity using the supplied solver. ">
<polygon fill="white" stroke="black" points="428,-44.5 428,-74.5 538,-74.5 538,-44.5 428,-44.5"/>
<text text-anchor="start" x="436" y="-62.5" font-family="Helvetica,sans-Serif" font-size="10.00">bond::Bond::compute</text>
<text text-anchor="middle" x="483" y="-51.5" font-family="Helvetica,sans-Serif" font-size="10.00">_yield</text>
</a>
</g>
</g>
<!-- Node4&#45;&gt;Node5 -->
<g id="edge4" class="edge"><title>Node4&#45;&gt;Node5</title>
<path fill="none" stroke="midnightblue" d="M402.393,-59.5C410.716,-59.5 419.467,-59.5 427.997,-59.5"/>
<polygon fill="midnightblue" stroke="midnightblue" points="402.128,-56.0001 392.128,-59.5 402.128,-63.0001 402.128,-56.0001"/>
</g>
</g>
</svg>
