<?xml version="1.0" encoding="UTF-8" standalone="no"?>
<!DOCTYPE svg PUBLIC "-//W3C//DTD SVG 1.1//EN"
 "http://www.w3.org/Graphics/SVG/1.1/DTD/svg11.dtd">
<!-- Generated by graphviz version 2.38.0 (20140413.2041)
 -->
<!-- Title: ea::generator Pages: 1 -->
<svg width="272pt" height="455pt"
 viewBox="0.00 0.00 272.00 454.50" xmlns="http://www.w3.org/2000/svg" xmlns:xlink="http://www.w3.org/1999/xlink">
<g id="graph0" class="graph" transform="scale(1 1) rotate(0) translate(4 450.5)">
<title>ea::generator</title>
<polygon fill="white" stroke="none" points="-4,4 -4,-450.5 268,-450.5 268,4 -4,4"/>
<!-- Node1 -->
<g id="node1" class="node"><title>Node1</title>
<polygon fill="#bfbfbf" stroke="black" points="0,-225.5 0,-244.5 74,-244.5 74,-225.5 0,-225.5"/>
<text text-anchor="middle" x="37" y="-232.5" font-family="Helvetica,sans-Serif" font-size="10.00">ea::generator</text>
</g>
<!-- Node2 -->
<g id="node2" class="node"><title>Node2</title>
<g id="a_node2"><a xlink:href="classea_1_1_solver_3_01_d_e_00_01_t_00_01_f_00_01_c_01_4.html#a69dabdddba116ddb5685355119bd77e0" target="_top" xlink:title="Method that constructs the donor vector. ">
<polygon fill="white" stroke="black" points="125.5,-416 125.5,-446 248.5,-446 248.5,-416 125.5,-416"/>
<text text-anchor="start" x="133.5" y="-434" font-family="Helvetica,sans-Serif" font-size="10.00">ea::Solver&lt; DE, T,</text>
<text text-anchor="middle" x="187" y="-423" font-family="Helvetica,sans-Serif" font-size="10.00"> F, C &gt;::construct_donor</text>
</a>
</g>
</g>
<!-- Node1&#45;&gt;Node2 -->
<g id="edge1" class="edge"><title>Node1&#45;&gt;Node2</title>
<path fill="none" stroke="midnightblue" d="M40.7956,-254.909C46.8486,-290.558 64.4899,-365.435 110,-407 114.495,-411.106 119.691,-414.509 125.212,-417.33"/>
<polygon fill="midnightblue" stroke="midnightblue" points="44.2188,-254.145 39.2168,-244.806 37.3027,-255.226 44.2188,-254.145"/>
</g>
<!-- Node3 -->
<g id="node3" class="node"><title>Node3</title>
<g id="a_node3"><a xlink:href="classea_1_1_solver_3_01_d_e_00_01_t_00_01_f_00_01_c_01_4.html#a043f8134c53f09519283b8320d7a2ade" target="_top" xlink:title="Method that constructs the trial vector. ">
<polygon fill="white" stroke="black" points="129.5,-367 129.5,-397 244.5,-397 244.5,-367 129.5,-367"/>
<text text-anchor="start" x="137.5" y="-385" font-family="Helvetica,sans-Serif" font-size="10.00">ea::Solver&lt; DE, T,</text>
<text text-anchor="middle" x="187" y="-374" font-family="Helvetica,sans-Serif" font-size="10.00"> F, C &gt;::construct_trial</text>
</a>
</g>
</g>
<!-- Node1&#45;&gt;Node3 -->
<g id="edge2" class="edge"><title>Node1&#45;&gt;Node3</title>
<path fill="none" stroke="midnightblue" d="M44.1927,-254.095C53.9229,-281.129 75.3405,-330.34 110,-358 115.732,-362.574 122.348,-366.283 129.236,-369.289"/>
<polygon fill="midnightblue" stroke="midnightblue" points="47.4913,-252.925 40.932,-244.604 40.8711,-255.199 47.4913,-252.925"/>
</g>
<!-- Node4 -->
<g id="node4" class="node"><title>Node4</title>
<g id="a_node4"><a xlink:href="classea_1_1_solver_3_01_g_a_00_01_t_00_01_f_00_01_c_01_4.html#ad197350b0ef8bc73293fe31978702f02" target="_top" xlink:title="Crossover step of GA. ">
<polygon fill="white" stroke="black" points="138.5,-318 138.5,-348 235.5,-348 235.5,-318 138.5,-318"/>
<text text-anchor="start" x="146.5" y="-336" font-family="Helvetica,sans-Serif" font-size="10.00">ea::Solver&lt; GA, T,</text>
<text text-anchor="middle" x="187" y="-325" font-family="Helvetica,sans-Serif" font-size="10.00"> F, C &gt;::crossover</text>
</a>
</g>
</g>
<!-- Node1&#45;&gt;Node4 -->
<g id="edge3" class="edge"><title>Node1&#45;&gt;Node4</title>
<path fill="none" stroke="midnightblue" d="M51.2431,-253.035C64.4092,-269.764 86.0544,-294.237 110,-309 118.598,-314.301 128.472,-318.53 138.196,-321.868"/>
<polygon fill="midnightblue" stroke="midnightblue" points="53.6904,-250.472 44.8402,-244.648 48.1266,-254.72 53.6904,-250.472"/>
</g>
<!-- Node5 -->
<g id="node5" class="node"><title>Node5</title>
<g id="a_node5"><a xlink:href="classea_1_1_solver_3_01_p_s_os_00_01_t_00_01_f_00_01_c_01_4.html#a01ea94eec2b6f05c62c9f83d725bb75b" target="_top" xlink:title="This method generates r1 and r2 for the velocity update rule. ">
<polygon fill="white" stroke="black" points="132.5,-269 132.5,-299 241.5,-299 241.5,-269 132.5,-269"/>
<text text-anchor="start" x="140.5" y="-287" font-family="Helvetica,sans-Serif" font-size="10.00">ea::Solver&lt; PSOs, T,</text>
<text text-anchor="middle" x="187" y="-276" font-family="Helvetica,sans-Serif" font-size="10.00"> F, C &gt;::generate_r</text>
</a>
</g>
</g>
<!-- Node1&#45;&gt;Node5 -->
<g id="edge4" class="edge"><title>Node1&#45;&gt;Node5</title>
<path fill="none" stroke="midnightblue" d="M74.5456,-247.914C85.8852,-251.861 98.4397,-256.169 110,-260 118.931,-262.96 128.48,-266.041 137.688,-268.97"/>
<polygon fill="midnightblue" stroke="midnightblue" points="75.5437,-244.555 64.9488,-244.56 73.2341,-251.163 75.5437,-244.555"/>
</g>
<!-- Node6 -->
<g id="node6" class="node"><title>Node6</title>
<g id="a_node6"><a xlink:href="classea_1_1_solver_3_01_g_a_00_01_t_00_01_f_00_01_c_01_4.html#adde7de03b3c72d6b491a566699b6a4e4" target="_top" xlink:title="Mutation step of GA. ">
<polygon fill="white" stroke="black" points="138.5,-220 138.5,-250 235.5,-250 235.5,-220 138.5,-220"/>
<text text-anchor="start" x="146.5" y="-238" font-family="Helvetica,sans-Serif" font-size="10.00">ea::Solver&lt; GA, T,</text>
<text text-anchor="middle" x="187" y="-227" font-family="Helvetica,sans-Serif" font-size="10.00"> F, C &gt;::mutation</text>
</a>
</g>
</g>
<!-- Node1&#45;&gt;Node6 -->
<g id="edge5" class="edge"><title>Node1&#45;&gt;Node6</title>
<path fill="none" stroke="midnightblue" d="M84.5542,-235C101.717,-235 121.174,-235 138.426,-235"/>
<polygon fill="midnightblue" stroke="midnightblue" points="84.2049,-231.5 74.2049,-235 84.2048,-238.5 84.2049,-231.5"/>
</g>
<!-- Node7 -->
<g id="node7" class="node"><title>Node7</title>
<g id="a_node7"><a xlink:href="classea_1_1_solver_3_01_p_s_ol_00_01_t_00_01_f_00_01_c_01_4.html#a9f20cae513cb6a44dddc59ef43ee206f" target="_top" xlink:title="Position update of the particles. ">
<polygon fill="white" stroke="black" points="126,-171 126,-201 248,-201 248,-171 126,-171"/>
<text text-anchor="start" x="134" y="-189" font-family="Helvetica,sans-Serif" font-size="10.00">ea::Solver&lt; PSOl, T,</text>
<text text-anchor="middle" x="187" y="-178" font-family="Helvetica,sans-Serif" font-size="10.00"> F, C &gt;::position_update</text>
</a>
</g>
</g>
<!-- Node1&#45;&gt;Node7 -->
<g id="edge6" class="edge"><title>Node1&#45;&gt;Node7</title>
<path fill="none" stroke="midnightblue" d="M76.3727,-222.178C87.2403,-218.555 99.0827,-214.615 110,-211 119.758,-207.769 130.224,-204.317 140.175,-201.042"/>
<polygon fill="midnightblue" stroke="midnightblue" points="75.0994,-218.913 66.7208,-225.398 77.3145,-225.553 75.0994,-218.913"/>
</g>
<!-- Node8 -->
<g id="node8" class="node"><title>Node8</title>
<g id="a_node8"><a xlink:href="classea_1_1_solver__base.html#a865cea7e218b633b440b88fa09e48466" target="_top" xlink:title="Returns a randomised individual using the initial decision variables and standard deviation...">
<polygon fill="white" stroke="black" points="110,-110.5 110,-151.5 264,-151.5 264,-110.5 110,-110.5"/>
<text text-anchor="start" x="118" y="-139.5" font-family="Helvetica,sans-Serif" font-size="10.00">ea::Solver_base&lt; Solver</text>
<text text-anchor="start" x="118" y="-128.5" font-family="Helvetica,sans-Serif" font-size="10.00">&lt; PSOl, T, F, C &gt;, PSOl,</text>
<text text-anchor="middle" x="187" y="-117.5" font-family="Helvetica,sans-Serif" font-size="10.00"> T, F, C &gt;::randomise_individual</text>
</a>
</g>
</g>
<!-- Node1&#45;&gt;Node8 -->
<g id="edge7" class="edge"><title>Node1&#45;&gt;Node8</title>
<path fill="none" stroke="midnightblue" d="M52.0059,-217.122C65.4427,-200.946 87.0331,-177.371 110,-162 115.684,-158.196 121.909,-154.728 128.271,-151.605"/>
<polygon fill="midnightblue" stroke="midnightblue" points="48.998,-215.274 45.4229,-225.248 54.4372,-219.681 48.998,-215.274"/>
</g>
<!-- Node9 -->
<g id="node9" class="node"><title>Node9</title>
<g id="a_node9"><a xlink:href="classea_1_1_solver_3_01_g_a_00_01_t_00_01_f_00_01_c_01_4.html#a1bc73c28211d7ba80665b286fbdea948" target="_top" xlink:title="Selection step of GA. ">
<polygon fill="white" stroke="black" points="138.5,-61 138.5,-91 235.5,-91 235.5,-61 138.5,-61"/>
<text text-anchor="start" x="146.5" y="-79" font-family="Helvetica,sans-Serif" font-size="10.00">ea::Solver&lt; GA, T,</text>
<text text-anchor="middle" x="187" y="-68" font-family="Helvetica,sans-Serif" font-size="10.00"> F, C &gt;::selection</text>
</a>
</g>
</g>
<!-- Node1&#45;&gt;Node9 -->
<g id="edge8" class="edge"><title>Node1&#45;&gt;Node9</title>
<path fill="none" stroke="midnightblue" d="M43.3708,-215.518C52.3669,-186.448 73.2139,-131.845 110,-101 118.089,-94.2174 128.074,-89.2586 138.115,-85.6385"/>
<polygon fill="midnightblue" stroke="midnightblue" points="39.9558,-214.725 40.4946,-225.306 46.6719,-216.698 39.9558,-214.725"/>
</g>
<!-- Node10 -->
<g id="node10" class="node"><title>Node10</title>
<g id="a_node10"><a xlink:href="classea_1_1_solver__base.html#a3d0f28385218d7d869f3217adddcf93f" target="_top" xlink:title="Constructor. ">
<polygon fill="white" stroke="black" points="124,-0.5 124,-41.5 250,-41.5 250,-0.5 124,-0.5"/>
<text text-anchor="start" x="132" y="-29.5" font-family="Helvetica,sans-Serif" font-size="10.00">ea::Solver_base&lt; Solver</text>
<text text-anchor="start" x="132" y="-18.5" font-family="Helvetica,sans-Serif" font-size="10.00">&lt; PSOl, T, F, C &gt;, PSOl,</text>
<text text-anchor="middle" x="187" y="-7.5" font-family="Helvetica,sans-Serif" font-size="10.00"> T, F, C &gt;::Solver_base</text>
</a>
</g>
</g>
<!-- Node1&#45;&gt;Node10 -->
<g id="edge9" class="edge"><title>Node1&#45;&gt;Node10</title>
<path fill="none" stroke="midnightblue" d="M40.6019,-215.223C46.4461,-178.361 63.9076,-98.67 110,-52 114.105,-47.8431 118.845,-44.2226 123.911,-41.0732"/>
<polygon fill="midnightblue" stroke="midnightblue" points="37.1262,-214.803 39.1423,-225.204 44.0525,-215.816 37.1262,-214.803"/>
</g>
</g>
</svg>
