<?xml version="1.0" encoding="UTF-8" standalone="no"?>
<!DOCTYPE svg PUBLIC "-//W3C//DTD SVG 1.1//EN"
 "http://www.w3.org/Graphics/SVG/1.1/DTD/svg11.dtd">
<!-- Generated by graphviz version 2.38.0 (20140413.2041)
 -->
<!-- Title: irr::penalty_irr Pages: 1 -->
<svg width="339pt" height="39pt"
 viewBox="0.00 0.00 339.00 39.00" xmlns="http://www.w3.org/2000/svg" xmlns:xlink="http://www.w3.org/1999/xlink">
<g id="graph0" class="graph" transform="scale(1 1) rotate(0) translate(4 35)">
<title>irr::penalty_irr</title>
<polygon fill="white" stroke="none" points="-4,4 -4,-35 335,-35 335,4 -4,4"/>
<!-- Node22 -->
<g id="node1" class="node"><title>Node22</title>
<polygon fill="#bfbfbf" stroke="black" points="0,-6 0,-25 76,-25 76,-6 0,-6"/>
<text text-anchor="middle" x="38" y="-13" font-family="Helvetica,sans-Serif" font-size="10.00">irr::penalty_irr</text>
</g>
<!-- Node23 -->
<g id="node2" class="node"><title>Node23</title>
<g id="a_node2"><a xlink:href="namespaceirr.html#aced01c5e5ef9e171a3b892275d442f8d" target="_top" xlink:title="This is the fitness function for finding the internal rate of return of a bond, in this case it is eq...">
<polygon fill="white" stroke="black" points="112,-6 112,-25 185,-25 185,-6 112,-6"/>
<text text-anchor="middle" x="148.5" y="-13" font-family="Helvetica,sans-Serif" font-size="10.00">irr::fitness_irr</text>
</a>
</g>
</g>
<!-- Node22&#45;&gt;Node23 -->
<g id="edge1" class="edge"><title>Node22&#45;&gt;Node23</title>
<path fill="none" stroke="midnightblue" d="M86.2771,-15.5C94.8158,-15.5 103.589,-15.5 111.731,-15.5"/>
<polygon fill="midnightblue" stroke="midnightblue" points="86.0361,-12.0001 76.0361,-15.5 86.036,-19.0001 86.0361,-12.0001"/>
</g>
<!-- Node24 -->
<g id="node3" class="node"><title>Node24</title>
<g id="a_node3"><a xlink:href="classbond_1_1_bond.html#ab8a8cfc409d2842e8d9053e53d50468f" target="_top" xlink:title="Calculates the yield&#45;to&#45;maturity using the supplied solver. ">
<polygon fill="white" stroke="black" points="221,-0.5 221,-30.5 331,-30.5 331,-0.5 221,-0.5"/>
<text text-anchor="start" x="229" y="-18.5" font-family="Helvetica,sans-Serif" font-size="10.00">bond::Bond::compute</text>
<text text-anchor="middle" x="276" y="-7.5" font-family="Helvetica,sans-Serif" font-size="10.00">_yield</text>
</a>
</g>
</g>
<!-- Node23&#45;&gt;Node24 -->
<g id="edge2" class="edge"><title>Node23&#45;&gt;Node24</title>
<path fill="none" stroke="midnightblue" d="M195.393,-15.5C203.716,-15.5 212.467,-15.5 220.997,-15.5"/>
<polygon fill="midnightblue" stroke="midnightblue" points="195.128,-12.0001 185.128,-15.5 195.128,-19.0001 195.128,-12.0001"/>
</g>
</g>
</svg>
