<?xml version="1.0" encoding="UTF-8" standalone="no"?>
<!DOCTYPE svg PUBLIC "-//W3C//DTD SVG 1.1//EN"
 "http://www.w3.org/Graphics/SVG/1.1/DTD/svg11.dtd">
<!-- Generated by graphviz version 2.38.0 (20140413.2041)
 -->
<!-- Title: pso_sub_swarm.h Pages: 1 -->
<svg width="626pt" height="196pt"
 viewBox="0.00 0.00 626.00 196.00" xmlns="http://www.w3.org/2000/svg" xmlns:xlink="http://www.w3.org/1999/xlink">
<g id="graph0" class="graph" transform="scale(1 1) rotate(0) translate(4 192)">
<title>pso_sub_swarm.h</title>
<polygon fill="white" stroke="none" points="-4,4 -4,-192 622,-192 622,4 -4,4"/>
<!-- Node0 -->
<g id="node1" class="node"><title>Node0</title>
<polygon fill="#bfbfbf" stroke="black" points="306.5,-168.5 306.5,-187.5 401.5,-187.5 401.5,-168.5 306.5,-168.5"/>
<text text-anchor="middle" x="354" y="-175.5" font-family="Helvetica,sans-Serif" font-size="10.00">pso_sub_swarm.h</text>
</g>
<!-- Node1 -->
<g id="node2" class="node"><title>Node1</title>
<g id="a_node2"><a xlink:href="ealgorithm__base_8h.html" target="_top" xlink:title="Classes and functions for the base of the solvers. ">
<polygon fill="white" stroke="black" points="252,-112.5 252,-131.5 348,-131.5 348,-112.5 252,-112.5"/>
<text text-anchor="middle" x="300" y="-119.5" font-family="Helvetica,sans-Serif" font-size="10.00">ealgorithm_base.h</text>
</a>
</g>
</g>
<!-- Node0&#45;&gt;Node1 -->
<g id="edge1" class="edge"><title>Node0&#45;&gt;Node1</title>
<path fill="none" stroke="midnightblue" d="M345.083,-168.083C337.22,-160.22 325.569,-148.569 316.081,-139.081"/>
<polygon fill="midnightblue" stroke="midnightblue" points="318.297,-136.347 308.751,-131.751 313.347,-141.297 318.297,-136.347"/>
</g>
<!-- Node13 -->
<g id="node14" class="node"><title>Node13</title>
<polygon fill="white" stroke="#bfbfbf" points="366.5,-112.5 366.5,-131.5 449.5,-131.5 449.5,-112.5 366.5,-112.5"/>
<text text-anchor="middle" x="408" y="-119.5" font-family="Helvetica,sans-Serif" font-size="10.00">unordered_map</text>
</g>
<!-- Node0&#45;&gt;Node13 -->
<g id="edge15" class="edge"><title>Node0&#45;&gt;Node13</title>
<path fill="none" stroke="midnightblue" d="M362.917,-168.083C370.78,-160.22 382.431,-148.569 391.919,-139.081"/>
<polygon fill="midnightblue" stroke="midnightblue" points="394.653,-141.297 399.249,-131.751 389.703,-136.347 394.653,-141.297"/>
</g>
<!-- Node2 -->
<g id="node3" class="node"><title>Node2</title>
<polygon fill="white" stroke="#bfbfbf" points="0,-0.5 0,-19.5 54,-19.5 54,-0.5 0,-0.5"/>
<text text-anchor="middle" x="27" y="-7.5" font-family="Helvetica,sans-Serif" font-size="10.00">iostream</text>
</g>
<!-- Node1&#45;&gt;Node2 -->
<g id="edge2" class="edge"><title>Node1&#45;&gt;Node2</title>
<path fill="none" stroke="midnightblue" d="M251.798,-117.096C190.396,-111.272 88.672,-98.5081 59,-76 44.0011,-64.6224 35.6023,-44.3303 31.213,-29.4367"/>
<polygon fill="midnightblue" stroke="midnightblue" points="34.5974,-28.5445 28.6884,-19.7505 27.8237,-30.31 34.5974,-28.5445"/>
</g>
<!-- Node3 -->
<g id="node4" class="node"><title>Node3</title>
<polygon fill="white" stroke="#bfbfbf" points="138,-0.5 138,-19.5 180,-19.5 180,-0.5 138,-0.5"/>
<text text-anchor="middle" x="159" y="-7.5" font-family="Helvetica,sans-Serif" font-size="10.00">vector</text>
</g>
<!-- Node1&#45;&gt;Node3 -->
<g id="edge3" class="edge"><title>Node1&#45;&gt;Node3</title>
<path fill="none" stroke="midnightblue" d="M251.917,-116.1C224.278,-110.732 191.15,-99.4972 171,-76 160.154,-63.3526 157.751,-44.1439 157.702,-29.8842"/>
<polygon fill="midnightblue" stroke="midnightblue" points="161.206,-29.8436 158.052,-19.7291 154.21,-29.6027 161.206,-29.8436"/>
</g>
<!-- Node4 -->
<g id="node5" class="node"><title>Node4</title>
<polygon fill="white" stroke="#bfbfbf" points="180,-56.5 180,-75.5 232,-75.5 232,-56.5 180,-56.5"/>
<text text-anchor="middle" x="206" y="-63.5" font-family="Helvetica,sans-Serif" font-size="10.00">assert.h</text>
</g>
<!-- Node1&#45;&gt;Node4 -->
<g id="edge4" class="edge"><title>Node1&#45;&gt;Node4</title>
<path fill="none" stroke="midnightblue" d="M284.897,-112.324C270.097,-103.822 247.306,-90.7288 230.018,-80.7975"/>
<polygon fill="midnightblue" stroke="midnightblue" points="231.48,-77.6009 221.065,-75.6545 227.993,-83.6707 231.48,-77.6009"/>
</g>
<!-- Node5 -->
<g id="node6" class="node"><title>Node5</title>
<polygon fill="white" stroke="#bfbfbf" points="250,-56.5 250,-75.5 290,-75.5 290,-56.5 250,-56.5"/>
<text text-anchor="middle" x="270" y="-63.5" font-family="Helvetica,sans-Serif" font-size="10.00">utility</text>
</g>
<!-- Node1&#45;&gt;Node5 -->
<g id="edge5" class="edge"><title>Node1&#45;&gt;Node5</title>
<path fill="none" stroke="midnightblue" d="M295.046,-112.083C290.896,-104.613 284.847,-93.7244 279.733,-84.5199"/>
<polygon fill="midnightblue" stroke="midnightblue" points="282.778,-82.7929 274.862,-75.7511 276.659,-86.1924 282.778,-82.7929"/>
</g>
<!-- Node6 -->
<g id="node7" class="node"><title>Node6</title>
<polygon fill="white" stroke="#bfbfbf" points="308,-56.5 308,-75.5 354,-75.5 354,-56.5 308,-56.5"/>
<text text-anchor="middle" x="331" y="-63.5" font-family="Helvetica,sans-Serif" font-size="10.00">chrono</text>
</g>
<!-- Node1&#45;&gt;Node6 -->
<g id="edge6" class="edge"><title>Node1&#45;&gt;Node6</title>
<path fill="none" stroke="midnightblue" d="M305.119,-112.083C309.408,-104.613 315.658,-93.7244 320.942,-84.5199"/>
<polygon fill="midnightblue" stroke="midnightblue" points="324.033,-86.1662 325.976,-75.7511 317.962,-82.6811 324.033,-86.1662"/>
</g>
<!-- Node7 -->
<g id="node8" class="node"><title>Node7</title>
<polygon fill="white" stroke="#bfbfbf" points="372.5,-56.5 372.5,-75.5 413.5,-75.5 413.5,-56.5 372.5,-56.5"/>
<text text-anchor="middle" x="393" y="-63.5" font-family="Helvetica,sans-Serif" font-size="10.00">ctime</text>
</g>
<!-- Node1&#45;&gt;Node7 -->
<g id="edge7" class="edge"><title>Node1&#45;&gt;Node7</title>
<path fill="none" stroke="midnightblue" d="M314.942,-112.324C329.585,-103.822 352.134,-90.7288 369.238,-80.7975"/>
<polygon fill="midnightblue" stroke="midnightblue" points="371.205,-83.7027 378.095,-75.6545 367.69,-77.6491 371.205,-83.7027"/>
</g>
<!-- Node8 -->
<g id="node9" class="node"><title>Node8</title>
<polygon fill="white" stroke="#bfbfbf" points="431.5,-56.5 431.5,-75.5 480.5,-75.5 480.5,-56.5 431.5,-56.5"/>
<text text-anchor="middle" x="456" y="-63.5" font-family="Helvetica,sans-Serif" font-size="10.00">random</text>
</g>
<!-- Node1&#45;&gt;Node8 -->
<g id="edge8" class="edge"><title>Node1&#45;&gt;Node8</title>
<path fill="none" stroke="midnightblue" d="M324.719,-112.444C350.848,-103.399 392.259,-89.064 421.576,-78.9158"/>
<polygon fill="midnightblue" stroke="midnightblue" points="423.092,-82.0951 431.397,-75.5164 420.802,-75.4801 423.092,-82.0951"/>
</g>
<!-- Node9 -->
<g id="node10" class="node"><title>Node9</title>
<polygon fill="white" stroke="#bfbfbf" points="498.5,-56.5 498.5,-75.5 547.5,-75.5 547.5,-56.5 498.5,-56.5"/>
<text text-anchor="middle" x="523" y="-63.5" font-family="Helvetica,sans-Serif" font-size="10.00">fstream</text>
</g>
<!-- Node1&#45;&gt;Node9 -->
<g id="edge9" class="edge"><title>Node1&#45;&gt;Node9</title>
<path fill="none" stroke="midnightblue" d="M337.584,-112.492C373.88,-104.188 430.64,-90.9745 488.169,-76.4118"/>
<polygon fill="midnightblue" stroke="midnightblue" points="489.329,-79.7284 498.157,-73.8715 487.603,-72.9444 489.329,-79.7284"/>
</g>
<!-- Node10 -->
<g id="node11" class="node"><title>Node10</title>
<polygon fill="white" stroke="#bfbfbf" points="566,-56.5 566,-75.5 618,-75.5 618,-56.5 566,-56.5"/>
<text text-anchor="middle" x="592" y="-63.5" font-family="Helvetica,sans-Serif" font-size="10.00">sstream</text>
</g>
<!-- Node1&#45;&gt;Node10 -->
<g id="edge10" class="edge"><title>Node1&#45;&gt;Node10</title>
<path fill="none" stroke="midnightblue" d="M348.192,-113.026C407.115,-103.201 504.443,-86.7112 555.756,-76.1075"/>
<polygon fill="midnightblue" stroke="midnightblue" points="556.623,-79.5017 565.679,-74.0038 555.171,-72.6539 556.623,-79.5017"/>
</g>
<!-- Node11 -->
<g id="node12" class="node"><title>Node11</title>
<g id="a_node12"><a xlink:href="utilities_8h.html" target="_top" xlink:title="Enumerations and functions used from the rest of the project. ">
<polygon fill="white" stroke="black" points="68,-56.5 68,-75.5 124,-75.5 124,-56.5 68,-56.5"/>
<text text-anchor="middle" x="96" y="-63.5" font-family="Helvetica,sans-Serif" font-size="10.00">utilities.h</text>
</a>
</g>
</g>
<!-- Node1&#45;&gt;Node11 -->
<g id="edge11" class="edge"><title>Node1&#45;&gt;Node11</title>
<path fill="none" stroke="midnightblue" d="M267.676,-112.444C231.373,-102.834 172.515,-87.2539 134.03,-77.0667"/>
<polygon fill="midnightblue" stroke="midnightblue" points="134.794,-73.6485 124.231,-74.473 133.003,-80.4155 134.794,-73.6485"/>
</g>
<!-- Node11&#45;&gt;Node2 -->
<g id="edge12" class="edge"><title>Node11&#45;&gt;Node2</title>
<path fill="none" stroke="midnightblue" d="M84.914,-56.324C74.514,-48.1849 58.7394,-35.8395 46.2784,-26.0874"/>
<polygon fill="midnightblue" stroke="midnightblue" points="48.3199,-23.2407 38.2878,-19.8339 44.0057,-28.7533 48.3199,-23.2407"/>
</g>
<!-- Node11&#45;&gt;Node3 -->
<g id="edge13" class="edge"><title>Node11&#45;&gt;Node3</title>
<path fill="none" stroke="midnightblue" d="M106.122,-56.324C115.526,-48.2631 129.744,-36.0765 141.069,-26.3695"/>
<polygon fill="midnightblue" stroke="midnightblue" points="143.379,-28.9993 148.694,-19.8339 138.823,-23.6844 143.379,-28.9993"/>
</g>
<!-- Node12 -->
<g id="node13" class="node"><title>Node12</title>
<polygon fill="white" stroke="#bfbfbf" points="72.5,-0.5 72.5,-19.5 119.5,-19.5 119.5,-0.5 72.5,-0.5"/>
<text text-anchor="middle" x="96" y="-7.5" font-family="Helvetica,sans-Serif" font-size="10.00">iterator</text>
</g>
<!-- Node11&#45;&gt;Node12 -->
<g id="edge14" class="edge"><title>Node11&#45;&gt;Node12</title>
<path fill="none" stroke="midnightblue" d="M96,-56.083C96,-49.0059 96,-38.8611 96,-29.9865"/>
<polygon fill="midnightblue" stroke="midnightblue" points="99.5001,-29.751 96,-19.7511 92.5001,-29.7511 99.5001,-29.751"/>
</g>
</g>
</svg>
