<?xml version="1.0" encoding="UTF-8" standalone="no"?>
<!DOCTYPE svg PUBLIC "-//W3C//DTD SVG 1.1//EN"
 "http://www.w3.org/Graphics/SVG/1.1/DTD/svg11.dtd">
<!-- Generated by graphviz version 2.38.0 (20140413.2041)
 -->
<!-- Title: ea::DE&lt; T &gt; Pages: 1 -->
<svg width="124pt" height="281pt"
 viewBox="0.00 0.00 124.00 281.00" xmlns="http://www.w3.org/2000/svg" xmlns:xlink="http://www.w3.org/1999/xlink">
<g id="graph0" class="graph" transform="scale(1 1) rotate(0) translate(4 277)">
<title>ea::DE&lt; T &gt;</title>
<polygon fill="white" stroke="none" points="-4,4 -4,-277 120,-277 120,4 -4,4"/>
<!-- Node0 -->
<g id="node1" class="node"><title>Node0</title>
<polygon fill="#bfbfbf" stroke="black" points="23,-0.5 23,-79.5 93,-79.5 93,-0.5 23,-0.5"/>
<text text-anchor="middle" x="58" y="-67.5" font-family="Helvetica,sans-Serif" font-size="10.00">ea::DE&lt; T &gt;</text>
<polyline fill="none" stroke="black" points="23,-60.5 93,-60.5 "/>
<text text-anchor="start" x="31" y="-48.5" font-family="Helvetica,sans-Serif" font-size="10.00">+ cr</text>
<text text-anchor="start" x="31" y="-37.5" font-family="Helvetica,sans-Serif" font-size="10.00">+ f_param</text>
<text text-anchor="start" x="31" y="-26.5" font-family="Helvetica,sans-Serif" font-size="10.00">+ type</text>
<polyline fill="none" stroke="black" points="23,-19.5 93,-19.5 "/>
<text text-anchor="start" x="31" y="-7.5" font-family="Helvetica,sans-Serif" font-size="10.00">+ DE()</text>
</g>
<!-- Node1 -->
<g id="node2" class="node"><title>Node1</title>
<g id="a_node2"><a xlink:href="structea_1_1_e_a__base.html" target="_top" xlink:title="Evolutionary algorithm stucture base. ">
<polygon fill="white" stroke="black" points="0,-116.5 0,-272.5 116,-272.5 116,-116.5 0,-116.5"/>
<text text-anchor="middle" x="58" y="-260.5" font-family="Helvetica,sans-Serif" font-size="10.00">ea::EA_base&lt; T &gt;</text>
<polyline fill="none" stroke="black" points="0,-253.5 116,-253.5 "/>
<text text-anchor="start" x="8" y="-241.5" font-family="Helvetica,sans-Serif" font-size="10.00">+ decision_variables</text>
<text text-anchor="start" x="8" y="-230.5" font-family="Helvetica,sans-Serif" font-size="10.00">+ stdev</text>
<text text-anchor="start" x="8" y="-219.5" font-family="Helvetica,sans-Serif" font-size="10.00">+ npop</text>
<text text-anchor="start" x="8" y="-208.5" font-family="Helvetica,sans-Serif" font-size="10.00">+ tol</text>
<text text-anchor="start" x="8" y="-197.5" font-family="Helvetica,sans-Serif" font-size="10.00">+ iter_max</text>
<text text-anchor="start" x="8" y="-186.5" font-family="Helvetica,sans-Serif" font-size="10.00">+ ndv</text>
<text text-anchor="start" x="8" y="-175.5" font-family="Helvetica,sans-Serif" font-size="10.00">+ use_penalty_method</text>
<text text-anchor="start" x="8" y="-164.5" font-family="Helvetica,sans-Serif" font-size="10.00">+ constraints_type</text>
<text text-anchor="start" x="8" y="-153.5" font-family="Helvetica,sans-Serif" font-size="10.00">+ print_to_output</text>
<text text-anchor="start" x="8" y="-142.5" font-family="Helvetica,sans-Serif" font-size="10.00">+ print_to_file</text>
<polyline fill="none" stroke="black" points="0,-135.5 116,-135.5 "/>
<text text-anchor="start" x="8" y="-123.5" font-family="Helvetica,sans-Serif" font-size="10.00"># EA_base()</text>
</a>
</g>
</g>
<!-- Node1&#45;&gt;Node0 -->
<g id="edge1" class="edge"><title>Node1&#45;&gt;Node0</title>
<path fill="none" stroke="midnightblue" d="M58,-106.264C58,-97.0187 58,-87.9933 58,-79.7472"/>
<polygon fill="none" stroke="midnightblue" points="54.5001,-106.356 58,-116.356 61.5001,-106.356 54.5001,-106.356"/>
</g>
</g>
</svg>
