<?xml version="1.0" encoding="UTF-8" standalone="no"?>
<!DOCTYPE svg PUBLIC "-//W3C//DTD SVG 1.1//EN"
 "http://www.w3.org/Graphics/SVG/1.1/DTD/svg11.dtd">
<!-- Generated by graphviz version 2.38.0 (20140413.2041)
 -->
<!-- Title: ea::PSOs&lt; T &gt; Pages: 1 -->
<svg width="124pt" height="325pt"
 viewBox="0.00 0.00 124.00 325.00" xmlns="http://www.w3.org/2000/svg" xmlns:xlink="http://www.w3.org/1999/xlink">
<g id="graph0" class="graph" transform="scale(1 1) rotate(0) translate(4 321)">
<title>ea::PSOs&lt; T &gt;</title>
<polygon fill="white" stroke="none" points="-4,4 -4,-321 120,-321 120,4 -4,4"/>
<!-- Node0 -->
<g id="node1" class="node"><title>Node0</title>
<polygon fill="#bfbfbf" stroke="black" points="16.5,-0.5 16.5,-123.5 99.5,-123.5 99.5,-0.5 16.5,-0.5"/>
<text text-anchor="middle" x="58" y="-111.5" font-family="Helvetica,sans-Serif" font-size="10.00">ea::PSOs&lt; T &gt;</text>
<polyline fill="none" stroke="black" points="16.5,-104.5 99.5,-104.5 "/>
<text text-anchor="start" x="24.5" y="-92.5" font-family="Helvetica,sans-Serif" font-size="10.00">+ c1</text>
<text text-anchor="start" x="24.5" y="-81.5" font-family="Helvetica,sans-Serif" font-size="10.00">+ c2</text>
<text text-anchor="start" x="24.5" y="-70.5" font-family="Helvetica,sans-Serif" font-size="10.00">+ sneigh</text>
<text text-anchor="start" x="24.5" y="-59.5" font-family="Helvetica,sans-Serif" font-size="10.00">+ w</text>
<text text-anchor="start" x="24.5" y="-48.5" font-family="Helvetica,sans-Serif" font-size="10.00">+ alpha</text>
<text text-anchor="start" x="24.5" y="-37.5" font-family="Helvetica,sans-Serif" font-size="10.00">+ vmax</text>
<text text-anchor="start" x="24.5" y="-26.5" font-family="Helvetica,sans-Serif" font-size="10.00">+ type</text>
<polyline fill="none" stroke="black" points="16.5,-19.5 99.5,-19.5 "/>
<text text-anchor="start" x="24.5" y="-7.5" font-family="Helvetica,sans-Serif" font-size="10.00">+ PSOs()</text>
</g>
<!-- Node1 -->
<g id="node2" class="node"><title>Node1</title>
<g id="a_node2"><a xlink:href="structea_1_1_e_a__base.html" target="_top" xlink:title="Evolutionary algorithm stucture base. ">
<polygon fill="white" stroke="black" points="0,-160.5 0,-316.5 116,-316.5 116,-160.5 0,-160.5"/>
<text text-anchor="middle" x="58" y="-304.5" font-family="Helvetica,sans-Serif" font-size="10.00">ea::EA_base&lt; T &gt;</text>
<polyline fill="none" stroke="black" points="0,-297.5 116,-297.5 "/>
<text text-anchor="start" x="8" y="-285.5" font-family="Helvetica,sans-Serif" font-size="10.00">+ decision_variables</text>
<text text-anchor="start" x="8" y="-274.5" font-family="Helvetica,sans-Serif" font-size="10.00">+ stdev</text>
<text text-anchor="start" x="8" y="-263.5" font-family="Helvetica,sans-Serif" font-size="10.00">+ npop</text>
<text text-anchor="start" x="8" y="-252.5" font-family="Helvetica,sans-Serif" font-size="10.00">+ tol</text>
<text text-anchor="start" x="8" y="-241.5" font-family="Helvetica,sans-Serif" font-size="10.00">+ iter_max</text>
<text text-anchor="start" x="8" y="-230.5" font-family="Helvetica,sans-Serif" font-size="10.00">+ ndv</text>
<text text-anchor="start" x="8" y="-219.5" font-family="Helvetica,sans-Serif" font-size="10.00">+ use_penalty_method</text>
<text text-anchor="start" x="8" y="-208.5" font-family="Helvetica,sans-Serif" font-size="10.00">+ constraints_type</text>
<text text-anchor="start" x="8" y="-197.5" font-family="Helvetica,sans-Serif" font-size="10.00">+ print_to_output</text>
<text text-anchor="start" x="8" y="-186.5" font-family="Helvetica,sans-Serif" font-size="10.00">+ print_to_file</text>
<polyline fill="none" stroke="black" points="0,-179.5 116,-179.5 "/>
<text text-anchor="start" x="8" y="-167.5" font-family="Helvetica,sans-Serif" font-size="10.00"># EA_base()</text>
</a>
</g>
</g>
<!-- Node1&#45;&gt;Node0 -->
<g id="edge1" class="edge"><title>Node1&#45;&gt;Node0</title>
<path fill="none" stroke="midnightblue" d="M58,-150.302C58,-141.291 58,-132.28 58,-123.653"/>
<polygon fill="none" stroke="midnightblue" points="54.5001,-150.454 58,-160.454 61.5001,-150.454 54.5001,-150.454"/>
</g>
</g>
</svg>
