<?xml version="1.0" encoding="UTF-8" standalone="no"?>
<!DOCTYPE svg PUBLIC "-//W3C//DTD SVG 1.1//EN"
 "http://www.w3.org/Graphics/SVG/1.1/DTD/svg11.dtd">
<!-- Generated by graphviz version 2.38.0 (20140413.2041)
 -->
<!-- Title: ea::GA&lt; T &gt; Pages: 1 -->
<svg width="124pt" height="303pt"
 viewBox="0.00 0.00 124.00 303.00" xmlns="http://www.w3.org/2000/svg" xmlns:xlink="http://www.w3.org/1999/xlink">
<g id="graph0" class="graph" transform="scale(1 1) rotate(0) translate(4 299)">
<title>ea::GA&lt; T &gt;</title>
<polygon fill="white" stroke="none" points="-4,4 -4,-299 120,-299 120,4 -4,4"/>
<!-- Node0 -->
<g id="node1" class="node"><title>Node0</title>
<polygon fill="#bfbfbf" stroke="black" points="22.5,-0.5 22.5,-101.5 93.5,-101.5 93.5,-0.5 22.5,-0.5"/>
<text text-anchor="middle" x="58" y="-89.5" font-family="Helvetica,sans-Serif" font-size="10.00">ea::GA&lt; T &gt;</text>
<polyline fill="none" stroke="black" points="22.5,-82.5 93.5,-82.5 "/>
<text text-anchor="start" x="30.5" y="-70.5" font-family="Helvetica,sans-Serif" font-size="10.00">+ x_rate</text>
<text text-anchor="start" x="30.5" y="-59.5" font-family="Helvetica,sans-Serif" font-size="10.00">+ pi</text>
<text text-anchor="start" x="30.5" y="-48.5" font-family="Helvetica,sans-Serif" font-size="10.00">+ alpha</text>
<text text-anchor="start" x="30.5" y="-37.5" font-family="Helvetica,sans-Serif" font-size="10.00">+ strategy</text>
<text text-anchor="start" x="30.5" y="-26.5" font-family="Helvetica,sans-Serif" font-size="10.00">+ type</text>
<polyline fill="none" stroke="black" points="22.5,-19.5 93.5,-19.5 "/>
<text text-anchor="start" x="30.5" y="-7.5" font-family="Helvetica,sans-Serif" font-size="10.00">+ GA()</text>
</g>
<!-- Node1 -->
<g id="node2" class="node"><title>Node1</title>
<g id="a_node2"><a xlink:href="structea_1_1_e_a__base.html" target="_top" xlink:title="Evolutionary algorithm stucture base. ">
<polygon fill="white" stroke="black" points="0,-138.5 0,-294.5 116,-294.5 116,-138.5 0,-138.5"/>
<text text-anchor="middle" x="58" y="-282.5" font-family="Helvetica,sans-Serif" font-size="10.00">ea::EA_base&lt; T &gt;</text>
<polyline fill="none" stroke="black" points="0,-275.5 116,-275.5 "/>
<text text-anchor="start" x="8" y="-263.5" font-family="Helvetica,sans-Serif" font-size="10.00">+ decision_variables</text>
<text text-anchor="start" x="8" y="-252.5" font-family="Helvetica,sans-Serif" font-size="10.00">+ stdev</text>
<text text-anchor="start" x="8" y="-241.5" font-family="Helvetica,sans-Serif" font-size="10.00">+ npop</text>
<text text-anchor="start" x="8" y="-230.5" font-family="Helvetica,sans-Serif" font-size="10.00">+ tol</text>
<text text-anchor="start" x="8" y="-219.5" font-family="Helvetica,sans-Serif" font-size="10.00">+ iter_max</text>
<text text-anchor="start" x="8" y="-208.5" font-family="Helvetica,sans-Serif" font-size="10.00">+ ndv</text>
<text text-anchor="start" x="8" y="-197.5" font-family="Helvetica,sans-Serif" font-size="10.00">+ use_penalty_method</text>
<text text-anchor="start" x="8" y="-186.5" font-family="Helvetica,sans-Serif" font-size="10.00">+ constraints_type</text>
<text text-anchor="start" x="8" y="-175.5" font-family="Helvetica,sans-Serif" font-size="10.00">+ print_to_output</text>
<text text-anchor="start" x="8" y="-164.5" font-family="Helvetica,sans-Serif" font-size="10.00">+ print_to_file</text>
<polyline fill="none" stroke="black" points="0,-157.5 116,-157.5 "/>
<text text-anchor="start" x="8" y="-145.5" font-family="Helvetica,sans-Serif" font-size="10.00"># EA_base()</text>
</a>
</g>
</g>
<!-- Node1&#45;&gt;Node0 -->
<g id="edge1" class="edge"><title>Node1&#45;&gt;Node0</title>
<path fill="none" stroke="midnightblue" d="M58,-127.897C58,-118.911 58,-110.02 58,-101.661"/>
<polygon fill="none" stroke="midnightblue" points="54.5001,-128.059 58,-138.059 61.5001,-128.059 54.5001,-128.059"/>
</g>
</g>
</svg>
