<?xml version="1.0" encoding="UTF-8" standalone="no"?>
<!DOCTYPE svg PUBLIC "-//W3C//DTD SVG 1.1//EN"
 "http://www.w3.org/Graphics/SVG/1.1/DTD/svg11.dtd">
<!-- Generated by graphviz version 2.38.0 (20140413.2041)
 -->
<!-- Title: ea::EA_base&lt; T &gt; Pages: 1 -->
<svg width="368pt" height="325pt"
 viewBox="0.00 0.00 367.50 325.00" xmlns="http://www.w3.org/2000/svg" xmlns:xlink="http://www.w3.org/1999/xlink">
<g id="graph0" class="graph" transform="scale(1 1) rotate(0) translate(4 321)">
<title>ea::EA_base&lt; T &gt;</title>
<polygon fill="white" stroke="none" points="-4,4 -4,-321 363.5,-321 363.5,4 -4,4"/>
<!-- Node0 -->
<g id="node1" class="node"><title>Node0</title>
<polygon fill="#bfbfbf" stroke="black" points="113,-160.5 113,-316.5 229,-316.5 229,-160.5 113,-160.5"/>
<text text-anchor="middle" x="171" y="-304.5" font-family="Helvetica,sans-Serif" font-size="10.00">ea::EA_base&lt; T &gt;</text>
<polyline fill="none" stroke="black" points="113,-297.5 229,-297.5 "/>
<text text-anchor="start" x="121" y="-285.5" font-family="Helvetica,sans-Serif" font-size="10.00">+ decision_variables</text>
<text text-anchor="start" x="121" y="-274.5" font-family="Helvetica,sans-Serif" font-size="10.00">+ stdev</text>
<text text-anchor="start" x="121" y="-263.5" font-family="Helvetica,sans-Serif" font-size="10.00">+ npop</text>
<text text-anchor="start" x="121" y="-252.5" font-family="Helvetica,sans-Serif" font-size="10.00">+ tol</text>
<text text-anchor="start" x="121" y="-241.5" font-family="Helvetica,sans-Serif" font-size="10.00">+ iter_max</text>
<text text-anchor="start" x="121" y="-230.5" font-family="Helvetica,sans-Serif" font-size="10.00">+ ndv</text>
<text text-anchor="start" x="121" y="-219.5" font-family="Helvetica,sans-Serif" font-size="10.00">+ use_penalty_method</text>
<text text-anchor="start" x="121" y="-208.5" font-family="Helvetica,sans-Serif" font-size="10.00">+ constraints_type</text>
<text text-anchor="start" x="121" y="-197.5" font-family="Helvetica,sans-Serif" font-size="10.00">+ print_to_output</text>
<text text-anchor="start" x="121" y="-186.5" font-family="Helvetica,sans-Serif" font-size="10.00">+ print_to_file</text>
<polyline fill="none" stroke="black" points="113,-179.5 229,-179.5 "/>
<text text-anchor="start" x="121" y="-167.5" font-family="Helvetica,sans-Serif" font-size="10.00"># EA_base()</text>
</g>
<!-- Node1 -->
<g id="node2" class="node"><title>Node1</title>
<g id="a_node2"><a xlink:href="structea_1_1_d_e.html" target="_top" xlink:title="Differential Evolution Structure, used in the actual algorithm and for type deduction. ">
<polygon fill="white" stroke="black" points="0,-22.5 0,-101.5 70,-101.5 70,-22.5 0,-22.5"/>
<text text-anchor="middle" x="35" y="-89.5" font-family="Helvetica,sans-Serif" font-size="10.00">ea::DE&lt; T &gt;</text>
<polyline fill="none" stroke="black" points="0,-82.5 70,-82.5 "/>
<text text-anchor="start" x="8" y="-70.5" font-family="Helvetica,sans-Serif" font-size="10.00">+ cr</text>
<text text-anchor="start" x="8" y="-59.5" font-family="Helvetica,sans-Serif" font-size="10.00">+ f_param</text>
<text text-anchor="start" x="8" y="-48.5" font-family="Helvetica,sans-Serif" font-size="10.00">+ type</text>
<polyline fill="none" stroke="black" points="0,-41.5 70,-41.5 "/>
<text text-anchor="start" x="8" y="-29.5" font-family="Helvetica,sans-Serif" font-size="10.00">+ DE()</text>
</a>
</g>
</g>
<!-- Node0&#45;&gt;Node1 -->
<g id="edge1" class="edge"><title>Node0&#45;&gt;Node1</title>
<path fill="none" stroke="midnightblue" d="M106.515,-159.115C97.1769,-147.427 87.7653,-135.458 79,-124 73.5257,-116.844 67.8059,-109.114 62.3707,-101.639"/>
<polygon fill="none" stroke="midnightblue" points="103.973,-161.539 112.959,-167.151 109.434,-157.16 103.973,-161.539"/>
</g>
<!-- Node2 -->
<g id="node3" class="node"><title>Node2</title>
<g id="a_node3"><a xlink:href="structea_1_1_g_a.html" target="_top" xlink:title="Genetic Algorithms Structure, used in the actual algorithm and for type deduction. ">
<polygon fill="white" stroke="black" points="88.5,-11.5 88.5,-112.5 159.5,-112.5 159.5,-11.5 88.5,-11.5"/>
<text text-anchor="middle" x="124" y="-100.5" font-family="Helvetica,sans-Serif" font-size="10.00">ea::GA&lt; T &gt;</text>
<polyline fill="none" stroke="black" points="88.5,-93.5 159.5,-93.5 "/>
<text text-anchor="start" x="96.5" y="-81.5" font-family="Helvetica,sans-Serif" font-size="10.00">+ x_rate</text>
<text text-anchor="start" x="96.5" y="-70.5" font-family="Helvetica,sans-Serif" font-size="10.00">+ pi</text>
<text text-anchor="start" x="96.5" y="-59.5" font-family="Helvetica,sans-Serif" font-size="10.00">+ alpha</text>
<text text-anchor="start" x="96.5" y="-48.5" font-family="Helvetica,sans-Serif" font-size="10.00">+ strategy</text>
<text text-anchor="start" x="96.5" y="-37.5" font-family="Helvetica,sans-Serif" font-size="10.00">+ type</text>
<polyline fill="none" stroke="black" points="88.5,-30.5 159.5,-30.5 "/>
<text text-anchor="start" x="96.5" y="-18.5" font-family="Helvetica,sans-Serif" font-size="10.00">+ GA()</text>
</a>
</g>
</g>
<!-- Node0&#45;&gt;Node2 -->
<g id="edge2" class="edge"><title>Node0&#45;&gt;Node2</title>
<path fill="none" stroke="midnightblue" d="M147.57,-150.51C144.061,-137.481 140.549,-124.443 137.348,-112.56"/>
<polygon fill="none" stroke="midnightblue" points="144.268,-151.708 150.248,-160.454 151.027,-149.888 144.268,-151.708"/>
</g>
<!-- Node3 -->
<g id="node4" class="node"><title>Node3</title>
<g id="a_node4"><a xlink:href="structea_1_1_p_s_ol.html" target="_top" xlink:title="Local Best Particle Swarm Optimisation Structure, used in the actual algorithm and for type deduction...">
<polygon fill="white" stroke="black" points="178,-17 178,-107 258,-107 258,-17 178,-17"/>
<text text-anchor="middle" x="218" y="-95" font-family="Helvetica,sans-Serif" font-size="10.00">ea::PSOl&lt; T &gt;</text>
<polyline fill="none" stroke="black" points="178,-88 258,-88 "/>
<text text-anchor="start" x="186" y="-76" font-family="Helvetica,sans-Serif" font-size="10.00">+ c</text>
<text text-anchor="start" x="186" y="-65" font-family="Helvetica,sans-Serif" font-size="10.00">+ w</text>
<text text-anchor="start" x="186" y="-54" font-family="Helvetica,sans-Serif" font-size="10.00">+ vmax</text>
<text text-anchor="start" x="186" y="-43" font-family="Helvetica,sans-Serif" font-size="10.00">+ type</text>
<polyline fill="none" stroke="black" points="178,-36 258,-36 "/>
<text text-anchor="start" x="186" y="-24" font-family="Helvetica,sans-Serif" font-size="10.00">+ PSOl()</text>
</a>
</g>
</g>
<!-- Node0&#45;&gt;Node3 -->
<g id="edge3" class="edge"><title>Node0&#45;&gt;Node3</title>
<path fill="none" stroke="midnightblue" d="M194.414,-150.571C198.473,-135.5 202.536,-120.416 206.117,-107.118"/>
<polygon fill="none" stroke="midnightblue" points="190.973,-149.888 191.752,-160.454 197.732,-151.708 190.973,-149.888"/>
</g>
<!-- Node4 -->
<g id="node5" class="node"><title>Node4</title>
<g id="a_node5"><a xlink:href="structea_1_1_p_s_os.html" target="_top" xlink:title="Particle Swarm Optimisation Structure, used in the actual algorithm and for type deduction. ">
<polygon fill="white" stroke="black" points="276.5,-0.5 276.5,-123.5 359.5,-123.5 359.5,-0.5 276.5,-0.5"/>
<text text-anchor="middle" x="318" y="-111.5" font-family="Helvetica,sans-Serif" font-size="10.00">ea::PSOs&lt; T &gt;</text>
<polyline fill="none" stroke="black" points="276.5,-104.5 359.5,-104.5 "/>
<text text-anchor="start" x="284.5" y="-92.5" font-family="Helvetica,sans-Serif" font-size="10.00">+ c1</text>
<text text-anchor="start" x="284.5" y="-81.5" font-family="Helvetica,sans-Serif" font-size="10.00">+ c2</text>
<text text-anchor="start" x="284.5" y="-70.5" font-family="Helvetica,sans-Serif" font-size="10.00">+ sneigh</text>
<text text-anchor="start" x="284.5" y="-59.5" font-family="Helvetica,sans-Serif" font-size="10.00">+ w</text>
<text text-anchor="start" x="284.5" y="-48.5" font-family="Helvetica,sans-Serif" font-size="10.00">+ alpha</text>
<text text-anchor="start" x="284.5" y="-37.5" font-family="Helvetica,sans-Serif" font-size="10.00">+ vmax</text>
<text text-anchor="start" x="284.5" y="-26.5" font-family="Helvetica,sans-Serif" font-size="10.00">+ type</text>
<polyline fill="none" stroke="black" points="276.5,-19.5 359.5,-19.5 "/>
<text text-anchor="start" x="284.5" y="-7.5" font-family="Helvetica,sans-Serif" font-size="10.00">+ PSOs()</text>
</a>
</g>
</g>
<!-- Node0&#45;&gt;Node4 -->
<g id="edge4" class="edge"><title>Node0&#45;&gt;Node4</title>
<path fill="none" stroke="midnightblue" d="M235.677,-161.154C246.16,-148.745 256.89,-136.023 267,-124 270.021,-120.408 273.139,-116.694 276.275,-112.954"/>
<polygon fill="none" stroke="midnightblue" points="232.971,-158.933 229.19,-168.83 238.318,-163.451 232.971,-158.933"/>
</g>
</g>
</svg>
