<?xml version="1.0" encoding="UTF-8" standalone="no"?>
<!DOCTYPE svg PUBLIC "-//W3C//DTD SVG 1.1//EN"
 "http://www.w3.org/Graphics/SVG/1.1/DTD/svg11.dtd">
<!-- Generated by graphviz version 2.38.0 (20140413.2041)
 -->
<!-- Title: svensson.h Pages: 1 -->
<svg width="135pt" height="196pt"
 viewBox="0.00 0.00 134.50 196.00" xmlns="http://www.w3.org/2000/svg" xmlns:xlink="http://www.w3.org/1999/xlink">
<g id="graph0" class="graph" transform="scale(1 1) rotate(0) translate(4 192)">
<title>svensson.h</title>
<polygon fill="white" stroke="none" points="-4,4 -4,-192 130.5,-192 130.5,4 -4,4"/>
<!-- Node1 -->
<g id="node1" class="node"><title>Node1</title>
<polygon fill="#bfbfbf" stroke="black" points="3.5,-168.5 3.5,-187.5 68.5,-187.5 68.5,-168.5 3.5,-168.5"/>
<text text-anchor="middle" x="36" y="-175.5" font-family="Helvetica,sans-Serif" font-size="10.00">svensson.h</text>
</g>
<!-- Node2 -->
<g id="node2" class="node"><title>Node2</title>
<g id="a_node2"><a xlink:href="bondhelper_8h.html" target="_top" xlink:title="Classes and functions for the bond pricing problem. ">
<polygon fill="white" stroke="black" points="0,-56.5 0,-75.5 72,-75.5 72,-56.5 0,-56.5"/>
<text text-anchor="middle" x="36" y="-63.5" font-family="Helvetica,sans-Serif" font-size="10.00">bondhelper.h</text>
</a>
</g>
</g>
<!-- Node1&#45;&gt;Node2 -->
<g id="edge1" class="edge"><title>Node1&#45;&gt;Node2</title>
<path fill="none" stroke="midnightblue" d="M25.5421,-159.525C19.0395,-146.566 12.5234,-128.382 16,-112 18.8396,-98.619 25.9422,-84.3861 30.8698,-75.5932"/>
<polygon fill="midnightblue" stroke="midnightblue" points="22.474,-161.209 30.3463,-168.3 28.6141,-157.848 22.474,-161.209"/>
</g>
<!-- Node4 -->
<g id="node4" class="node"><title>Node4</title>
<g id="a_node4"><a xlink:href="yield__curve__fitting_8h.html" target="_top" xlink:title="Class and functions for the yield curve fitting problem. ">
<polygon fill="white" stroke="black" points="25.5,-112.5 25.5,-131.5 126.5,-131.5 126.5,-112.5 25.5,-112.5"/>
<text text-anchor="middle" x="76" y="-119.5" font-family="Helvetica,sans-Serif" font-size="10.00">yield_curve_fitting.h</text>
</a>
</g>
</g>
<!-- Node1&#45;&gt;Node4 -->
<g id="edge3" class="edge"><title>Node1&#45;&gt;Node4</title>
<path fill="none" stroke="midnightblue" d="M48.6997,-159.855C55.626,-150.505 63.9063,-139.327 69.5177,-131.751"/>
<polygon fill="midnightblue" stroke="midnightblue" points="45.745,-157.964 42.6052,-168.083 51.37,-162.131 45.745,-157.964"/>
</g>
<!-- Node3 -->
<g id="node3" class="node"><title>Node3</title>
<g id="a_node3"><a xlink:href="main_8cpp.html" target="_top" xlink:title="A showcase of the application of the solvers on the Yield Curve Fitting, Internal Rate of Return Esti...">
<polygon fill="white" stroke="black" points="8,-0.5 8,-19.5 64,-19.5 64,-0.5 8,-0.5"/>
<text text-anchor="middle" x="36" y="-7.5" font-family="Helvetica,sans-Serif" font-size="10.00">main.cpp</text>
</a>
</g>
</g>
<!-- Node2&#45;&gt;Node3 -->
<g id="edge2" class="edge"><title>Node2&#45;&gt;Node3</title>
<path fill="none" stroke="midnightblue" d="M36,-45.8045C36,-36.9102 36,-26.7798 36,-19.7511"/>
<polygon fill="midnightblue" stroke="midnightblue" points="32.5001,-46.083 36,-56.083 39.5001,-46.083 32.5001,-46.083"/>
</g>
<!-- Node4&#45;&gt;Node2 -->
<g id="edge4" class="edge"><title>Node4&#45;&gt;Node2</title>
<path fill="none" stroke="midnightblue" d="M63.3003,-103.855C56.374,-94.5048 48.0937,-83.3265 42.4823,-75.7511"/>
<polygon fill="midnightblue" stroke="midnightblue" points="60.63,-106.131 69.3948,-112.083 66.255,-101.964 60.63,-106.131"/>
</g>
</g>
</svg>
