<?xml version="1.0" encoding="UTF-8" standalone="no"?>
<!DOCTYPE svg PUBLIC "-//W3C//DTD SVG 1.1//EN"
 "http://www.w3.org/Graphics/SVG/1.1/DTD/svg11.dtd">
<!-- Generated by graphviz version 2.38.0 (20140413.2041)
 -->
<!-- Title: utilities.h Pages: 1 -->
<svg width="188pt" height="84pt"
 viewBox="0.00 0.00 187.50 84.00" xmlns="http://www.w3.org/2000/svg" xmlns:xlink="http://www.w3.org/1999/xlink">
<g id="graph0" class="graph" transform="scale(1 1) rotate(0) translate(4 80)">
<title>utilities.h</title>
<polygon fill="white" stroke="none" points="-4,4 -4,-80 183.5,-80 183.5,4 -4,4"/>
<!-- Node0 -->
<g id="node1" class="node"><title>Node0</title>
<polygon fill="#bfbfbf" stroke="black" points="65,-56.5 65,-75.5 121,-75.5 121,-56.5 65,-56.5"/>
<text text-anchor="middle" x="93" y="-63.5" font-family="Helvetica,sans-Serif" font-size="10.00">utilities.h</text>
</g>
<!-- Node1 -->
<g id="node2" class="node"><title>Node1</title>
<polygon fill="white" stroke="#bfbfbf" points="0,-0.5 0,-19.5 54,-19.5 54,-0.5 0,-0.5"/>
<text text-anchor="middle" x="27" y="-7.5" font-family="Helvetica,sans-Serif" font-size="10.00">iostream</text>
</g>
<!-- Node0&#45;&gt;Node1 -->
<g id="edge1" class="edge"><title>Node0&#45;&gt;Node1</title>
<path fill="none" stroke="midnightblue" d="M82.396,-56.324C72.5438,-48.2631 57.6491,-36.0765 45.7849,-26.3695"/>
<polygon fill="midnightblue" stroke="midnightblue" points="47.7529,-23.4575 37.797,-19.8339 43.3202,-28.8752 47.7529,-23.4575"/>
</g>
<!-- Node2 -->
<g id="node3" class="node"><title>Node2</title>
<polygon fill="white" stroke="#bfbfbf" points="72,-0.5 72,-19.5 114,-19.5 114,-0.5 72,-0.5"/>
<text text-anchor="middle" x="93" y="-7.5" font-family="Helvetica,sans-Serif" font-size="10.00">vector</text>
</g>
<!-- Node0&#45;&gt;Node2 -->
<g id="edge2" class="edge"><title>Node0&#45;&gt;Node2</title>
<path fill="none" stroke="midnightblue" d="M93,-56.083C93,-49.0059 93,-38.8611 93,-29.9865"/>
<polygon fill="midnightblue" stroke="midnightblue" points="96.5001,-29.751 93,-19.7511 89.5001,-29.7511 96.5001,-29.751"/>
</g>
<!-- Node3 -->
<g id="node4" class="node"><title>Node3</title>
<polygon fill="white" stroke="#bfbfbf" points="132.5,-0.5 132.5,-19.5 179.5,-19.5 179.5,-0.5 132.5,-0.5"/>
<text text-anchor="middle" x="156" y="-7.5" font-family="Helvetica,sans-Serif" font-size="10.00">iterator</text>
</g>
<!-- Node0&#45;&gt;Node3 -->
<g id="edge3" class="edge"><title>Node0&#45;&gt;Node3</title>
<path fill="none" stroke="midnightblue" d="M103.122,-56.324C112.526,-48.2631 126.744,-36.0765 138.069,-26.3695"/>
<polygon fill="midnightblue" stroke="midnightblue" points="140.379,-28.9993 145.694,-19.8339 135.823,-23.6844 140.379,-28.9993"/>
</g>
</g>
</svg>
