<?xml version="1.0" encoding="UTF-8" standalone="no"?>
<!DOCTYPE svg PUBLIC "-//W3C//DTD SVG 1.1//EN"
 "http://www.w3.org/Graphics/SVG/1.1/DTD/svg11.dtd">
<!-- Generated by graphviz version 2.38.0 (20140413.2041)
 -->
<!-- Title: utilities.h Pages: 1 -->
<svg width="388pt" height="252pt"
 viewBox="0.00 0.00 387.50 252.00" xmlns="http://www.w3.org/2000/svg" xmlns:xlink="http://www.w3.org/1999/xlink">
<g id="graph0" class="graph" transform="scale(1 1) rotate(0) translate(4 248)">
<title>utilities.h</title>
<polygon fill="white" stroke="none" points="-4,4 -4,-248 383.5,-248 383.5,4 -4,4"/>
<!-- Node4 -->
<g id="node1" class="node"><title>Node4</title>
<polygon fill="#bfbfbf" stroke="black" points="104,-224.5 104,-243.5 160,-243.5 160,-224.5 104,-224.5"/>
<text text-anchor="middle" x="132" y="-231.5" font-family="Helvetica,sans-Serif" font-size="10.00">utilities.h</text>
</g>
<!-- Node5 -->
<g id="node2" class="node"><title>Node5</title>
<g id="a_node2"><a xlink:href="irr_8h.html" target="_top" xlink:title="Functions for the Internal Rate of Return. ">
<polygon fill="white" stroke="black" points="73.5,-168.5 73.5,-187.5 106.5,-187.5 106.5,-168.5 73.5,-168.5"/>
<text text-anchor="middle" x="90" y="-175.5" font-family="Helvetica,sans-Serif" font-size="10.00">irr.h</text>
</a>
</g>
</g>
<!-- Node4&#45;&gt;Node5 -->
<g id="edge1" class="edge"><title>Node4&#45;&gt;Node5</title>
<path fill="none" stroke="midnightblue" d="M118.89,-216.144C111.572,-206.736 102.759,-195.405 96.8064,-187.751"/>
<polygon fill="midnightblue" stroke="midnightblue" points="116.162,-218.338 125.065,-224.083 121.688,-214.041 116.162,-218.338"/>
</g>
<!-- Node9 -->
<g id="node6" class="node"><title>Node9</title>
<g id="a_node6"><a xlink:href="ealgorithm__base_8h.html" target="_top" xlink:title="Classes and functions for the base of the solvers. ">
<polygon fill="white" stroke="black" points="126,-168.5 126,-187.5 222,-187.5 222,-168.5 126,-168.5"/>
<text text-anchor="middle" x="174" y="-175.5" font-family="Helvetica,sans-Serif" font-size="10.00">ealgorithm_base.h</text>
</a>
</g>
</g>
<!-- Node4&#45;&gt;Node9 -->
<g id="edge5" class="edge"><title>Node4&#45;&gt;Node9</title>
<path fill="none" stroke="midnightblue" d="M145.11,-216.144C152.428,-206.736 161.241,-195.405 167.194,-187.751"/>
<polygon fill="midnightblue" stroke="midnightblue" points="142.312,-214.041 138.935,-224.083 147.838,-218.338 142.312,-214.041"/>
</g>
<!-- Node6 -->
<g id="node3" class="node"><title>Node6</title>
<g id="a_node3"><a xlink:href="bond_8h.html" target="_top" xlink:title="Classes and functions for bonds and their internal rate of return. ">
<polygon fill="white" stroke="black" points="64,-112.5 64,-131.5 110,-131.5 110,-112.5 64,-112.5"/>
<text text-anchor="middle" x="87" y="-119.5" font-family="Helvetica,sans-Serif" font-size="10.00">bond.h</text>
</a>
</g>
</g>
<!-- Node5&#45;&gt;Node6 -->
<g id="edge2" class="edge"><title>Node5&#45;&gt;Node6</title>
<path fill="none" stroke="midnightblue" d="M88.9336,-157.805C88.4395,-148.91 87.8767,-138.78 87.4862,-131.751"/>
<polygon fill="midnightblue" stroke="midnightblue" points="85.4552,-158.293 89.5046,-168.083 92.4444,-157.904 85.4552,-158.293"/>
</g>
<!-- Node7 -->
<g id="node4" class="node"><title>Node7</title>
<g id="a_node4"><a xlink:href="bondhelper_8h.html" target="_top" xlink:title="Classes and functions for the bond pricing problem. ">
<polygon fill="white" stroke="black" points="0,-56.5 0,-75.5 72,-75.5 72,-56.5 0,-56.5"/>
<text text-anchor="middle" x="36" y="-63.5" font-family="Helvetica,sans-Serif" font-size="10.00">bondhelper.h</text>
</a>
</g>
</g>
<!-- Node6&#45;&gt;Node7 -->
<g id="edge3" class="edge"><title>Node6&#45;&gt;Node7</title>
<path fill="none" stroke="midnightblue" d="M71.6221,-104.718C62.6331,-95.1997 51.6408,-83.5608 44.2649,-75.7511"/>
<polygon fill="midnightblue" stroke="midnightblue" points="69.1676,-107.216 78.5784,-112.083 74.2567,-102.41 69.1676,-107.216"/>
</g>
<!-- Node8 -->
<g id="node5" class="node"><title>Node8</title>
<g id="a_node5"><a xlink:href="main_8cpp.html" target="_top" xlink:title="A showcase of the application of the solvers on the Yield Curve Fitting, Internal Rate of Return Esti...">
<polygon fill="white" stroke="black" points="201,-0.5 201,-19.5 257,-19.5 257,-0.5 201,-0.5"/>
<text text-anchor="middle" x="229" y="-7.5" font-family="Helvetica,sans-Serif" font-size="10.00">main.cpp</text>
</a>
</g>
</g>
<!-- Node7&#45;&gt;Node8 -->
<g id="edge4" class="edge"><title>Node7&#45;&gt;Node8</title>
<path fill="none" stroke="midnightblue" d="M76.6036,-53.6394C113.843,-43.22 168.033,-28.0581 200.759,-18.9015"/>
<polygon fill="midnightblue" stroke="midnightblue" points="75.2685,-50.3785 66.5814,-56.4435 77.1547,-57.1196 75.2685,-50.3785"/>
</g>
<!-- Node9&#45;&gt;Node6 -->
<g id="edge6" class="edge"><title>Node9&#45;&gt;Node6</title>
<path fill="none" stroke="midnightblue" d="M151.284,-162.901C135.331,-152.999 114.503,-140.071 100.943,-131.655"/>
<polygon fill="midnightblue" stroke="midnightblue" points="149.68,-166.024 160.022,-168.324 153.371,-160.077 149.68,-166.024"/>
</g>
<!-- Node10 -->
<g id="node7" class="node"><title>Node10</title>
<g id="a_node7"><a xlink:href="differentialevo_8h.html" target="_top" xlink:title="Classes and functions for Differential Evolution. ">
<polygon fill="white" stroke="black" points="90.5,-56.5 90.5,-75.5 173.5,-75.5 173.5,-56.5 90.5,-56.5"/>
<text text-anchor="middle" x="132" y="-63.5" font-family="Helvetica,sans-Serif" font-size="10.00">differentialevo.h</text>
</a>
</g>
</g>
<!-- Node9&#45;&gt;Node10 -->
<g id="edge7" class="edge"><title>Node9&#45;&gt;Node10</title>
<path fill="none" stroke="midnightblue" d="M167.127,-158.998C157.962,-134.997 142.106,-93.4683 135.28,-75.5914"/>
<polygon fill="midnightblue" stroke="midnightblue" points="163.867,-160.275 170.704,-168.368 170.407,-157.778 163.867,-160.275"/>
</g>
<!-- Node11 -->
<g id="node8" class="node"><title>Node11</title>
<g id="a_node8"><a xlink:href="geneticalgo_8h.html" target="_top" xlink:title="Classes and functions for Genetic Algorithms. ">
<polygon fill="white" stroke="black" points="192,-56.5 192,-75.5 266,-75.5 266,-56.5 192,-56.5"/>
<text text-anchor="middle" x="229" y="-63.5" font-family="Helvetica,sans-Serif" font-size="10.00">geneticalgo.h</text>
</a>
</g>
</g>
<!-- Node9&#45;&gt;Node11 -->
<g id="edge9" class="edge"><title>Node9&#45;&gt;Node11</title>
<path fill="none" stroke="midnightblue" d="M178.261,-158.307C181.725,-144.948 187.302,-126.794 195,-112 202.141,-98.2757 213.419,-84.3509 221.007,-75.701"/>
<polygon fill="midnightblue" stroke="midnightblue" points="174.812,-157.678 175.848,-168.222 181.614,-159.333 174.812,-157.678"/>
</g>
<!-- Node12 -->
<g id="node9" class="node"><title>Node12</title>
<g id="a_node9"><a xlink:href="lbestpso_8h.html" target="_top" xlink:title="Classes and functions for the lbest (Local Best) Particle Swarm Optimisation with a ring topology...">
<polygon fill="white" stroke="black" points="204,-112.5 204,-131.5 266,-131.5 266,-112.5 204,-112.5"/>
<text text-anchor="middle" x="235" y="-119.5" font-family="Helvetica,sans-Serif" font-size="10.00">lbestpso.h</text>
</a>
</g>
</g>
<!-- Node9&#45;&gt;Node12 -->
<g id="edge11" class="edge"><title>Node9&#45;&gt;Node12</title>
<path fill="none" stroke="midnightblue" d="M191.467,-161.537C202.344,-151.909 215.944,-139.869 225.021,-131.834"/>
<polygon fill="midnightblue" stroke="midnightblue" points="188.968,-159.075 183.801,-168.324 193.608,-164.316 188.968,-159.075"/>
</g>
<!-- Node13 -->
<g id="node10" class="node"><title>Node13</title>
<g id="a_node10"><a xlink:href="pso__sub__swarm_8h.html" target="_top" xlink:title="Classes and functions for the initial implementation of Sub&#45;Swarm Particle Swarm Optimisation. ">
<polygon fill="white" stroke="black" points="284.5,-112.5 284.5,-131.5 379.5,-131.5 379.5,-112.5 284.5,-112.5"/>
<text text-anchor="middle" x="332" y="-119.5" font-family="Helvetica,sans-Serif" font-size="10.00">pso_sub_swarm.h</text>
</a>
</g>
</g>
<!-- Node9&#45;&gt;Node13 -->
<g id="edge13" class="edge"><title>Node9&#45;&gt;Node13</title>
<path fill="none" stroke="midnightblue" d="M208.608,-165.172C238.359,-155.004 280.547,-140.585 307.082,-131.516"/>
<polygon fill="midnightblue" stroke="midnightblue" points="207.366,-161.898 199.036,-168.444 209.63,-168.521 207.366,-161.898"/>
</g>
<!-- Node10&#45;&gt;Node8 -->
<g id="edge8" class="edge"><title>Node10&#45;&gt;Node8</title>
<path fill="none" stroke="midnightblue" d="M156.335,-51.4526C174.243,-41.4835 198.054,-28.2279 213.454,-19.6545"/>
<polygon fill="midnightblue" stroke="midnightblue" points="154.62,-48.4018 147.585,-56.324 158.025,-54.5179 154.62,-48.4018"/>
</g>
<!-- Node11&#45;&gt;Node8 -->
<g id="edge10" class="edge"><title>Node11&#45;&gt;Node8</title>
<path fill="none" stroke="midnightblue" d="M229,-45.8045C229,-36.9102 229,-26.7798 229,-19.7511"/>
<polygon fill="midnightblue" stroke="midnightblue" points="225.5,-46.083 229,-56.083 232.5,-46.083 225.5,-46.083"/>
</g>
<!-- Node12&#45;&gt;Node8 -->
<g id="edge12" class="edge"><title>Node12&#45;&gt;Node8</title>
<path fill="none" stroke="midnightblue" d="M254.653,-105.48C268.218,-92.7532 282.559,-73.9693 275,-56 268.502,-40.5531 253.826,-27.7585 242.787,-19.8113"/>
<polygon fill="midnightblue" stroke="midnightblue" points="252.16,-103.01 246.927,-112.222 256.763,-108.284 252.16,-103.01"/>
</g>
<!-- Node13&#45;&gt;Node8 -->
<g id="edge14" class="edge"><title>Node13&#45;&gt;Node8</title>
<path fill="none" stroke="midnightblue" d="M323.241,-103.312C315.852,-89.4766 304.36,-70.2591 291,-56 276.996,-41.0531 257.404,-27.8047 244.015,-19.6202"/>
<polygon fill="midnightblue" stroke="midnightblue" points="320.174,-105.001 327.865,-112.288 326.397,-101.796 320.174,-105.001"/>
</g>
</g>
</svg>
