<?xml version="1.0" encoding="UTF-8" standalone="no"?>
<!DOCTYPE svg PUBLIC "-//W3C//DTD SVG 1.1//EN"
 "http://www.w3.org/Graphics/SVG/1.1/DTD/svg11.dtd">
<!-- Generated by graphviz version 2.38.0 (20140413.2041)
 -->
<!-- Title: yield_curve_fitting.h Pages: 1 -->
<svg width="344pt" height="84pt"
 viewBox="0.00 0.00 343.50 84.00" xmlns="http://www.w3.org/2000/svg" xmlns:xlink="http://www.w3.org/1999/xlink">
<g id="graph0" class="graph" transform="scale(1 1) rotate(0) translate(4 80)">
<title>yield_curve_fitting.h</title>
<polygon fill="white" stroke="none" points="-4,4 -4,-80 339.5,-80 339.5,4 -4,4"/>
<!-- Node0 -->
<g id="node1" class="node"><title>Node0</title>
<polygon fill="#bfbfbf" stroke="black" points="115.5,-56.5 115.5,-75.5 216.5,-75.5 216.5,-56.5 115.5,-56.5"/>
<text text-anchor="middle" x="166" y="-63.5" font-family="Helvetica,sans-Serif" font-size="10.00">yield_curve_fitting.h</text>
</g>
<!-- Node1 -->
<g id="node2" class="node"><title>Node1</title>
<polygon fill="white" stroke="#bfbfbf" points="0,-0.5 0,-19.5 54,-19.5 54,-0.5 0,-0.5"/>
<text text-anchor="middle" x="27" y="-7.5" font-family="Helvetica,sans-Serif" font-size="10.00">iostream</text>
</g>
<!-- Node0&#45;&gt;Node1 -->
<g id="edge1" class="edge"><title>Node0&#45;&gt;Node1</title>
<path fill="none" stroke="midnightblue" d="M143.975,-56.4435C120.896,-47.4776 84.438,-33.314 58.3591,-23.1827"/>
<polygon fill="midnightblue" stroke="midnightblue" points="59.5107,-19.8753 48.9219,-19.5164 56.9758,-26.4002 59.5107,-19.8753"/>
</g>
<!-- Node2 -->
<g id="node3" class="node"><title>Node2</title>
<polygon fill="white" stroke="#bfbfbf" points="72.5,-0.5 72.5,-19.5 121.5,-19.5 121.5,-0.5 72.5,-0.5"/>
<text text-anchor="middle" x="97" y="-7.5" font-family="Helvetica,sans-Serif" font-size="10.00">fstream</text>
</g>
<!-- Node0&#45;&gt;Node2 -->
<g id="edge2" class="edge"><title>Node0&#45;&gt;Node2</title>
<path fill="none" stroke="midnightblue" d="M154.914,-56.324C144.514,-48.1849 128.739,-35.8395 116.278,-26.0874"/>
<polygon fill="midnightblue" stroke="midnightblue" points="118.32,-23.2407 108.288,-19.8339 114.006,-28.7533 118.32,-23.2407"/>
</g>
<!-- Node3 -->
<g id="node4" class="node"><title>Node3</title>
<polygon fill="white" stroke="#bfbfbf" points="140,-0.5 140,-19.5 192,-19.5 192,-0.5 140,-0.5"/>
<text text-anchor="middle" x="166" y="-7.5" font-family="Helvetica,sans-Serif" font-size="10.00">sstream</text>
</g>
<!-- Node0&#45;&gt;Node3 -->
<g id="edge3" class="edge"><title>Node0&#45;&gt;Node3</title>
<path fill="none" stroke="midnightblue" d="M166,-56.083C166,-49.0059 166,-38.8611 166,-29.9865"/>
<polygon fill="midnightblue" stroke="midnightblue" points="169.5,-29.751 166,-19.7511 162.5,-29.7511 169.5,-29.751"/>
</g>
<!-- Node4 -->
<g id="node5" class="node"><title>Node4</title>
<polygon fill="white" stroke="#bfbfbf" points="210,-0.5 210,-19.5 252,-19.5 252,-0.5 210,-0.5"/>
<text text-anchor="middle" x="231" y="-7.5" font-family="Helvetica,sans-Serif" font-size="10.00">vector</text>
</g>
<!-- Node0&#45;&gt;Node4 -->
<g id="edge4" class="edge"><title>Node0&#45;&gt;Node4</title>
<path fill="none" stroke="midnightblue" d="M176.443,-56.324C186.146,-48.2631 200.815,-36.0765 212.5,-26.3695"/>
<polygon fill="midnightblue" stroke="midnightblue" points="214.911,-28.9163 220.367,-19.8339 210.438,-23.532 214.911,-28.9163"/>
</g>
<!-- Node5 -->
<g id="node6" class="node"><title>Node5</title>
<g id="a_node6"><a xlink:href="svensson_8h.html" target="_top" xlink:title="Functions for the Nelson&#45;Siegel&#45;Svensson model. ">
<polygon fill="white" stroke="black" points="270.5,-0.5 270.5,-19.5 335.5,-19.5 335.5,-0.5 270.5,-0.5"/>
<text text-anchor="middle" x="303" y="-7.5" font-family="Helvetica,sans-Serif" font-size="10.00">svensson.h</text>
</a>
</g>
</g>
<!-- Node0&#45;&gt;Node5 -->
<g id="edge5" class="edge"><title>Node0&#45;&gt;Node5</title>
<path fill="none" stroke="midnightblue" d="M187.708,-56.4435C210.355,-47.5171 246.072,-33.4387 271.752,-23.3168"/>
<polygon fill="midnightblue" stroke="midnightblue" points="273.374,-26.4397 281.394,-19.5164 270.807,-19.9273 273.374,-26.4397"/>
</g>
</g>
</svg>
