<?xml version="1.0" encoding="UTF-8" standalone="no"?>
<!DOCTYPE svg PUBLIC "-//W3C//DTD SVG 1.1//EN"
 "http://www.w3.org/Graphics/SVG/1.1/DTD/svg11.dtd">
<!-- Generated by graphviz version 2.38.0 (20140413.2041)
 -->
<!-- Title: yield_curve_fitting.h Pages: 1 -->
<svg width="109pt" height="140pt"
 viewBox="0.00 0.00 109.00 140.00" xmlns="http://www.w3.org/2000/svg" xmlns:xlink="http://www.w3.org/1999/xlink">
<g id="graph0" class="graph" transform="scale(1 1) rotate(0) translate(4 136)">
<title>yield_curve_fitting.h</title>
<polygon fill="white" stroke="none" points="-4,4 -4,-136 105,-136 105,4 -4,4"/>
<!-- Node6 -->
<g id="node1" class="node"><title>Node6</title>
<polygon fill="#bfbfbf" stroke="black" points="0,-112.5 0,-131.5 101,-131.5 101,-112.5 0,-112.5"/>
<text text-anchor="middle" x="50.5" y="-119.5" font-family="Helvetica,sans-Serif" font-size="10.00">yield_curve_fitting.h</text>
</g>
<!-- Node7 -->
<g id="node2" class="node"><title>Node7</title>
<g id="a_node2"><a xlink:href="bondhelper_8h.html" target="_top" xlink:title="Classes and functions for the bond pricing problem. ">
<polygon fill="white" stroke="black" points="14.5,-56.5 14.5,-75.5 86.5,-75.5 86.5,-56.5 14.5,-56.5"/>
<text text-anchor="middle" x="50.5" y="-63.5" font-family="Helvetica,sans-Serif" font-size="10.00">bondhelper.h</text>
</a>
</g>
</g>
<!-- Node6&#45;&gt;Node7 -->
<g id="edge1" class="edge"><title>Node6&#45;&gt;Node7</title>
<path fill="none" stroke="midnightblue" d="M50.5,-101.805C50.5,-92.9102 50.5,-82.7798 50.5,-75.7511"/>
<polygon fill="midnightblue" stroke="midnightblue" points="47.0001,-102.083 50.5,-112.083 54.0001,-102.083 47.0001,-102.083"/>
</g>
<!-- Node8 -->
<g id="node3" class="node"><title>Node8</title>
<g id="a_node3"><a xlink:href="main_8cpp.html" target="_top" xlink:title="A showcase of the application of the solvers on the Yield Curve Fitting, Internal Rate of Return Esti...">
<polygon fill="white" stroke="black" points="22.5,-0.5 22.5,-19.5 78.5,-19.5 78.5,-0.5 22.5,-0.5"/>
<text text-anchor="middle" x="50.5" y="-7.5" font-family="Helvetica,sans-Serif" font-size="10.00">main.cpp</text>
</a>
</g>
</g>
<!-- Node7&#45;&gt;Node8 -->
<g id="edge2" class="edge"><title>Node7&#45;&gt;Node8</title>
<path fill="none" stroke="midnightblue" d="M50.5,-45.8045C50.5,-36.9102 50.5,-26.7798 50.5,-19.7511"/>
<polygon fill="midnightblue" stroke="midnightblue" points="47.0001,-46.083 50.5,-56.083 54.0001,-46.083 47.0001,-46.083"/>
</g>
</g>
</svg>
